%TF.GenerationSoftware,KiCad,Pcbnew,(5.1.6)-1*%
%TF.CreationDate,2020-11-22T20:04:26-08:00*%
%TF.ProjectId,vgavt1593-front,76676176-7431-4353-9933-2d66726f6e74,rev?*%
%TF.SameCoordinates,Original*%
%TF.FileFunction,Profile,NP*%
%FSLAX46Y46*%
G04 Gerber Fmt 4.6, Leading zero omitted, Abs format (unit mm)*
G04 Created by KiCad (PCBNEW (5.1.6)-1) date 2020-11-22 20:04:26*
%MOMM*%
%LPD*%
G01*
G04 APERTURE LIST*
%TA.AperFunction,Profile*%
%ADD10C,0.050000*%
%TD*%
%TA.AperFunction,Profile*%
%ADD11C,0.100000*%
%TD*%
G04 APERTURE END LIST*
D10*
X87376000Y-37211000D02*
G75*
G02*
X86106000Y-38481000I-1270000J0D01*
G01*
X86106000Y-31623000D02*
G75*
G02*
X87376000Y-32893000I0J-1270000D01*
G01*
X73152000Y-32893000D02*
G75*
G02*
X74422000Y-31623000I1270000J0D01*
G01*
X73152000Y-32893000D02*
X73152000Y-37211000D01*
X74422000Y-31623000D02*
X86106000Y-31623000D01*
X86106000Y-38481000D02*
X74422000Y-38481000D01*
X74422000Y-38481000D02*
G75*
G02*
X73152000Y-37211000I0J1270000D01*
G01*
X87376000Y-32893000D02*
X87376000Y-37211000D01*
X34290000Y-34544000D02*
G75*
G03*
X34290000Y-34544000I-2540000J0D01*
G01*
X39116000Y-39243000D02*
G75*
G02*
X38100000Y-38227000I0J1016000D01*
G01*
X69088000Y-38227000D02*
G75*
G02*
X68072000Y-39243000I-1016000J0D01*
G01*
X68072000Y-26670000D02*
G75*
G02*
X69088000Y-27686000I0J-1016000D01*
G01*
X38100000Y-27686000D02*
G75*
G02*
X39116000Y-26670000I1016000J0D01*
G01*
X38100000Y-38227000D02*
X38100000Y-27686000D01*
X68072000Y-39243000D02*
X39116000Y-39243000D01*
X69088000Y-27686000D02*
X69088000Y-38227000D01*
X39116000Y-26670000D02*
X68072000Y-26670000D01*
D11*
X23876000Y-25400000D02*
X23876000Y-45212000D01*
X92964000Y-25400000D02*
X23876000Y-25400000D01*
X92964000Y-45212000D02*
X92964000Y-25400000D01*
X23876000Y-45212000D02*
X92964000Y-45212000D01*
M02*
