%TF.GenerationSoftware,KiCad,Pcbnew,(5.1.6)-1*%
%TF.CreationDate,2020-11-22T20:04:26-08:00*%
%TF.ProjectId,vgavt1593-front,76676176-7431-4353-9933-2d66726f6e74,rev?*%
%TF.SameCoordinates,Original*%
%TF.FileFunction,Copper,L1,Top*%
%TF.FilePolarity,Positive*%
%FSLAX46Y46*%
G04 Gerber Fmt 4.6, Leading zero omitted, Abs format (unit mm)*
G04 Created by KiCad (PCBNEW (5.1.6)-1) date 2020-11-22 20:04:26*
%MOMM*%
%LPD*%
G01*
G04 APERTURE LIST*
%TA.AperFunction,ViaPad*%
%ADD10C,0.635000*%
%TD*%
%TA.AperFunction,Conductor*%
%ADD11C,0.254000*%
%TD*%
G04 APERTURE END LIST*
D10*
%TO.N,GND*%
X91694000Y-43942000D03*
X91694000Y-26670000D03*
X25146000Y-43942000D03*
X25146000Y-26670000D03*
%TD*%
D11*
%TO.N,GND*%
G36*
X92533000Y-44781000D02*
G01*
X24307000Y-44781000D01*
X24307000Y-38246940D01*
X37694000Y-38246940D01*
X37695740Y-38264605D01*
X37695696Y-38270890D01*
X37696249Y-38276532D01*
X37716976Y-38473734D01*
X37724377Y-38509789D01*
X37731270Y-38545924D01*
X37732908Y-38551347D01*
X37732909Y-38551353D01*
X37732911Y-38551359D01*
X37791544Y-38740773D01*
X37805821Y-38774736D01*
X37819589Y-38808814D01*
X37822247Y-38813815D01*
X37822249Y-38813819D01*
X37822251Y-38813822D01*
X37916561Y-38988244D01*
X37937134Y-39018744D01*
X37957287Y-39049541D01*
X37960870Y-39053934D01*
X38087264Y-39206719D01*
X38113415Y-39232689D01*
X38139120Y-39258937D01*
X38143482Y-39262546D01*
X38143488Y-39262552D01*
X38143495Y-39262556D01*
X38297150Y-39387875D01*
X38327797Y-39408237D01*
X38358161Y-39429028D01*
X38363140Y-39431720D01*
X38363148Y-39431725D01*
X38363156Y-39431728D01*
X38538226Y-39524815D01*
X38572292Y-39538857D01*
X38606071Y-39553334D01*
X38611475Y-39555007D01*
X38611484Y-39555011D01*
X38611493Y-39555013D01*
X38801313Y-39612322D01*
X38837439Y-39619475D01*
X38873400Y-39627119D01*
X38879034Y-39627712D01*
X38879041Y-39627713D01*
X38879048Y-39627713D01*
X39076380Y-39647062D01*
X39076382Y-39647062D01*
X39096059Y-39649000D01*
X68091941Y-39649000D01*
X68109606Y-39647260D01*
X68115890Y-39647304D01*
X68121532Y-39646751D01*
X68318734Y-39626024D01*
X68354789Y-39618623D01*
X68390924Y-39611730D01*
X68396347Y-39610092D01*
X68396353Y-39610091D01*
X68396359Y-39610089D01*
X68585773Y-39551456D01*
X68619736Y-39537179D01*
X68653814Y-39523411D01*
X68658815Y-39520753D01*
X68658819Y-39520751D01*
X68658822Y-39520749D01*
X68833244Y-39426439D01*
X68863744Y-39405866D01*
X68894541Y-39385713D01*
X68898934Y-39382130D01*
X69051719Y-39255736D01*
X69077689Y-39229585D01*
X69103937Y-39203880D01*
X69107546Y-39199518D01*
X69107552Y-39199512D01*
X69107556Y-39199505D01*
X69232875Y-39045850D01*
X69253237Y-39015203D01*
X69274028Y-38984839D01*
X69276720Y-38979860D01*
X69276725Y-38979852D01*
X69276728Y-38979844D01*
X69369815Y-38804774D01*
X69383857Y-38770708D01*
X69398334Y-38736929D01*
X69400007Y-38731525D01*
X69400011Y-38731516D01*
X69400013Y-38731507D01*
X69457322Y-38541687D01*
X69464475Y-38505561D01*
X69472119Y-38469600D01*
X69472712Y-38463962D01*
X69472713Y-38463959D01*
X69472713Y-38463952D01*
X69492062Y-38266620D01*
X69492062Y-38266618D01*
X69494000Y-38246941D01*
X69494000Y-32873060D01*
X72746000Y-32873060D01*
X72746001Y-37230941D01*
X72747757Y-37248770D01*
X72747702Y-37256662D01*
X72748255Y-37262304D01*
X72774163Y-37508807D01*
X72781564Y-37544860D01*
X72788458Y-37581000D01*
X72790096Y-37586427D01*
X72863391Y-37823203D01*
X72877651Y-37857126D01*
X72891435Y-37891242D01*
X72894096Y-37896248D01*
X73011984Y-38114278D01*
X73032584Y-38144819D01*
X73052711Y-38175576D01*
X73056294Y-38179970D01*
X73214287Y-38370950D01*
X73240438Y-38396920D01*
X73266143Y-38423168D01*
X73270505Y-38426777D01*
X73270511Y-38426783D01*
X73270518Y-38426787D01*
X73462589Y-38583437D01*
X73493265Y-38603818D01*
X73523602Y-38624590D01*
X73528583Y-38627284D01*
X73528587Y-38627287D01*
X73528591Y-38627289D01*
X73747436Y-38743650D01*
X73781473Y-38757679D01*
X73815278Y-38772168D01*
X73820687Y-38773842D01*
X73820694Y-38773845D01*
X73820701Y-38773846D01*
X74057974Y-38845484D01*
X74094090Y-38852635D01*
X74130065Y-38860282D01*
X74135701Y-38860875D01*
X74135703Y-38860875D01*
X74382381Y-38885062D01*
X74382382Y-38885062D01*
X74402059Y-38887000D01*
X86125941Y-38887000D01*
X86143780Y-38885243D01*
X86151662Y-38885298D01*
X86157304Y-38884745D01*
X86403807Y-38858837D01*
X86439860Y-38851436D01*
X86476000Y-38844542D01*
X86481427Y-38842904D01*
X86718203Y-38769609D01*
X86752126Y-38755349D01*
X86786242Y-38741565D01*
X86791248Y-38738904D01*
X87009278Y-38621016D01*
X87039819Y-38600416D01*
X87070576Y-38580289D01*
X87074970Y-38576706D01*
X87265950Y-38418713D01*
X87291920Y-38392562D01*
X87318168Y-38366857D01*
X87321777Y-38362495D01*
X87321783Y-38362489D01*
X87321787Y-38362482D01*
X87478437Y-38170411D01*
X87498818Y-38139735D01*
X87519590Y-38109398D01*
X87522284Y-38104417D01*
X87522287Y-38104413D01*
X87522289Y-38104409D01*
X87638650Y-37885564D01*
X87652679Y-37851527D01*
X87667168Y-37817722D01*
X87668842Y-37812313D01*
X87668845Y-37812306D01*
X87668846Y-37812299D01*
X87740484Y-37575026D01*
X87747635Y-37538910D01*
X87755282Y-37502935D01*
X87755875Y-37497297D01*
X87780062Y-37250619D01*
X87780062Y-37250618D01*
X87782000Y-37230941D01*
X87782000Y-32873059D01*
X87780243Y-32855220D01*
X87780298Y-32847339D01*
X87779745Y-32841697D01*
X87753837Y-32595193D01*
X87746436Y-32559140D01*
X87739542Y-32523000D01*
X87737904Y-32517573D01*
X87664609Y-32280797D01*
X87650349Y-32246874D01*
X87636565Y-32212758D01*
X87633904Y-32207752D01*
X87516016Y-31989722D01*
X87495416Y-31959181D01*
X87475289Y-31928424D01*
X87471706Y-31924030D01*
X87313713Y-31733050D01*
X87287597Y-31707116D01*
X87261857Y-31680831D01*
X87257489Y-31677217D01*
X87065411Y-31520563D01*
X87034762Y-31500199D01*
X87004398Y-31479409D01*
X86999422Y-31476719D01*
X86999413Y-31476713D01*
X86999404Y-31476709D01*
X86780564Y-31360350D01*
X86746539Y-31346326D01*
X86712722Y-31331832D01*
X86707307Y-31330156D01*
X86707309Y-31330156D01*
X86707301Y-31330154D01*
X86470026Y-31258516D01*
X86433910Y-31251365D01*
X86397935Y-31243718D01*
X86392299Y-31243125D01*
X86392297Y-31243125D01*
X86145619Y-31218938D01*
X86145618Y-31218938D01*
X86125941Y-31217000D01*
X74402059Y-31217000D01*
X74384220Y-31218757D01*
X74376339Y-31218702D01*
X74370697Y-31219255D01*
X74124193Y-31245163D01*
X74088140Y-31252564D01*
X74052000Y-31259458D01*
X74046573Y-31261096D01*
X73809797Y-31334391D01*
X73775874Y-31348651D01*
X73741758Y-31362435D01*
X73736752Y-31365096D01*
X73518722Y-31482984D01*
X73488181Y-31503584D01*
X73457424Y-31523711D01*
X73453030Y-31527294D01*
X73262050Y-31685287D01*
X73236116Y-31711403D01*
X73209831Y-31737143D01*
X73206217Y-31741511D01*
X73049563Y-31933589D01*
X73029199Y-31964238D01*
X73008409Y-31994602D01*
X73005719Y-31999578D01*
X73005713Y-31999587D01*
X73005709Y-31999596D01*
X72889350Y-32218436D01*
X72875326Y-32252461D01*
X72860832Y-32286278D01*
X72859156Y-32291693D01*
X72787516Y-32528974D01*
X72780365Y-32565090D01*
X72772718Y-32601065D01*
X72772125Y-32606703D01*
X72747938Y-32853381D01*
X72746000Y-32873060D01*
X69494000Y-32873060D01*
X69494000Y-27666059D01*
X69492260Y-27648394D01*
X69492304Y-27642110D01*
X69491751Y-27636468D01*
X69471024Y-27439266D01*
X69463622Y-27403205D01*
X69456730Y-27367076D01*
X69455091Y-27361649D01*
X69455091Y-27361647D01*
X69455089Y-27361641D01*
X69396456Y-27172228D01*
X69382200Y-27138314D01*
X69368411Y-27104185D01*
X69365750Y-27099180D01*
X69271439Y-26924756D01*
X69250844Y-26894223D01*
X69230713Y-26863460D01*
X69227131Y-26859066D01*
X69100736Y-26706282D01*
X69074620Y-26680348D01*
X69048880Y-26654063D01*
X69044518Y-26650454D01*
X69044512Y-26650448D01*
X69044505Y-26650444D01*
X68890850Y-26525125D01*
X68860185Y-26504751D01*
X68829838Y-26483972D01*
X68824852Y-26481275D01*
X68649774Y-26388185D01*
X68615720Y-26374148D01*
X68581929Y-26359666D01*
X68576525Y-26357993D01*
X68576516Y-26357989D01*
X68576507Y-26357987D01*
X68386687Y-26300678D01*
X68350553Y-26293523D01*
X68314599Y-26285881D01*
X68308968Y-26285289D01*
X68308959Y-26285287D01*
X68308951Y-26285287D01*
X68111620Y-26265938D01*
X68111618Y-26265938D01*
X68091941Y-26264000D01*
X39096059Y-26264000D01*
X39078394Y-26265740D01*
X39072110Y-26265696D01*
X39066468Y-26266249D01*
X38869266Y-26286976D01*
X38833205Y-26294378D01*
X38797076Y-26301270D01*
X38791653Y-26302908D01*
X38791647Y-26302909D01*
X38791641Y-26302911D01*
X38602228Y-26361544D01*
X38568314Y-26375800D01*
X38534185Y-26389589D01*
X38529180Y-26392250D01*
X38354756Y-26486561D01*
X38324223Y-26507156D01*
X38293460Y-26527287D01*
X38289066Y-26530869D01*
X38136282Y-26657264D01*
X38110348Y-26683380D01*
X38084063Y-26709120D01*
X38080454Y-26713482D01*
X38080448Y-26713488D01*
X38080444Y-26713495D01*
X37955125Y-26867150D01*
X37934751Y-26897815D01*
X37913972Y-26928162D01*
X37911275Y-26933148D01*
X37818185Y-27108226D01*
X37804148Y-27142280D01*
X37789666Y-27176071D01*
X37787993Y-27181475D01*
X37787989Y-27181484D01*
X37787987Y-27181493D01*
X37730678Y-27371313D01*
X37723523Y-27407447D01*
X37715881Y-27443401D01*
X37715289Y-27449032D01*
X37715287Y-27449041D01*
X37715287Y-27449049D01*
X37695938Y-27646380D01*
X37695938Y-27646393D01*
X37694001Y-27666059D01*
X37694000Y-38246940D01*
X24307000Y-38246940D01*
X24307000Y-34253281D01*
X28798282Y-34253281D01*
X28798282Y-34834719D01*
X28911715Y-35404984D01*
X29134222Y-35942163D01*
X29457251Y-36425610D01*
X29868390Y-36836749D01*
X30351837Y-37159778D01*
X30889016Y-37382285D01*
X31459281Y-37495718D01*
X32040719Y-37495718D01*
X32610984Y-37382285D01*
X33148163Y-37159778D01*
X33631610Y-36836749D01*
X34042749Y-36425610D01*
X34365778Y-35942163D01*
X34588285Y-35404984D01*
X34701718Y-34834719D01*
X34701718Y-34253281D01*
X34588285Y-33683016D01*
X34365778Y-33145837D01*
X34042749Y-32662390D01*
X33631610Y-32251251D01*
X33148163Y-31928222D01*
X32610984Y-31705715D01*
X32040719Y-31592282D01*
X31459281Y-31592282D01*
X30889016Y-31705715D01*
X30351837Y-31928222D01*
X29868390Y-32251251D01*
X29457251Y-32662390D01*
X29134222Y-33145837D01*
X28911715Y-33683016D01*
X28798282Y-34253281D01*
X24307000Y-34253281D01*
X24307000Y-25831000D01*
X92533001Y-25831000D01*
X92533000Y-44781000D01*
G37*
X92533000Y-44781000D02*
X24307000Y-44781000D01*
X24307000Y-38246940D01*
X37694000Y-38246940D01*
X37695740Y-38264605D01*
X37695696Y-38270890D01*
X37696249Y-38276532D01*
X37716976Y-38473734D01*
X37724377Y-38509789D01*
X37731270Y-38545924D01*
X37732908Y-38551347D01*
X37732909Y-38551353D01*
X37732911Y-38551359D01*
X37791544Y-38740773D01*
X37805821Y-38774736D01*
X37819589Y-38808814D01*
X37822247Y-38813815D01*
X37822249Y-38813819D01*
X37822251Y-38813822D01*
X37916561Y-38988244D01*
X37937134Y-39018744D01*
X37957287Y-39049541D01*
X37960870Y-39053934D01*
X38087264Y-39206719D01*
X38113415Y-39232689D01*
X38139120Y-39258937D01*
X38143482Y-39262546D01*
X38143488Y-39262552D01*
X38143495Y-39262556D01*
X38297150Y-39387875D01*
X38327797Y-39408237D01*
X38358161Y-39429028D01*
X38363140Y-39431720D01*
X38363148Y-39431725D01*
X38363156Y-39431728D01*
X38538226Y-39524815D01*
X38572292Y-39538857D01*
X38606071Y-39553334D01*
X38611475Y-39555007D01*
X38611484Y-39555011D01*
X38611493Y-39555013D01*
X38801313Y-39612322D01*
X38837439Y-39619475D01*
X38873400Y-39627119D01*
X38879034Y-39627712D01*
X38879041Y-39627713D01*
X38879048Y-39627713D01*
X39076380Y-39647062D01*
X39076382Y-39647062D01*
X39096059Y-39649000D01*
X68091941Y-39649000D01*
X68109606Y-39647260D01*
X68115890Y-39647304D01*
X68121532Y-39646751D01*
X68318734Y-39626024D01*
X68354789Y-39618623D01*
X68390924Y-39611730D01*
X68396347Y-39610092D01*
X68396353Y-39610091D01*
X68396359Y-39610089D01*
X68585773Y-39551456D01*
X68619736Y-39537179D01*
X68653814Y-39523411D01*
X68658815Y-39520753D01*
X68658819Y-39520751D01*
X68658822Y-39520749D01*
X68833244Y-39426439D01*
X68863744Y-39405866D01*
X68894541Y-39385713D01*
X68898934Y-39382130D01*
X69051719Y-39255736D01*
X69077689Y-39229585D01*
X69103937Y-39203880D01*
X69107546Y-39199518D01*
X69107552Y-39199512D01*
X69107556Y-39199505D01*
X69232875Y-39045850D01*
X69253237Y-39015203D01*
X69274028Y-38984839D01*
X69276720Y-38979860D01*
X69276725Y-38979852D01*
X69276728Y-38979844D01*
X69369815Y-38804774D01*
X69383857Y-38770708D01*
X69398334Y-38736929D01*
X69400007Y-38731525D01*
X69400011Y-38731516D01*
X69400013Y-38731507D01*
X69457322Y-38541687D01*
X69464475Y-38505561D01*
X69472119Y-38469600D01*
X69472712Y-38463962D01*
X69472713Y-38463959D01*
X69472713Y-38463952D01*
X69492062Y-38266620D01*
X69492062Y-38266618D01*
X69494000Y-38246941D01*
X69494000Y-32873060D01*
X72746000Y-32873060D01*
X72746001Y-37230941D01*
X72747757Y-37248770D01*
X72747702Y-37256662D01*
X72748255Y-37262304D01*
X72774163Y-37508807D01*
X72781564Y-37544860D01*
X72788458Y-37581000D01*
X72790096Y-37586427D01*
X72863391Y-37823203D01*
X72877651Y-37857126D01*
X72891435Y-37891242D01*
X72894096Y-37896248D01*
X73011984Y-38114278D01*
X73032584Y-38144819D01*
X73052711Y-38175576D01*
X73056294Y-38179970D01*
X73214287Y-38370950D01*
X73240438Y-38396920D01*
X73266143Y-38423168D01*
X73270505Y-38426777D01*
X73270511Y-38426783D01*
X73270518Y-38426787D01*
X73462589Y-38583437D01*
X73493265Y-38603818D01*
X73523602Y-38624590D01*
X73528583Y-38627284D01*
X73528587Y-38627287D01*
X73528591Y-38627289D01*
X73747436Y-38743650D01*
X73781473Y-38757679D01*
X73815278Y-38772168D01*
X73820687Y-38773842D01*
X73820694Y-38773845D01*
X73820701Y-38773846D01*
X74057974Y-38845484D01*
X74094090Y-38852635D01*
X74130065Y-38860282D01*
X74135701Y-38860875D01*
X74135703Y-38860875D01*
X74382381Y-38885062D01*
X74382382Y-38885062D01*
X74402059Y-38887000D01*
X86125941Y-38887000D01*
X86143780Y-38885243D01*
X86151662Y-38885298D01*
X86157304Y-38884745D01*
X86403807Y-38858837D01*
X86439860Y-38851436D01*
X86476000Y-38844542D01*
X86481427Y-38842904D01*
X86718203Y-38769609D01*
X86752126Y-38755349D01*
X86786242Y-38741565D01*
X86791248Y-38738904D01*
X87009278Y-38621016D01*
X87039819Y-38600416D01*
X87070576Y-38580289D01*
X87074970Y-38576706D01*
X87265950Y-38418713D01*
X87291920Y-38392562D01*
X87318168Y-38366857D01*
X87321777Y-38362495D01*
X87321783Y-38362489D01*
X87321787Y-38362482D01*
X87478437Y-38170411D01*
X87498818Y-38139735D01*
X87519590Y-38109398D01*
X87522284Y-38104417D01*
X87522287Y-38104413D01*
X87522289Y-38104409D01*
X87638650Y-37885564D01*
X87652679Y-37851527D01*
X87667168Y-37817722D01*
X87668842Y-37812313D01*
X87668845Y-37812306D01*
X87668846Y-37812299D01*
X87740484Y-37575026D01*
X87747635Y-37538910D01*
X87755282Y-37502935D01*
X87755875Y-37497297D01*
X87780062Y-37250619D01*
X87780062Y-37250618D01*
X87782000Y-37230941D01*
X87782000Y-32873059D01*
X87780243Y-32855220D01*
X87780298Y-32847339D01*
X87779745Y-32841697D01*
X87753837Y-32595193D01*
X87746436Y-32559140D01*
X87739542Y-32523000D01*
X87737904Y-32517573D01*
X87664609Y-32280797D01*
X87650349Y-32246874D01*
X87636565Y-32212758D01*
X87633904Y-32207752D01*
X87516016Y-31989722D01*
X87495416Y-31959181D01*
X87475289Y-31928424D01*
X87471706Y-31924030D01*
X87313713Y-31733050D01*
X87287597Y-31707116D01*
X87261857Y-31680831D01*
X87257489Y-31677217D01*
X87065411Y-31520563D01*
X87034762Y-31500199D01*
X87004398Y-31479409D01*
X86999422Y-31476719D01*
X86999413Y-31476713D01*
X86999404Y-31476709D01*
X86780564Y-31360350D01*
X86746539Y-31346326D01*
X86712722Y-31331832D01*
X86707307Y-31330156D01*
X86707309Y-31330156D01*
X86707301Y-31330154D01*
X86470026Y-31258516D01*
X86433910Y-31251365D01*
X86397935Y-31243718D01*
X86392299Y-31243125D01*
X86392297Y-31243125D01*
X86145619Y-31218938D01*
X86145618Y-31218938D01*
X86125941Y-31217000D01*
X74402059Y-31217000D01*
X74384220Y-31218757D01*
X74376339Y-31218702D01*
X74370697Y-31219255D01*
X74124193Y-31245163D01*
X74088140Y-31252564D01*
X74052000Y-31259458D01*
X74046573Y-31261096D01*
X73809797Y-31334391D01*
X73775874Y-31348651D01*
X73741758Y-31362435D01*
X73736752Y-31365096D01*
X73518722Y-31482984D01*
X73488181Y-31503584D01*
X73457424Y-31523711D01*
X73453030Y-31527294D01*
X73262050Y-31685287D01*
X73236116Y-31711403D01*
X73209831Y-31737143D01*
X73206217Y-31741511D01*
X73049563Y-31933589D01*
X73029199Y-31964238D01*
X73008409Y-31994602D01*
X73005719Y-31999578D01*
X73005713Y-31999587D01*
X73005709Y-31999596D01*
X72889350Y-32218436D01*
X72875326Y-32252461D01*
X72860832Y-32286278D01*
X72859156Y-32291693D01*
X72787516Y-32528974D01*
X72780365Y-32565090D01*
X72772718Y-32601065D01*
X72772125Y-32606703D01*
X72747938Y-32853381D01*
X72746000Y-32873060D01*
X69494000Y-32873060D01*
X69494000Y-27666059D01*
X69492260Y-27648394D01*
X69492304Y-27642110D01*
X69491751Y-27636468D01*
X69471024Y-27439266D01*
X69463622Y-27403205D01*
X69456730Y-27367076D01*
X69455091Y-27361649D01*
X69455091Y-27361647D01*
X69455089Y-27361641D01*
X69396456Y-27172228D01*
X69382200Y-27138314D01*
X69368411Y-27104185D01*
X69365750Y-27099180D01*
X69271439Y-26924756D01*
X69250844Y-26894223D01*
X69230713Y-26863460D01*
X69227131Y-26859066D01*
X69100736Y-26706282D01*
X69074620Y-26680348D01*
X69048880Y-26654063D01*
X69044518Y-26650454D01*
X69044512Y-26650448D01*
X69044505Y-26650444D01*
X68890850Y-26525125D01*
X68860185Y-26504751D01*
X68829838Y-26483972D01*
X68824852Y-26481275D01*
X68649774Y-26388185D01*
X68615720Y-26374148D01*
X68581929Y-26359666D01*
X68576525Y-26357993D01*
X68576516Y-26357989D01*
X68576507Y-26357987D01*
X68386687Y-26300678D01*
X68350553Y-26293523D01*
X68314599Y-26285881D01*
X68308968Y-26285289D01*
X68308959Y-26285287D01*
X68308951Y-26285287D01*
X68111620Y-26265938D01*
X68111618Y-26265938D01*
X68091941Y-26264000D01*
X39096059Y-26264000D01*
X39078394Y-26265740D01*
X39072110Y-26265696D01*
X39066468Y-26266249D01*
X38869266Y-26286976D01*
X38833205Y-26294378D01*
X38797076Y-26301270D01*
X38791653Y-26302908D01*
X38791647Y-26302909D01*
X38791641Y-26302911D01*
X38602228Y-26361544D01*
X38568314Y-26375800D01*
X38534185Y-26389589D01*
X38529180Y-26392250D01*
X38354756Y-26486561D01*
X38324223Y-26507156D01*
X38293460Y-26527287D01*
X38289066Y-26530869D01*
X38136282Y-26657264D01*
X38110348Y-26683380D01*
X38084063Y-26709120D01*
X38080454Y-26713482D01*
X38080448Y-26713488D01*
X38080444Y-26713495D01*
X37955125Y-26867150D01*
X37934751Y-26897815D01*
X37913972Y-26928162D01*
X37911275Y-26933148D01*
X37818185Y-27108226D01*
X37804148Y-27142280D01*
X37789666Y-27176071D01*
X37787993Y-27181475D01*
X37787989Y-27181484D01*
X37787987Y-27181493D01*
X37730678Y-27371313D01*
X37723523Y-27407447D01*
X37715881Y-27443401D01*
X37715289Y-27449032D01*
X37715287Y-27449041D01*
X37715287Y-27449049D01*
X37695938Y-27646380D01*
X37695938Y-27646393D01*
X37694001Y-27666059D01*
X37694000Y-38246940D01*
X24307000Y-38246940D01*
X24307000Y-34253281D01*
X28798282Y-34253281D01*
X28798282Y-34834719D01*
X28911715Y-35404984D01*
X29134222Y-35942163D01*
X29457251Y-36425610D01*
X29868390Y-36836749D01*
X30351837Y-37159778D01*
X30889016Y-37382285D01*
X31459281Y-37495718D01*
X32040719Y-37495718D01*
X32610984Y-37382285D01*
X33148163Y-37159778D01*
X33631610Y-36836749D01*
X34042749Y-36425610D01*
X34365778Y-35942163D01*
X34588285Y-35404984D01*
X34701718Y-34834719D01*
X34701718Y-34253281D01*
X34588285Y-33683016D01*
X34365778Y-33145837D01*
X34042749Y-32662390D01*
X33631610Y-32251251D01*
X33148163Y-31928222D01*
X32610984Y-31705715D01*
X32040719Y-31592282D01*
X31459281Y-31592282D01*
X30889016Y-31705715D01*
X30351837Y-31928222D01*
X29868390Y-32251251D01*
X29457251Y-32662390D01*
X29134222Y-33145837D01*
X28911715Y-33683016D01*
X28798282Y-34253281D01*
X24307000Y-34253281D01*
X24307000Y-25831000D01*
X92533001Y-25831000D01*
X92533000Y-44781000D01*
%TD*%
M02*
