%TF.GenerationSoftware,KiCad,Pcbnew,(5.1.6)-1*%
%TF.CreationDate,2020-11-22T20:04:26-08:00*%
%TF.ProjectId,vgavt1593-front,76676176-7431-4353-9933-2d66726f6e74,rev?*%
%TF.SameCoordinates,Original*%
%TF.FileFunction,Legend,Bot*%
%TF.FilePolarity,Positive*%
%FSLAX46Y46*%
G04 Gerber Fmt 4.6, Leading zero omitted, Abs format (unit mm)*
G04 Created by KiCad (PCBNEW (5.1.6)-1) date 2020-11-22 20:04:26*
%MOMM*%
%LPD*%
G01*
G04 APERTURE LIST*
%ADD10C,0.203200*%
%ADD11C,0.120000*%
%ADD12C,0.150000*%
G04 APERTURE END LIST*
D10*
X46409428Y-41075428D02*
X46409428Y-42164000D01*
X46482000Y-42381714D01*
X46627142Y-42526857D01*
X46844857Y-42599428D01*
X46990000Y-42599428D01*
X44958000Y-42599428D02*
X45683714Y-42599428D01*
X45683714Y-41075428D01*
X43579142Y-42454285D02*
X43651714Y-42526857D01*
X43869428Y-42599428D01*
X44014571Y-42599428D01*
X44232285Y-42526857D01*
X44377428Y-42381714D01*
X44450000Y-42236571D01*
X44522571Y-41946285D01*
X44522571Y-41728571D01*
X44450000Y-41438285D01*
X44377428Y-41293142D01*
X44232285Y-41148000D01*
X44014571Y-41075428D01*
X43869428Y-41075428D01*
X43651714Y-41148000D01*
X43579142Y-41220571D01*
X42490571Y-41075428D02*
X42490571Y-42164000D01*
X42563142Y-42381714D01*
X42708285Y-42526857D01*
X42926000Y-42599428D01*
X43071142Y-42599428D01*
X41039142Y-42599428D02*
X41764857Y-42599428D01*
X41764857Y-41075428D01*
X39660285Y-42454285D02*
X39732857Y-42526857D01*
X39950571Y-42599428D01*
X40095714Y-42599428D01*
X40313428Y-42526857D01*
X40458571Y-42381714D01*
X40531142Y-42236571D01*
X40603714Y-41946285D01*
X40603714Y-41728571D01*
X40531142Y-41438285D01*
X40458571Y-41293142D01*
X40313428Y-41148000D01*
X40095714Y-41075428D01*
X39950571Y-41075428D01*
X39732857Y-41148000D01*
X39660285Y-41220571D01*
X38571714Y-41075428D02*
X38571714Y-42164000D01*
X38644285Y-42381714D01*
X38789428Y-42526857D01*
X39007142Y-42599428D01*
X39152285Y-42599428D01*
X37120285Y-42599428D02*
X37846000Y-42599428D01*
X37846000Y-41075428D01*
X35741428Y-42454285D02*
X35814000Y-42526857D01*
X36031714Y-42599428D01*
X36176857Y-42599428D01*
X36394571Y-42526857D01*
X36539714Y-42381714D01*
X36612285Y-42236571D01*
X36684857Y-41946285D01*
X36684857Y-41728571D01*
X36612285Y-41438285D01*
X36539714Y-41293142D01*
X36394571Y-41148000D01*
X36176857Y-41075428D01*
X36031714Y-41075428D01*
X35814000Y-41148000D01*
X35741428Y-41220571D01*
X34652857Y-41075428D02*
X34652857Y-42164000D01*
X34725428Y-42381714D01*
X34870571Y-42526857D01*
X35088285Y-42599428D01*
X35233428Y-42599428D01*
X33201428Y-42599428D02*
X33927142Y-42599428D01*
X33927142Y-41075428D01*
X31822571Y-42454285D02*
X31895142Y-42526857D01*
X32112857Y-42599428D01*
X32258000Y-42599428D01*
X32475714Y-42526857D01*
X32620857Y-42381714D01*
X32693428Y-42236571D01*
X32766000Y-41946285D01*
X32766000Y-41728571D01*
X32693428Y-41438285D01*
X32620857Y-41293142D01*
X32475714Y-41148000D01*
X32258000Y-41075428D01*
X32112857Y-41075428D01*
X31895142Y-41148000D01*
X31822571Y-41220571D01*
X89421062Y-42599428D02*
X89421062Y-41075428D01*
X88840491Y-41075428D01*
X88695348Y-41148000D01*
X88622777Y-41220571D01*
X88550205Y-41365714D01*
X88550205Y-41583428D01*
X88622777Y-41728571D01*
X88695348Y-41801142D01*
X88840491Y-41873714D01*
X89421062Y-41873714D01*
X87897062Y-42599428D02*
X87897062Y-41075428D01*
X87534205Y-41075428D01*
X87316491Y-41148000D01*
X87171348Y-41293142D01*
X87098777Y-41438285D01*
X87026205Y-41728571D01*
X87026205Y-41946285D01*
X87098777Y-42236571D01*
X87171348Y-42381714D01*
X87316491Y-42526857D01*
X87534205Y-42599428D01*
X87897062Y-42599428D01*
X85574777Y-42599428D02*
X86445634Y-42599428D01*
X86010205Y-42599428D02*
X86010205Y-41075428D01*
X86155348Y-41293142D01*
X86300491Y-41438285D01*
X86445634Y-41510857D01*
X84631348Y-41075428D02*
X84486205Y-41075428D01*
X84341062Y-41148000D01*
X84268491Y-41220571D01*
X84195920Y-41365714D01*
X84123348Y-41656000D01*
X84123348Y-42018857D01*
X84195920Y-42309142D01*
X84268491Y-42454285D01*
X84341062Y-42526857D01*
X84486205Y-42599428D01*
X84631348Y-42599428D01*
X84776491Y-42526857D01*
X84849062Y-42454285D01*
X84921634Y-42309142D01*
X84994205Y-42018857D01*
X84994205Y-41656000D01*
X84921634Y-41365714D01*
X84849062Y-41220571D01*
X84776491Y-41148000D01*
X84631348Y-41075428D01*
X83542777Y-41220571D02*
X83470205Y-41148000D01*
X83325062Y-41075428D01*
X82962205Y-41075428D01*
X82817062Y-41148000D01*
X82744491Y-41220571D01*
X82671920Y-41365714D01*
X82671920Y-41510857D01*
X82744491Y-41728571D01*
X83615348Y-42599428D01*
X82671920Y-42599428D01*
X80349634Y-41801142D02*
X80131920Y-41873714D01*
X80059348Y-41946285D01*
X79986777Y-42091428D01*
X79986777Y-42309142D01*
X80059348Y-42454285D01*
X80131920Y-42526857D01*
X80277062Y-42599428D01*
X80857634Y-42599428D01*
X80857634Y-41075428D01*
X80349634Y-41075428D01*
X80204491Y-41148000D01*
X80131920Y-41220571D01*
X80059348Y-41365714D01*
X80059348Y-41510857D01*
X80131920Y-41656000D01*
X80204491Y-41728571D01*
X80349634Y-41801142D01*
X80857634Y-41801142D01*
X78680491Y-42599428D02*
X78680491Y-41801142D01*
X78753062Y-41656000D01*
X78898205Y-41583428D01*
X79188491Y-41583428D01*
X79333634Y-41656000D01*
X78680491Y-42526857D02*
X78825634Y-42599428D01*
X79188491Y-42599428D01*
X79333634Y-42526857D01*
X79406205Y-42381714D01*
X79406205Y-42236571D01*
X79333634Y-42091428D01*
X79188491Y-42018857D01*
X78825634Y-42018857D01*
X78680491Y-41946285D01*
X77301634Y-42526857D02*
X77446777Y-42599428D01*
X77737062Y-42599428D01*
X77882205Y-42526857D01*
X77954777Y-42454285D01*
X78027348Y-42309142D01*
X78027348Y-41873714D01*
X77954777Y-41728571D01*
X77882205Y-41656000D01*
X77737062Y-41583428D01*
X77446777Y-41583428D01*
X77301634Y-41656000D01*
X76648491Y-42599428D02*
X76648491Y-41075428D01*
X76503348Y-42018857D02*
X76067920Y-42599428D01*
X76067920Y-41583428D02*
X76648491Y-42164000D01*
X74253634Y-41583428D02*
X74253634Y-43107428D01*
X74253634Y-41656000D02*
X74108491Y-41583428D01*
X73818205Y-41583428D01*
X73673062Y-41656000D01*
X73600491Y-41728571D01*
X73527920Y-41873714D01*
X73527920Y-42309142D01*
X73600491Y-42454285D01*
X73673062Y-42526857D01*
X73818205Y-42599428D01*
X74108491Y-42599428D01*
X74253634Y-42526857D01*
X72221634Y-42599428D02*
X72221634Y-41801142D01*
X72294205Y-41656000D01*
X72439348Y-41583428D01*
X72729634Y-41583428D01*
X72874777Y-41656000D01*
X72221634Y-42526857D02*
X72366777Y-42599428D01*
X72729634Y-42599428D01*
X72874777Y-42526857D01*
X72947348Y-42381714D01*
X72947348Y-42236571D01*
X72874777Y-42091428D01*
X72729634Y-42018857D01*
X72366777Y-42018857D01*
X72221634Y-41946285D01*
X71495920Y-41583428D02*
X71495920Y-42599428D01*
X71495920Y-41728571D02*
X71423348Y-41656000D01*
X71278205Y-41583428D01*
X71060491Y-41583428D01*
X70915348Y-41656000D01*
X70842777Y-41801142D01*
X70842777Y-42599428D01*
X69536491Y-42526857D02*
X69681634Y-42599428D01*
X69971920Y-42599428D01*
X70117062Y-42526857D01*
X70189634Y-42381714D01*
X70189634Y-41801142D01*
X70117062Y-41656000D01*
X69971920Y-41583428D01*
X69681634Y-41583428D01*
X69536491Y-41656000D01*
X69463920Y-41801142D01*
X69463920Y-41946285D01*
X70189634Y-42091428D01*
X68593062Y-42599428D02*
X68738205Y-42526857D01*
X68810777Y-42381714D01*
X68810777Y-41075428D01*
X66996491Y-41583428D02*
X66633634Y-42599428D01*
X66270777Y-41583428D01*
X64891920Y-42599428D02*
X65762777Y-42599428D01*
X65327348Y-42599428D02*
X65327348Y-41075428D01*
X65472491Y-41293142D01*
X65617634Y-41438285D01*
X65762777Y-41510857D01*
X64238777Y-42454285D02*
X64166205Y-42526857D01*
X64238777Y-42599428D01*
X64311348Y-42526857D01*
X64238777Y-42454285D01*
X64238777Y-42599428D01*
X63222777Y-41075428D02*
X63077634Y-41075428D01*
X62932491Y-41148000D01*
X62859920Y-41220571D01*
X62787348Y-41365714D01*
X62714777Y-41656000D01*
X62714777Y-42018857D01*
X62787348Y-42309142D01*
X62859920Y-42454285D01*
X62932491Y-42526857D01*
X63077634Y-42599428D01*
X63222777Y-42599428D01*
X63367920Y-42526857D01*
X63440491Y-42454285D01*
X63513062Y-42309142D01*
X63585634Y-42018857D01*
X63585634Y-41656000D01*
X63513062Y-41365714D01*
X63440491Y-41220571D01*
X63367920Y-41148000D01*
X63222777Y-41075428D01*
D11*
%TO.C,TP1*%
X79314000Y-29652000D02*
X81214000Y-29652000D01*
X81214000Y-29652000D02*
X81214000Y-27752000D01*
X81214000Y-27752000D02*
X79314000Y-27752000D01*
X79314000Y-27752000D02*
X79314000Y-29652000D01*
D12*
X81525904Y-29802380D02*
X80954476Y-29802380D01*
X81240190Y-30802380D02*
X81240190Y-29802380D01*
X80621142Y-30802380D02*
X80621142Y-29802380D01*
X80240190Y-29802380D01*
X80144952Y-29850000D01*
X80097333Y-29897619D01*
X80049714Y-29992857D01*
X80049714Y-30135714D01*
X80097333Y-30230952D01*
X80144952Y-30278571D01*
X80240190Y-30326190D01*
X80621142Y-30326190D01*
X79097333Y-30802380D02*
X79668761Y-30802380D01*
X79383047Y-30802380D02*
X79383047Y-29802380D01*
X79478285Y-29945238D01*
X79573523Y-30040476D01*
X79668761Y-30088095D01*
%TD*%
M02*
