%TF.GenerationSoftware,KiCad,Pcbnew,(5.1.6)-1*%
%TF.CreationDate,2020-11-22T20:04:26-08:00*%
%TF.ProjectId,vgavt1593-front,76676176-7431-4353-9933-2d66726f6e74,rev?*%
%TF.SameCoordinates,Original*%
%TF.FileFunction,Soldermask,Top*%
%TF.FilePolarity,Negative*%
%FSLAX46Y46*%
G04 Gerber Fmt 4.6, Leading zero omitted, Abs format (unit mm)*
G04 Created by KiCad (PCBNEW (5.1.6)-1) date 2020-11-22 20:04:26*
%MOMM*%
%LPD*%
G01*
G04 APERTURE LIST*
%ADD10C,0.100000*%
G04 APERTURE END LIST*
D10*
G36*
X31750000Y-34417000D02*
G01*
X32893000Y-33274000D01*
X33020000Y-33274000D01*
X31877000Y-34544000D01*
X33020000Y-35687000D01*
X33020000Y-35814000D01*
X32893000Y-35814000D01*
X31750000Y-34671000D01*
X30607000Y-35814000D01*
X30480000Y-35814000D01*
X30480000Y-35687000D01*
X31623000Y-34544000D01*
X30480000Y-33401000D01*
X30480000Y-33274000D01*
X30607000Y-33274000D01*
X31750000Y-34417000D01*
G37*
X31750000Y-34417000D02*
X32893000Y-33274000D01*
X33020000Y-33274000D01*
X31877000Y-34544000D01*
X33020000Y-35687000D01*
X33020000Y-35814000D01*
X32893000Y-35814000D01*
X31750000Y-34671000D01*
X30607000Y-35814000D01*
X30480000Y-35814000D01*
X30480000Y-35687000D01*
X31623000Y-34544000D01*
X30480000Y-33401000D01*
X30480000Y-33274000D01*
X30607000Y-33274000D01*
X31750000Y-34417000D01*
G36*
X80264000Y-34798000D02*
G01*
X82550000Y-32512000D01*
X82804000Y-32512000D01*
X82804000Y-32766000D01*
X80518000Y-35052000D01*
X82804000Y-37338000D01*
X82804000Y-37592000D01*
X82550000Y-37592000D01*
X80264000Y-35306000D01*
X77978000Y-37592000D01*
X77724000Y-37592000D01*
X77724000Y-37338000D01*
X80010000Y-35052000D01*
X77724000Y-32766000D01*
X77724000Y-32512000D01*
X77978000Y-32512000D01*
X80264000Y-34798000D01*
G37*
X80264000Y-34798000D02*
X82550000Y-32512000D01*
X82804000Y-32512000D01*
X82804000Y-32766000D01*
X80518000Y-35052000D01*
X82804000Y-37338000D01*
X82804000Y-37592000D01*
X82550000Y-37592000D01*
X80264000Y-35306000D01*
X77978000Y-37592000D01*
X77724000Y-37592000D01*
X77724000Y-37338000D01*
X80010000Y-35052000D01*
X77724000Y-32766000D01*
X77724000Y-32512000D01*
X77978000Y-32512000D01*
X80264000Y-34798000D01*
G36*
X53340000Y-32766000D02*
G01*
X55626000Y-30480000D01*
X55880000Y-30480000D01*
X55880000Y-30734000D01*
X53594000Y-33020000D01*
X55880000Y-35306000D01*
X55880000Y-35560000D01*
X55626000Y-35560000D01*
X53340000Y-33274000D01*
X51054000Y-35560000D01*
X50800000Y-35560000D01*
X50800000Y-35306000D01*
X53086000Y-33020000D01*
X50800000Y-30734000D01*
X50800000Y-30480000D01*
X51054000Y-30480000D01*
X53340000Y-32766000D01*
G37*
X53340000Y-32766000D02*
X55626000Y-30480000D01*
X55880000Y-30480000D01*
X55880000Y-30734000D01*
X53594000Y-33020000D01*
X55880000Y-35306000D01*
X55880000Y-35560000D01*
X55626000Y-35560000D01*
X53340000Y-33274000D01*
X51054000Y-35560000D01*
X50800000Y-35560000D01*
X50800000Y-35306000D01*
X53086000Y-33020000D01*
X50800000Y-30734000D01*
X50800000Y-30480000D01*
X51054000Y-30480000D01*
X53340000Y-32766000D01*
M02*
