%TF.GenerationSoftware,KiCad,Pcbnew,(5.1.6)-1*%
%TF.CreationDate,2020-11-22T20:04:02-08:00*%
%TF.ProjectId,vgavt1593-back,76676176-7431-4353-9933-2d6261636b2e,rev?*%
%TF.SameCoordinates,Original*%
%TF.FileFunction,Copper,L1,Top*%
%TF.FilePolarity,Positive*%
%FSLAX46Y46*%
G04 Gerber Fmt 4.6, Leading zero omitted, Abs format (unit mm)*
G04 Created by KiCad (PCBNEW (5.1.6)-1) date 2020-11-22 20:04:02*
%MOMM*%
%LPD*%
G01*
G04 APERTURE LIST*
%TA.AperFunction,ViaPad*%
%ADD10C,0.635000*%
%TD*%
%TA.AperFunction,Conductor*%
%ADD11C,0.254000*%
%TD*%
G04 APERTURE END LIST*
D10*
%TO.N,GND*%
X91694000Y-43942000D03*
X91694000Y-26670000D03*
X25146000Y-43942000D03*
X25146000Y-26670000D03*
%TD*%
D11*
%TO.N,GND*%
G36*
X92533000Y-44781000D02*
G01*
X24307000Y-44781000D01*
X24307000Y-37822501D01*
X27535717Y-37822501D01*
X27535974Y-37859299D01*
X27535717Y-37896096D01*
X27536270Y-37901738D01*
X27575133Y-38271492D01*
X27582538Y-38307564D01*
X27589428Y-38343684D01*
X27591066Y-38349111D01*
X27701008Y-38704275D01*
X27715263Y-38738186D01*
X27729052Y-38772314D01*
X27731713Y-38777320D01*
X27908545Y-39104365D01*
X27929135Y-39134890D01*
X27949272Y-39165663D01*
X27952855Y-39170056D01*
X28189844Y-39456526D01*
X28215960Y-39482460D01*
X28241700Y-39508745D01*
X28246068Y-39512359D01*
X28534185Y-39747342D01*
X28564865Y-39767726D01*
X28595197Y-39788495D01*
X28600179Y-39791189D01*
X28600183Y-39791192D01*
X28600187Y-39791194D01*
X28928456Y-39965737D01*
X28962505Y-39979771D01*
X28996298Y-39994255D01*
X29001714Y-39995932D01*
X29357636Y-40103391D01*
X29393728Y-40110538D01*
X29429728Y-40118189D01*
X29435362Y-40118782D01*
X29435366Y-40118782D01*
X29805381Y-40155062D01*
X29805382Y-40155062D01*
X29825059Y-40157000D01*
X43834941Y-40157000D01*
X43836357Y-40156861D01*
X43844437Y-40156804D01*
X43862780Y-40154876D01*
X43881216Y-40154876D01*
X43886854Y-40154284D01*
X44256328Y-40112841D01*
X44292386Y-40105177D01*
X44328418Y-40098042D01*
X44333824Y-40096369D01*
X44333834Y-40096367D01*
X44333843Y-40096363D01*
X44688221Y-39983949D01*
X44722095Y-39969431D01*
X44756064Y-39955429D01*
X44761042Y-39952738D01*
X44761051Y-39952734D01*
X44761058Y-39952729D01*
X45086854Y-39773621D01*
X45117208Y-39752838D01*
X45147865Y-39732469D01*
X45152234Y-39728855D01*
X45437041Y-39489873D01*
X45462782Y-39463588D01*
X45488898Y-39437653D01*
X45492476Y-39433266D01*
X45492481Y-39433261D01*
X45492485Y-39433256D01*
X45725447Y-39143510D01*
X45745591Y-39112726D01*
X45766173Y-39082212D01*
X45768835Y-39077206D01*
X45804523Y-39008940D01*
X57252000Y-39008940D01*
X57253688Y-39026082D01*
X57253678Y-39027572D01*
X57254230Y-39033214D01*
X57256785Y-39057519D01*
X57257875Y-39068589D01*
X57257987Y-39068958D01*
X57259412Y-39082515D01*
X57266819Y-39118600D01*
X57273707Y-39154706D01*
X57275345Y-39160133D01*
X57290004Y-39207488D01*
X57304277Y-39241441D01*
X57318046Y-39275522D01*
X57320707Y-39280528D01*
X57344284Y-39324134D01*
X57364896Y-39354694D01*
X57385015Y-39385438D01*
X57388587Y-39389818D01*
X57388592Y-39389826D01*
X57388598Y-39389832D01*
X57420196Y-39428027D01*
X57446315Y-39453964D01*
X57472053Y-39480246D01*
X57476421Y-39483860D01*
X57514836Y-39515191D01*
X57545529Y-39535583D01*
X57575843Y-39556340D01*
X57580830Y-39559037D01*
X57580835Y-39559040D01*
X57580838Y-39559041D01*
X57624599Y-39582310D01*
X57658665Y-39596352D01*
X57692444Y-39610829D01*
X57697848Y-39612502D01*
X57697857Y-39612506D01*
X57697866Y-39612508D01*
X57745316Y-39626834D01*
X57781383Y-39633976D01*
X57817411Y-39641633D01*
X57823049Y-39642226D01*
X57872385Y-39647063D01*
X57872393Y-39647063D01*
X57892059Y-39649000D01*
X66567941Y-39649000D01*
X66585083Y-39647312D01*
X66586572Y-39647322D01*
X66592214Y-39646770D01*
X66616504Y-39644217D01*
X66627590Y-39643125D01*
X66627960Y-39643013D01*
X66641515Y-39641588D01*
X66677600Y-39634181D01*
X66713706Y-39627293D01*
X66719131Y-39625656D01*
X66719137Y-39625654D01*
X66766488Y-39610996D01*
X66800441Y-39596723D01*
X66834522Y-39582954D01*
X66839528Y-39580293D01*
X66883134Y-39556716D01*
X66913694Y-39536104D01*
X66944438Y-39515985D01*
X66948818Y-39512413D01*
X66948826Y-39512408D01*
X66948832Y-39512402D01*
X66987027Y-39480804D01*
X67012964Y-39454685D01*
X67039246Y-39428947D01*
X67042860Y-39424579D01*
X67074191Y-39386164D01*
X67094583Y-39355471D01*
X67115340Y-39325157D01*
X67118037Y-39320170D01*
X67141310Y-39276401D01*
X67155352Y-39242335D01*
X67169829Y-39208556D01*
X67171502Y-39203152D01*
X67171506Y-39203143D01*
X67171508Y-39203134D01*
X67185834Y-39155684D01*
X67192976Y-39119617D01*
X67200633Y-39083589D01*
X67201226Y-39077951D01*
X67206063Y-39028615D01*
X67206063Y-39028607D01*
X67208000Y-39008941D01*
X67208000Y-37822501D01*
X70715717Y-37822501D01*
X70715974Y-37859299D01*
X70715717Y-37896096D01*
X70716270Y-37901738D01*
X70755133Y-38271492D01*
X70762538Y-38307564D01*
X70769428Y-38343684D01*
X70771066Y-38349111D01*
X70881008Y-38704275D01*
X70895263Y-38738186D01*
X70909052Y-38772314D01*
X70911713Y-38777320D01*
X71088545Y-39104365D01*
X71109135Y-39134890D01*
X71129272Y-39165663D01*
X71132855Y-39170056D01*
X71369844Y-39456526D01*
X71395960Y-39482460D01*
X71421700Y-39508745D01*
X71426068Y-39512359D01*
X71714185Y-39747342D01*
X71744865Y-39767726D01*
X71775197Y-39788495D01*
X71780179Y-39791189D01*
X71780183Y-39791192D01*
X71780187Y-39791194D01*
X72108456Y-39965737D01*
X72142505Y-39979771D01*
X72176298Y-39994255D01*
X72181714Y-39995932D01*
X72537636Y-40103391D01*
X72573728Y-40110538D01*
X72609728Y-40118189D01*
X72615362Y-40118782D01*
X72615366Y-40118782D01*
X72985381Y-40155062D01*
X72985382Y-40155062D01*
X73005059Y-40157000D01*
X87014941Y-40157000D01*
X87016357Y-40156861D01*
X87024437Y-40156804D01*
X87042780Y-40154876D01*
X87061216Y-40154876D01*
X87066854Y-40154284D01*
X87436328Y-40112841D01*
X87472386Y-40105177D01*
X87508418Y-40098042D01*
X87513824Y-40096369D01*
X87513834Y-40096367D01*
X87513843Y-40096363D01*
X87868221Y-39983949D01*
X87902095Y-39969431D01*
X87936064Y-39955429D01*
X87941042Y-39952738D01*
X87941051Y-39952734D01*
X87941058Y-39952729D01*
X88266854Y-39773621D01*
X88297208Y-39752838D01*
X88327865Y-39732469D01*
X88332234Y-39728855D01*
X88617041Y-39489873D01*
X88642782Y-39463588D01*
X88668898Y-39437653D01*
X88672476Y-39433266D01*
X88672481Y-39433261D01*
X88672485Y-39433256D01*
X88905447Y-39143510D01*
X88925591Y-39112726D01*
X88946173Y-39082212D01*
X88948835Y-39077206D01*
X89121083Y-38747725D01*
X89134857Y-38713633D01*
X89149128Y-38679683D01*
X89150767Y-38674256D01*
X89255739Y-38317591D01*
X89262639Y-38281419D01*
X89270032Y-38245401D01*
X89270586Y-38239759D01*
X89304283Y-37869499D01*
X89304026Y-37832702D01*
X89304283Y-37795905D01*
X89303730Y-37790262D01*
X89264867Y-37420508D01*
X89257464Y-37384442D01*
X89250572Y-37348316D01*
X89248934Y-37342889D01*
X89138992Y-36987725D01*
X89124732Y-36953802D01*
X89110948Y-36919686D01*
X89108286Y-36914680D01*
X89108286Y-36914679D01*
X89108283Y-36914675D01*
X88931455Y-36587635D01*
X88910855Y-36557094D01*
X88890728Y-36526337D01*
X88887145Y-36521943D01*
X88650156Y-36235474D01*
X88624040Y-36209540D01*
X88598300Y-36183255D01*
X88593938Y-36179646D01*
X88593932Y-36179640D01*
X88593925Y-36179636D01*
X88305815Y-35944658D01*
X88275150Y-35924284D01*
X88244803Y-35903505D01*
X88239821Y-35900811D01*
X88239817Y-35900808D01*
X88239813Y-35900806D01*
X87911544Y-35726263D01*
X87877495Y-35712229D01*
X87843702Y-35697745D01*
X87838286Y-35696068D01*
X87482363Y-35588608D01*
X87446242Y-35581456D01*
X87410272Y-35573811D01*
X87404636Y-35573218D01*
X87404634Y-35573218D01*
X87034618Y-35536938D01*
X87014941Y-35535000D01*
X73005059Y-35535000D01*
X73003643Y-35535139D01*
X72995563Y-35535196D01*
X72977220Y-35537124D01*
X72958784Y-35537124D01*
X72953146Y-35537716D01*
X72583672Y-35579159D01*
X72547614Y-35586823D01*
X72511582Y-35593958D01*
X72506176Y-35595631D01*
X72506166Y-35595633D01*
X72506157Y-35595637D01*
X72151779Y-35708052D01*
X72117950Y-35722551D01*
X72083936Y-35736571D01*
X72078958Y-35739262D01*
X72078949Y-35739266D01*
X72078942Y-35739271D01*
X71753146Y-35918379D01*
X71722781Y-35939170D01*
X71692135Y-35959532D01*
X71687766Y-35963145D01*
X71402958Y-36202127D01*
X71377182Y-36228448D01*
X71351102Y-36254347D01*
X71347524Y-36258734D01*
X71347519Y-36258739D01*
X71347515Y-36258744D01*
X71114553Y-36548491D01*
X71094393Y-36579298D01*
X71073827Y-36609789D01*
X71071168Y-36614789D01*
X71071165Y-36614793D01*
X71071165Y-36614794D01*
X70898916Y-36944276D01*
X70885104Y-36978462D01*
X70870873Y-37012316D01*
X70869237Y-37017733D01*
X70869233Y-37017743D01*
X70869231Y-37017753D01*
X70764261Y-37374409D01*
X70757358Y-37410595D01*
X70749968Y-37446600D01*
X70749414Y-37452242D01*
X70715717Y-37822501D01*
X67208000Y-37822501D01*
X67208000Y-28301059D01*
X67206313Y-28283926D01*
X67206323Y-28282429D01*
X67205770Y-28276787D01*
X67203218Y-28252504D01*
X67202125Y-28241410D01*
X67202013Y-28241040D01*
X67200588Y-28227485D01*
X67193182Y-28191406D01*
X67186293Y-28155294D01*
X67184655Y-28149867D01*
X67169996Y-28102512D01*
X67155723Y-28068559D01*
X67141954Y-28034478D01*
X67139293Y-28029472D01*
X67115716Y-27985866D01*
X67095136Y-27955354D01*
X67074985Y-27924561D01*
X67071402Y-27920168D01*
X67039803Y-27881972D01*
X67013668Y-27856019D01*
X66987947Y-27829754D01*
X66983584Y-27826144D01*
X66983579Y-27826139D01*
X66983572Y-27826135D01*
X66945163Y-27794809D01*
X66914488Y-27774429D01*
X66884157Y-27753660D01*
X66879171Y-27750963D01*
X66835401Y-27727690D01*
X66801335Y-27713648D01*
X66767556Y-27699171D01*
X66762149Y-27697496D01*
X66762143Y-27697494D01*
X66762137Y-27697493D01*
X66714684Y-27683166D01*
X66678625Y-27676026D01*
X66642590Y-27668367D01*
X66636952Y-27667774D01*
X66587615Y-27662937D01*
X66587607Y-27662937D01*
X66567941Y-27661000D01*
X57892059Y-27661000D01*
X57874926Y-27662687D01*
X57873429Y-27662677D01*
X57867787Y-27663230D01*
X57843504Y-27665782D01*
X57832410Y-27666875D01*
X57832040Y-27666987D01*
X57818485Y-27668412D01*
X57782406Y-27675818D01*
X57746294Y-27682707D01*
X57740867Y-27684345D01*
X57693512Y-27699004D01*
X57659559Y-27713277D01*
X57625478Y-27727046D01*
X57620472Y-27729707D01*
X57576866Y-27753284D01*
X57546354Y-27773864D01*
X57515561Y-27794015D01*
X57511168Y-27797598D01*
X57472972Y-27829197D01*
X57447019Y-27855332D01*
X57420754Y-27881053D01*
X57417145Y-27885415D01*
X57417139Y-27885421D01*
X57417135Y-27885428D01*
X57385809Y-27923837D01*
X57365429Y-27954512D01*
X57344660Y-27984843D01*
X57341963Y-27989829D01*
X57318690Y-28033599D01*
X57304648Y-28067665D01*
X57290171Y-28101444D01*
X57288496Y-28106851D01*
X57288494Y-28106857D01*
X57288494Y-28106859D01*
X57274166Y-28154316D01*
X57267026Y-28190375D01*
X57259367Y-28226410D01*
X57258774Y-28232048D01*
X57253937Y-28281385D01*
X57253937Y-28281403D01*
X57252001Y-28301059D01*
X57252000Y-39008940D01*
X45804523Y-39008940D01*
X45941083Y-38747725D01*
X45954857Y-38713633D01*
X45969128Y-38679683D01*
X45970767Y-38674256D01*
X46075739Y-38317591D01*
X46082639Y-38281419D01*
X46090032Y-38245401D01*
X46090586Y-38239759D01*
X46124283Y-37869499D01*
X46124026Y-37832702D01*
X46124283Y-37795905D01*
X46123730Y-37790262D01*
X46084867Y-37420508D01*
X46077464Y-37384442D01*
X46070572Y-37348316D01*
X46068934Y-37342889D01*
X45958992Y-36987725D01*
X45944732Y-36953802D01*
X45930948Y-36919686D01*
X45928286Y-36914680D01*
X45928286Y-36914679D01*
X45928283Y-36914675D01*
X45751455Y-36587635D01*
X45730855Y-36557094D01*
X45710728Y-36526337D01*
X45707145Y-36521943D01*
X45470156Y-36235474D01*
X45444040Y-36209540D01*
X45418300Y-36183255D01*
X45413938Y-36179646D01*
X45413932Y-36179640D01*
X45413925Y-36179636D01*
X45125815Y-35944658D01*
X45095150Y-35924284D01*
X45064803Y-35903505D01*
X45059821Y-35900811D01*
X45059817Y-35900808D01*
X45059813Y-35900806D01*
X44731544Y-35726263D01*
X44697495Y-35712229D01*
X44663702Y-35697745D01*
X44658286Y-35696068D01*
X44302363Y-35588608D01*
X44266242Y-35581456D01*
X44230272Y-35573811D01*
X44224636Y-35573218D01*
X44224634Y-35573218D01*
X43854618Y-35536938D01*
X43834941Y-35535000D01*
X29825059Y-35535000D01*
X29823643Y-35535139D01*
X29815563Y-35535196D01*
X29797220Y-35537124D01*
X29778784Y-35537124D01*
X29773146Y-35537716D01*
X29403672Y-35579159D01*
X29367614Y-35586823D01*
X29331582Y-35593958D01*
X29326176Y-35595631D01*
X29326166Y-35595633D01*
X29326157Y-35595637D01*
X28971779Y-35708052D01*
X28937950Y-35722551D01*
X28903936Y-35736571D01*
X28898958Y-35739262D01*
X28898949Y-35739266D01*
X28898942Y-35739271D01*
X28573146Y-35918379D01*
X28542781Y-35939170D01*
X28512135Y-35959532D01*
X28507766Y-35963145D01*
X28222958Y-36202127D01*
X28197182Y-36228448D01*
X28171102Y-36254347D01*
X28167524Y-36258734D01*
X28167519Y-36258739D01*
X28167515Y-36258744D01*
X27934553Y-36548491D01*
X27914393Y-36579298D01*
X27893827Y-36609789D01*
X27891168Y-36614789D01*
X27891165Y-36614793D01*
X27891165Y-36614794D01*
X27718916Y-36944276D01*
X27705104Y-36978462D01*
X27690873Y-37012316D01*
X27689237Y-37017733D01*
X27689233Y-37017743D01*
X27689231Y-37017753D01*
X27584261Y-37374409D01*
X27577358Y-37410595D01*
X27569968Y-37446600D01*
X27569414Y-37452242D01*
X27535717Y-37822501D01*
X24307000Y-37822501D01*
X24307000Y-34811074D01*
X48988836Y-34811074D01*
X48988836Y-35292926D01*
X49082841Y-35765520D01*
X49267238Y-36210693D01*
X49534940Y-36611339D01*
X49875661Y-36952060D01*
X50276307Y-37219762D01*
X50721480Y-37404159D01*
X51194074Y-37498164D01*
X51675926Y-37498164D01*
X52148520Y-37404159D01*
X52593693Y-37219762D01*
X52994339Y-36952060D01*
X53335060Y-36611339D01*
X53602762Y-36210693D01*
X53787159Y-35765520D01*
X53881164Y-35292926D01*
X53881164Y-34811074D01*
X53787159Y-34338480D01*
X53602762Y-33893307D01*
X53335060Y-33492661D01*
X52994339Y-33151940D01*
X52593693Y-32884238D01*
X52148520Y-32699841D01*
X51675926Y-32605836D01*
X51194074Y-32605836D01*
X50721480Y-32699841D01*
X50276307Y-32884238D01*
X49875661Y-33151940D01*
X49534940Y-33492661D01*
X49267238Y-33893307D01*
X49082841Y-34338480D01*
X48988836Y-34811074D01*
X24307000Y-34811074D01*
X24307000Y-25831000D01*
X92533001Y-25831000D01*
X92533000Y-44781000D01*
G37*
X92533000Y-44781000D02*
X24307000Y-44781000D01*
X24307000Y-37822501D01*
X27535717Y-37822501D01*
X27535974Y-37859299D01*
X27535717Y-37896096D01*
X27536270Y-37901738D01*
X27575133Y-38271492D01*
X27582538Y-38307564D01*
X27589428Y-38343684D01*
X27591066Y-38349111D01*
X27701008Y-38704275D01*
X27715263Y-38738186D01*
X27729052Y-38772314D01*
X27731713Y-38777320D01*
X27908545Y-39104365D01*
X27929135Y-39134890D01*
X27949272Y-39165663D01*
X27952855Y-39170056D01*
X28189844Y-39456526D01*
X28215960Y-39482460D01*
X28241700Y-39508745D01*
X28246068Y-39512359D01*
X28534185Y-39747342D01*
X28564865Y-39767726D01*
X28595197Y-39788495D01*
X28600179Y-39791189D01*
X28600183Y-39791192D01*
X28600187Y-39791194D01*
X28928456Y-39965737D01*
X28962505Y-39979771D01*
X28996298Y-39994255D01*
X29001714Y-39995932D01*
X29357636Y-40103391D01*
X29393728Y-40110538D01*
X29429728Y-40118189D01*
X29435362Y-40118782D01*
X29435366Y-40118782D01*
X29805381Y-40155062D01*
X29805382Y-40155062D01*
X29825059Y-40157000D01*
X43834941Y-40157000D01*
X43836357Y-40156861D01*
X43844437Y-40156804D01*
X43862780Y-40154876D01*
X43881216Y-40154876D01*
X43886854Y-40154284D01*
X44256328Y-40112841D01*
X44292386Y-40105177D01*
X44328418Y-40098042D01*
X44333824Y-40096369D01*
X44333834Y-40096367D01*
X44333843Y-40096363D01*
X44688221Y-39983949D01*
X44722095Y-39969431D01*
X44756064Y-39955429D01*
X44761042Y-39952738D01*
X44761051Y-39952734D01*
X44761058Y-39952729D01*
X45086854Y-39773621D01*
X45117208Y-39752838D01*
X45147865Y-39732469D01*
X45152234Y-39728855D01*
X45437041Y-39489873D01*
X45462782Y-39463588D01*
X45488898Y-39437653D01*
X45492476Y-39433266D01*
X45492481Y-39433261D01*
X45492485Y-39433256D01*
X45725447Y-39143510D01*
X45745591Y-39112726D01*
X45766173Y-39082212D01*
X45768835Y-39077206D01*
X45804523Y-39008940D01*
X57252000Y-39008940D01*
X57253688Y-39026082D01*
X57253678Y-39027572D01*
X57254230Y-39033214D01*
X57256785Y-39057519D01*
X57257875Y-39068589D01*
X57257987Y-39068958D01*
X57259412Y-39082515D01*
X57266819Y-39118600D01*
X57273707Y-39154706D01*
X57275345Y-39160133D01*
X57290004Y-39207488D01*
X57304277Y-39241441D01*
X57318046Y-39275522D01*
X57320707Y-39280528D01*
X57344284Y-39324134D01*
X57364896Y-39354694D01*
X57385015Y-39385438D01*
X57388587Y-39389818D01*
X57388592Y-39389826D01*
X57388598Y-39389832D01*
X57420196Y-39428027D01*
X57446315Y-39453964D01*
X57472053Y-39480246D01*
X57476421Y-39483860D01*
X57514836Y-39515191D01*
X57545529Y-39535583D01*
X57575843Y-39556340D01*
X57580830Y-39559037D01*
X57580835Y-39559040D01*
X57580838Y-39559041D01*
X57624599Y-39582310D01*
X57658665Y-39596352D01*
X57692444Y-39610829D01*
X57697848Y-39612502D01*
X57697857Y-39612506D01*
X57697866Y-39612508D01*
X57745316Y-39626834D01*
X57781383Y-39633976D01*
X57817411Y-39641633D01*
X57823049Y-39642226D01*
X57872385Y-39647063D01*
X57872393Y-39647063D01*
X57892059Y-39649000D01*
X66567941Y-39649000D01*
X66585083Y-39647312D01*
X66586572Y-39647322D01*
X66592214Y-39646770D01*
X66616504Y-39644217D01*
X66627590Y-39643125D01*
X66627960Y-39643013D01*
X66641515Y-39641588D01*
X66677600Y-39634181D01*
X66713706Y-39627293D01*
X66719131Y-39625656D01*
X66719137Y-39625654D01*
X66766488Y-39610996D01*
X66800441Y-39596723D01*
X66834522Y-39582954D01*
X66839528Y-39580293D01*
X66883134Y-39556716D01*
X66913694Y-39536104D01*
X66944438Y-39515985D01*
X66948818Y-39512413D01*
X66948826Y-39512408D01*
X66948832Y-39512402D01*
X66987027Y-39480804D01*
X67012964Y-39454685D01*
X67039246Y-39428947D01*
X67042860Y-39424579D01*
X67074191Y-39386164D01*
X67094583Y-39355471D01*
X67115340Y-39325157D01*
X67118037Y-39320170D01*
X67141310Y-39276401D01*
X67155352Y-39242335D01*
X67169829Y-39208556D01*
X67171502Y-39203152D01*
X67171506Y-39203143D01*
X67171508Y-39203134D01*
X67185834Y-39155684D01*
X67192976Y-39119617D01*
X67200633Y-39083589D01*
X67201226Y-39077951D01*
X67206063Y-39028615D01*
X67206063Y-39028607D01*
X67208000Y-39008941D01*
X67208000Y-37822501D01*
X70715717Y-37822501D01*
X70715974Y-37859299D01*
X70715717Y-37896096D01*
X70716270Y-37901738D01*
X70755133Y-38271492D01*
X70762538Y-38307564D01*
X70769428Y-38343684D01*
X70771066Y-38349111D01*
X70881008Y-38704275D01*
X70895263Y-38738186D01*
X70909052Y-38772314D01*
X70911713Y-38777320D01*
X71088545Y-39104365D01*
X71109135Y-39134890D01*
X71129272Y-39165663D01*
X71132855Y-39170056D01*
X71369844Y-39456526D01*
X71395960Y-39482460D01*
X71421700Y-39508745D01*
X71426068Y-39512359D01*
X71714185Y-39747342D01*
X71744865Y-39767726D01*
X71775197Y-39788495D01*
X71780179Y-39791189D01*
X71780183Y-39791192D01*
X71780187Y-39791194D01*
X72108456Y-39965737D01*
X72142505Y-39979771D01*
X72176298Y-39994255D01*
X72181714Y-39995932D01*
X72537636Y-40103391D01*
X72573728Y-40110538D01*
X72609728Y-40118189D01*
X72615362Y-40118782D01*
X72615366Y-40118782D01*
X72985381Y-40155062D01*
X72985382Y-40155062D01*
X73005059Y-40157000D01*
X87014941Y-40157000D01*
X87016357Y-40156861D01*
X87024437Y-40156804D01*
X87042780Y-40154876D01*
X87061216Y-40154876D01*
X87066854Y-40154284D01*
X87436328Y-40112841D01*
X87472386Y-40105177D01*
X87508418Y-40098042D01*
X87513824Y-40096369D01*
X87513834Y-40096367D01*
X87513843Y-40096363D01*
X87868221Y-39983949D01*
X87902095Y-39969431D01*
X87936064Y-39955429D01*
X87941042Y-39952738D01*
X87941051Y-39952734D01*
X87941058Y-39952729D01*
X88266854Y-39773621D01*
X88297208Y-39752838D01*
X88327865Y-39732469D01*
X88332234Y-39728855D01*
X88617041Y-39489873D01*
X88642782Y-39463588D01*
X88668898Y-39437653D01*
X88672476Y-39433266D01*
X88672481Y-39433261D01*
X88672485Y-39433256D01*
X88905447Y-39143510D01*
X88925591Y-39112726D01*
X88946173Y-39082212D01*
X88948835Y-39077206D01*
X89121083Y-38747725D01*
X89134857Y-38713633D01*
X89149128Y-38679683D01*
X89150767Y-38674256D01*
X89255739Y-38317591D01*
X89262639Y-38281419D01*
X89270032Y-38245401D01*
X89270586Y-38239759D01*
X89304283Y-37869499D01*
X89304026Y-37832702D01*
X89304283Y-37795905D01*
X89303730Y-37790262D01*
X89264867Y-37420508D01*
X89257464Y-37384442D01*
X89250572Y-37348316D01*
X89248934Y-37342889D01*
X89138992Y-36987725D01*
X89124732Y-36953802D01*
X89110948Y-36919686D01*
X89108286Y-36914680D01*
X89108286Y-36914679D01*
X89108283Y-36914675D01*
X88931455Y-36587635D01*
X88910855Y-36557094D01*
X88890728Y-36526337D01*
X88887145Y-36521943D01*
X88650156Y-36235474D01*
X88624040Y-36209540D01*
X88598300Y-36183255D01*
X88593938Y-36179646D01*
X88593932Y-36179640D01*
X88593925Y-36179636D01*
X88305815Y-35944658D01*
X88275150Y-35924284D01*
X88244803Y-35903505D01*
X88239821Y-35900811D01*
X88239817Y-35900808D01*
X88239813Y-35900806D01*
X87911544Y-35726263D01*
X87877495Y-35712229D01*
X87843702Y-35697745D01*
X87838286Y-35696068D01*
X87482363Y-35588608D01*
X87446242Y-35581456D01*
X87410272Y-35573811D01*
X87404636Y-35573218D01*
X87404634Y-35573218D01*
X87034618Y-35536938D01*
X87014941Y-35535000D01*
X73005059Y-35535000D01*
X73003643Y-35535139D01*
X72995563Y-35535196D01*
X72977220Y-35537124D01*
X72958784Y-35537124D01*
X72953146Y-35537716D01*
X72583672Y-35579159D01*
X72547614Y-35586823D01*
X72511582Y-35593958D01*
X72506176Y-35595631D01*
X72506166Y-35595633D01*
X72506157Y-35595637D01*
X72151779Y-35708052D01*
X72117950Y-35722551D01*
X72083936Y-35736571D01*
X72078958Y-35739262D01*
X72078949Y-35739266D01*
X72078942Y-35739271D01*
X71753146Y-35918379D01*
X71722781Y-35939170D01*
X71692135Y-35959532D01*
X71687766Y-35963145D01*
X71402958Y-36202127D01*
X71377182Y-36228448D01*
X71351102Y-36254347D01*
X71347524Y-36258734D01*
X71347519Y-36258739D01*
X71347515Y-36258744D01*
X71114553Y-36548491D01*
X71094393Y-36579298D01*
X71073827Y-36609789D01*
X71071168Y-36614789D01*
X71071165Y-36614793D01*
X71071165Y-36614794D01*
X70898916Y-36944276D01*
X70885104Y-36978462D01*
X70870873Y-37012316D01*
X70869237Y-37017733D01*
X70869233Y-37017743D01*
X70869231Y-37017753D01*
X70764261Y-37374409D01*
X70757358Y-37410595D01*
X70749968Y-37446600D01*
X70749414Y-37452242D01*
X70715717Y-37822501D01*
X67208000Y-37822501D01*
X67208000Y-28301059D01*
X67206313Y-28283926D01*
X67206323Y-28282429D01*
X67205770Y-28276787D01*
X67203218Y-28252504D01*
X67202125Y-28241410D01*
X67202013Y-28241040D01*
X67200588Y-28227485D01*
X67193182Y-28191406D01*
X67186293Y-28155294D01*
X67184655Y-28149867D01*
X67169996Y-28102512D01*
X67155723Y-28068559D01*
X67141954Y-28034478D01*
X67139293Y-28029472D01*
X67115716Y-27985866D01*
X67095136Y-27955354D01*
X67074985Y-27924561D01*
X67071402Y-27920168D01*
X67039803Y-27881972D01*
X67013668Y-27856019D01*
X66987947Y-27829754D01*
X66983584Y-27826144D01*
X66983579Y-27826139D01*
X66983572Y-27826135D01*
X66945163Y-27794809D01*
X66914488Y-27774429D01*
X66884157Y-27753660D01*
X66879171Y-27750963D01*
X66835401Y-27727690D01*
X66801335Y-27713648D01*
X66767556Y-27699171D01*
X66762149Y-27697496D01*
X66762143Y-27697494D01*
X66762137Y-27697493D01*
X66714684Y-27683166D01*
X66678625Y-27676026D01*
X66642590Y-27668367D01*
X66636952Y-27667774D01*
X66587615Y-27662937D01*
X66587607Y-27662937D01*
X66567941Y-27661000D01*
X57892059Y-27661000D01*
X57874926Y-27662687D01*
X57873429Y-27662677D01*
X57867787Y-27663230D01*
X57843504Y-27665782D01*
X57832410Y-27666875D01*
X57832040Y-27666987D01*
X57818485Y-27668412D01*
X57782406Y-27675818D01*
X57746294Y-27682707D01*
X57740867Y-27684345D01*
X57693512Y-27699004D01*
X57659559Y-27713277D01*
X57625478Y-27727046D01*
X57620472Y-27729707D01*
X57576866Y-27753284D01*
X57546354Y-27773864D01*
X57515561Y-27794015D01*
X57511168Y-27797598D01*
X57472972Y-27829197D01*
X57447019Y-27855332D01*
X57420754Y-27881053D01*
X57417145Y-27885415D01*
X57417139Y-27885421D01*
X57417135Y-27885428D01*
X57385809Y-27923837D01*
X57365429Y-27954512D01*
X57344660Y-27984843D01*
X57341963Y-27989829D01*
X57318690Y-28033599D01*
X57304648Y-28067665D01*
X57290171Y-28101444D01*
X57288496Y-28106851D01*
X57288494Y-28106857D01*
X57288494Y-28106859D01*
X57274166Y-28154316D01*
X57267026Y-28190375D01*
X57259367Y-28226410D01*
X57258774Y-28232048D01*
X57253937Y-28281385D01*
X57253937Y-28281403D01*
X57252001Y-28301059D01*
X57252000Y-39008940D01*
X45804523Y-39008940D01*
X45941083Y-38747725D01*
X45954857Y-38713633D01*
X45969128Y-38679683D01*
X45970767Y-38674256D01*
X46075739Y-38317591D01*
X46082639Y-38281419D01*
X46090032Y-38245401D01*
X46090586Y-38239759D01*
X46124283Y-37869499D01*
X46124026Y-37832702D01*
X46124283Y-37795905D01*
X46123730Y-37790262D01*
X46084867Y-37420508D01*
X46077464Y-37384442D01*
X46070572Y-37348316D01*
X46068934Y-37342889D01*
X45958992Y-36987725D01*
X45944732Y-36953802D01*
X45930948Y-36919686D01*
X45928286Y-36914680D01*
X45928286Y-36914679D01*
X45928283Y-36914675D01*
X45751455Y-36587635D01*
X45730855Y-36557094D01*
X45710728Y-36526337D01*
X45707145Y-36521943D01*
X45470156Y-36235474D01*
X45444040Y-36209540D01*
X45418300Y-36183255D01*
X45413938Y-36179646D01*
X45413932Y-36179640D01*
X45413925Y-36179636D01*
X45125815Y-35944658D01*
X45095150Y-35924284D01*
X45064803Y-35903505D01*
X45059821Y-35900811D01*
X45059817Y-35900808D01*
X45059813Y-35900806D01*
X44731544Y-35726263D01*
X44697495Y-35712229D01*
X44663702Y-35697745D01*
X44658286Y-35696068D01*
X44302363Y-35588608D01*
X44266242Y-35581456D01*
X44230272Y-35573811D01*
X44224636Y-35573218D01*
X44224634Y-35573218D01*
X43854618Y-35536938D01*
X43834941Y-35535000D01*
X29825059Y-35535000D01*
X29823643Y-35535139D01*
X29815563Y-35535196D01*
X29797220Y-35537124D01*
X29778784Y-35537124D01*
X29773146Y-35537716D01*
X29403672Y-35579159D01*
X29367614Y-35586823D01*
X29331582Y-35593958D01*
X29326176Y-35595631D01*
X29326166Y-35595633D01*
X29326157Y-35595637D01*
X28971779Y-35708052D01*
X28937950Y-35722551D01*
X28903936Y-35736571D01*
X28898958Y-35739262D01*
X28898949Y-35739266D01*
X28898942Y-35739271D01*
X28573146Y-35918379D01*
X28542781Y-35939170D01*
X28512135Y-35959532D01*
X28507766Y-35963145D01*
X28222958Y-36202127D01*
X28197182Y-36228448D01*
X28171102Y-36254347D01*
X28167524Y-36258734D01*
X28167519Y-36258739D01*
X28167515Y-36258744D01*
X27934553Y-36548491D01*
X27914393Y-36579298D01*
X27893827Y-36609789D01*
X27891168Y-36614789D01*
X27891165Y-36614793D01*
X27891165Y-36614794D01*
X27718916Y-36944276D01*
X27705104Y-36978462D01*
X27690873Y-37012316D01*
X27689237Y-37017733D01*
X27689233Y-37017743D01*
X27689231Y-37017753D01*
X27584261Y-37374409D01*
X27577358Y-37410595D01*
X27569968Y-37446600D01*
X27569414Y-37452242D01*
X27535717Y-37822501D01*
X24307000Y-37822501D01*
X24307000Y-34811074D01*
X48988836Y-34811074D01*
X48988836Y-35292926D01*
X49082841Y-35765520D01*
X49267238Y-36210693D01*
X49534940Y-36611339D01*
X49875661Y-36952060D01*
X50276307Y-37219762D01*
X50721480Y-37404159D01*
X51194074Y-37498164D01*
X51675926Y-37498164D01*
X52148520Y-37404159D01*
X52593693Y-37219762D01*
X52994339Y-36952060D01*
X53335060Y-36611339D01*
X53602762Y-36210693D01*
X53787159Y-35765520D01*
X53881164Y-35292926D01*
X53881164Y-34811074D01*
X53787159Y-34338480D01*
X53602762Y-33893307D01*
X53335060Y-33492661D01*
X52994339Y-33151940D01*
X52593693Y-32884238D01*
X52148520Y-32699841D01*
X51675926Y-32605836D01*
X51194074Y-32605836D01*
X50721480Y-32699841D01*
X50276307Y-32884238D01*
X49875661Y-33151940D01*
X49534940Y-33492661D01*
X49267238Y-33893307D01*
X49082841Y-34338480D01*
X48988836Y-34811074D01*
X24307000Y-34811074D01*
X24307000Y-25831000D01*
X92533001Y-25831000D01*
X92533000Y-44781000D01*
%TD*%
M02*
