%TF.GenerationSoftware,KiCad,Pcbnew,(5.1.6)-1*%
%TF.CreationDate,2020-11-22T20:04:02-08:00*%
%TF.ProjectId,vgavt1593-back,76676176-7431-4353-9933-2d6261636b2e,rev?*%
%TF.SameCoordinates,Original*%
%TF.FileFunction,Profile,NP*%
%FSLAX46Y46*%
G04 Gerber Fmt 4.6, Leading zero omitted, Abs format (unit mm)*
G04 Created by KiCad (PCBNEW (5.1.6)-1) date 2020-11-22 20:04:02*
%MOMM*%
%LPD*%
G01*
G04 APERTURE LIST*
%TA.AperFunction,Profile*%
%ADD10C,0.050000*%
%TD*%
%TA.AperFunction,Profile*%
%ADD11C,0.100000*%
%TD*%
G04 APERTURE END LIST*
D10*
X53467000Y-35052000D02*
G75*
G03*
X53467000Y-35052000I-2032000J0D01*
G01*
X57912000Y-39243000D02*
G75*
G02*
X57658000Y-38989000I0J254000D01*
G01*
X66802000Y-38989000D02*
G75*
G02*
X66548000Y-39243000I-254000J0D01*
G01*
X66548000Y-28067000D02*
G75*
G02*
X66802000Y-28321000I0J-254000D01*
G01*
X57658000Y-28321000D02*
G75*
G02*
X57912000Y-28067000I254000J0D01*
G01*
X57658000Y-38989000D02*
X57658000Y-28321000D01*
X66548000Y-39243000D02*
X57912000Y-39243000D01*
X66802000Y-28321000D02*
X66802000Y-38989000D01*
X57912000Y-28067000D02*
X66548000Y-28067000D01*
X86995000Y-39751000D02*
X73025000Y-39751000D01*
X73025000Y-35941000D02*
X86995000Y-35941000D01*
X86995000Y-39751000D02*
G75*
G03*
X86995000Y-35941000I0J1905000D01*
G01*
X73025000Y-35941000D02*
G75*
G03*
X73025000Y-39751000I0J-1905000D01*
G01*
X43815000Y-39751000D02*
X29845000Y-39751000D01*
X29845000Y-35941000D02*
X43815000Y-35941000D01*
X43815000Y-39751000D02*
G75*
G03*
X43815000Y-35941000I0J1905000D01*
G01*
X29845000Y-35941000D02*
G75*
G03*
X29845000Y-39751000I0J-1905000D01*
G01*
D11*
X23876000Y-25400000D02*
X23876000Y-45212000D01*
X92964000Y-25400000D02*
X23876000Y-25400000D01*
X92964000Y-45212000D02*
X92964000Y-25400000D01*
X23876000Y-45212000D02*
X92964000Y-45212000D01*
M02*
