%TF.GenerationSoftware,KiCad,Pcbnew,(5.1.6)-1*%
%TF.CreationDate,2020-11-22T20:04:02-08:00*%
%TF.ProjectId,vgavt1593-back,76676176-7431-4353-9933-2d6261636b2e,rev?*%
%TF.SameCoordinates,Original*%
%TF.FileFunction,Soldermask,Top*%
%TF.FilePolarity,Negative*%
%FSLAX46Y46*%
G04 Gerber Fmt 4.6, Leading zero omitted, Abs format (unit mm)*
G04 Created by KiCad (PCBNEW (5.1.6)-1) date 2020-11-22 20:04:02*
%MOMM*%
%LPD*%
G01*
G04 APERTURE LIST*
%ADD10C,0.100000*%
G04 APERTURE END LIST*
D10*
G36*
X51435000Y-34925000D02*
G01*
X52578000Y-33782000D01*
X52705000Y-33782000D01*
X52705000Y-33909000D01*
X51562000Y-35052000D01*
X52705000Y-36195000D01*
X52705000Y-36322000D01*
X52578000Y-36322000D01*
X51435000Y-35179000D01*
X50292000Y-36322000D01*
X50165000Y-36322000D01*
X50165000Y-36195000D01*
X51308000Y-35052000D01*
X50165000Y-33909000D01*
X50165000Y-33782000D01*
X50292000Y-33782000D01*
X51435000Y-34925000D01*
G37*
X51435000Y-34925000D02*
X52578000Y-33782000D01*
X52705000Y-33782000D01*
X52705000Y-33909000D01*
X51562000Y-35052000D01*
X52705000Y-36195000D01*
X52705000Y-36322000D01*
X52578000Y-36322000D01*
X51435000Y-35179000D01*
X50292000Y-36322000D01*
X50165000Y-36322000D01*
X50165000Y-36195000D01*
X51308000Y-35052000D01*
X50165000Y-33909000D01*
X50165000Y-33782000D01*
X50292000Y-33782000D01*
X51435000Y-34925000D01*
G36*
X36830000Y-37719000D02*
G01*
X37973000Y-36576000D01*
X38100000Y-36576000D01*
X38100000Y-36703000D01*
X36957000Y-37846000D01*
X38100000Y-38989000D01*
X38100000Y-39116000D01*
X37973000Y-39116000D01*
X36830000Y-37973000D01*
X35687000Y-39116000D01*
X35560000Y-39116000D01*
X35560000Y-38989000D01*
X36703000Y-37846000D01*
X35560000Y-36703000D01*
X35560000Y-36576000D01*
X35687000Y-36576000D01*
X36830000Y-37719000D01*
G37*
X36830000Y-37719000D02*
X37973000Y-36576000D01*
X38100000Y-36576000D01*
X38100000Y-36703000D01*
X36957000Y-37846000D01*
X38100000Y-38989000D01*
X38100000Y-39116000D01*
X37973000Y-39116000D01*
X36830000Y-37973000D01*
X35687000Y-39116000D01*
X35560000Y-39116000D01*
X35560000Y-38989000D01*
X36703000Y-37846000D01*
X35560000Y-36703000D01*
X35560000Y-36576000D01*
X35687000Y-36576000D01*
X36830000Y-37719000D01*
G36*
X80010000Y-37719000D02*
G01*
X81153000Y-36576000D01*
X81280000Y-36576000D01*
X81280000Y-36703000D01*
X80137000Y-37846000D01*
X81280000Y-38989000D01*
X81280000Y-39116000D01*
X81153000Y-39116000D01*
X80010000Y-37973000D01*
X78867000Y-39116000D01*
X78740000Y-39116000D01*
X78740000Y-38989000D01*
X79883000Y-37846000D01*
X78740000Y-36703000D01*
X78740000Y-36576000D01*
X78867000Y-36576000D01*
X80010000Y-37719000D01*
G37*
X80010000Y-37719000D02*
X81153000Y-36576000D01*
X81280000Y-36576000D01*
X81280000Y-36703000D01*
X80137000Y-37846000D01*
X81280000Y-38989000D01*
X81280000Y-39116000D01*
X81153000Y-39116000D01*
X80010000Y-37973000D01*
X78867000Y-39116000D01*
X78740000Y-39116000D01*
X78740000Y-38989000D01*
X79883000Y-37846000D01*
X78740000Y-36703000D01*
X78740000Y-36576000D01*
X78867000Y-36576000D01*
X80010000Y-37719000D01*
G36*
X62230000Y-33274000D02*
G01*
X64516000Y-30988000D01*
X64770000Y-30988000D01*
X64770000Y-31242000D01*
X62484000Y-33528000D01*
X64770000Y-35814000D01*
X64770000Y-36068000D01*
X64516000Y-36068000D01*
X62230000Y-33782000D01*
X59944000Y-36068000D01*
X59690000Y-36068000D01*
X59690000Y-35814000D01*
X61976000Y-33528000D01*
X59690000Y-31242000D01*
X59690000Y-30988000D01*
X59944000Y-30988000D01*
X62230000Y-33274000D01*
G37*
X62230000Y-33274000D02*
X64516000Y-30988000D01*
X64770000Y-30988000D01*
X64770000Y-31242000D01*
X62484000Y-33528000D01*
X64770000Y-35814000D01*
X64770000Y-36068000D01*
X64516000Y-36068000D01*
X62230000Y-33782000D01*
X59944000Y-36068000D01*
X59690000Y-36068000D01*
X59690000Y-35814000D01*
X61976000Y-33528000D01*
X59690000Y-31242000D01*
X59690000Y-30988000D01*
X59944000Y-30988000D01*
X62230000Y-33274000D01*
M02*
