%TF.GenerationSoftware,KiCad,Pcbnew,(5.1.6)-1*%
%TF.CreationDate,2020-11-22T19:56:56-08:00*%
%TF.ProjectId,vgavt1593,76676176-7431-4353-9933-2e6b69636164,1*%
%TF.SameCoordinates,Original*%
%TF.FileFunction,Copper,L1,Top*%
%TF.FilePolarity,Positive*%
%FSLAX46Y46*%
G04 Gerber Fmt 4.6, Leading zero omitted, Abs format (unit mm)*
G04 Created by KiCad (PCBNEW (5.1.6)-1) date 2020-11-22 19:56:56*
%MOMM*%
%LPD*%
G01*
G04 APERTURE LIST*
%TA.AperFunction,ComponentPad*%
%ADD10C,2.100000*%
%TD*%
%TA.AperFunction,ComponentPad*%
%ADD11C,1.750000*%
%TD*%
%TA.AperFunction,ComponentPad*%
%ADD12C,1.600000*%
%TD*%
%TA.AperFunction,ComponentPad*%
%ADD13R,1.600000X1.600000*%
%TD*%
%TA.AperFunction,ComponentPad*%
%ADD14O,1.600000X1.600000*%
%TD*%
%TA.AperFunction,ComponentPad*%
%ADD15C,4.000000*%
%TD*%
%TA.AperFunction,ComponentPad*%
%ADD16O,1.700000X1.700000*%
%TD*%
%TA.AperFunction,ComponentPad*%
%ADD17R,1.700000X1.700000*%
%TD*%
%TA.AperFunction,ComponentPad*%
%ADD18C,1.800000*%
%TD*%
%TA.AperFunction,ComponentPad*%
%ADD19O,2.400000X1.600000*%
%TD*%
%TA.AperFunction,ComponentPad*%
%ADD20R,2.400000X1.600000*%
%TD*%
%TA.AperFunction,ComponentPad*%
%ADD21C,1.300000*%
%TD*%
%TA.AperFunction,ComponentPad*%
%ADD22C,3.500000*%
%TD*%
%TA.AperFunction,ComponentPad*%
%ADD23R,1.524000X1.524000*%
%TD*%
%TA.AperFunction,ComponentPad*%
%ADD24C,1.524000*%
%TD*%
%TA.AperFunction,ComponentPad*%
%ADD25C,2.000000*%
%TD*%
%TA.AperFunction,ComponentPad*%
%ADD26R,2.000000X2.000000*%
%TD*%
%TA.AperFunction,ComponentPad*%
%ADD27C,1.700000*%
%TD*%
%TA.AperFunction,ComponentPad*%
%ADD28R,3.500000X3.500000*%
%TD*%
%TA.AperFunction,ComponentPad*%
%ADD29C,1.500000*%
%TD*%
%TA.AperFunction,ViaPad*%
%ADD30C,0.635000*%
%TD*%
%TA.AperFunction,ViaPad*%
%ADD31C,0.889000*%
%TD*%
%TA.AperFunction,Conductor*%
%ADD32C,0.635000*%
%TD*%
%TA.AperFunction,Conductor*%
%ADD33C,0.254000*%
%TD*%
G04 APERTURE END LIST*
D10*
X32335000Y-54935000D03*
D11*
X29845000Y-53685000D03*
X29845000Y-49185000D03*
D10*
X32335000Y-47925000D03*
D12*
X111665000Y-33020000D03*
D13*
X113665000Y-33020000D03*
D14*
X109855000Y-76200000D03*
D12*
X102235000Y-76200000D03*
D14*
X109855000Y-73660000D03*
D12*
X102235000Y-73660000D03*
D14*
X102235000Y-71120000D03*
D12*
X109855000Y-71120000D03*
D14*
X102235000Y-68580000D03*
D12*
X109855000Y-68580000D03*
D14*
X102235000Y-66040000D03*
D12*
X109855000Y-66040000D03*
D14*
X102235000Y-63500000D03*
D12*
X109855000Y-63500000D03*
D14*
X102235000Y-60960000D03*
D12*
X109855000Y-60960000D03*
D14*
X102235000Y-58420000D03*
D12*
X109855000Y-58420000D03*
D14*
X102235000Y-55880000D03*
D12*
X109855000Y-55880000D03*
D14*
X102235000Y-53340000D03*
D12*
X109855000Y-53340000D03*
D14*
X102235000Y-50800000D03*
D12*
X109855000Y-50800000D03*
D14*
X102235000Y-48260000D03*
D12*
X109855000Y-48260000D03*
D14*
X109855000Y-45720000D03*
D12*
X102235000Y-45720000D03*
D14*
X109855000Y-43180000D03*
D12*
X102235000Y-43180000D03*
D14*
X102235000Y-40640000D03*
D12*
X109855000Y-40640000D03*
D14*
X86995000Y-48260000D03*
D12*
X86995000Y-40640000D03*
D14*
X84455000Y-40640000D03*
D12*
X84455000Y-48260000D03*
D14*
X81915000Y-40640000D03*
D12*
X81915000Y-48260000D03*
D14*
X40640000Y-39370000D03*
D12*
X40640000Y-46990000D03*
D15*
X118705000Y-50793800D03*
X118705000Y-75793800D03*
D12*
X121285000Y-68138800D03*
X121285000Y-65848800D03*
X121285000Y-63558800D03*
X121285000Y-61268800D03*
X121285000Y-58978800D03*
X118745000Y-66993800D03*
X118745000Y-64703800D03*
X118745000Y-62413800D03*
X118745000Y-60123800D03*
X118745000Y-57833800D03*
X116205000Y-68138800D03*
X116205000Y-65848800D03*
X116205000Y-63558800D03*
X116205000Y-61268800D03*
D13*
X116205000Y-58978800D03*
D16*
X31750000Y-86360000D03*
X31750000Y-83820000D03*
X31750000Y-81280000D03*
X31750000Y-78740000D03*
X31750000Y-76200000D03*
D17*
X31750000Y-73660000D03*
D18*
X121920000Y-85090000D03*
%TA.AperFunction,ComponentPad*%
G36*
G01*
X117740000Y-84640000D02*
X117740000Y-85540000D01*
G75*
G02*
X117290000Y-85990000I-450000J0D01*
G01*
X116390000Y-85990000D01*
G75*
G02*
X115940000Y-85540000I0J450000D01*
G01*
X115940000Y-84640000D01*
G75*
G02*
X116390000Y-84190000I450000J0D01*
G01*
X117290000Y-84190000D01*
G75*
G02*
X117740000Y-84640000I0J-450000D01*
G01*
G37*
%TD.AperFunction*%
X114300000Y-85090000D03*
X111760000Y-85090000D03*
D19*
X48260000Y-58420000D03*
X40640000Y-73660000D03*
X48260000Y-60960000D03*
X40640000Y-71120000D03*
X48260000Y-63500000D03*
X40640000Y-68580000D03*
X48260000Y-66040000D03*
X40640000Y-66040000D03*
X48260000Y-68580000D03*
X40640000Y-63500000D03*
X48260000Y-71120000D03*
X40640000Y-60960000D03*
X48260000Y-73660000D03*
D20*
X40640000Y-58420000D03*
X90805000Y-33020000D03*
D19*
X98425000Y-40640000D03*
X90805000Y-35560000D03*
X98425000Y-38100000D03*
X90805000Y-38100000D03*
X98425000Y-35560000D03*
X90805000Y-40640000D03*
X98425000Y-33020000D03*
X71120000Y-27940000D03*
X55880000Y-76200000D03*
X71120000Y-30480000D03*
X55880000Y-73660000D03*
X71120000Y-33020000D03*
X55880000Y-71120000D03*
X71120000Y-35560000D03*
X55880000Y-68580000D03*
X71120000Y-38100000D03*
X55880000Y-66040000D03*
X71120000Y-40640000D03*
X55880000Y-63500000D03*
X71120000Y-43180000D03*
X55880000Y-60960000D03*
X71120000Y-45720000D03*
X55880000Y-58420000D03*
X71120000Y-48260000D03*
X55880000Y-55880000D03*
X71120000Y-50800000D03*
X55880000Y-53340000D03*
X71120000Y-53340000D03*
X55880000Y-50800000D03*
X71120000Y-55880000D03*
X55880000Y-48260000D03*
X71120000Y-58420000D03*
X55880000Y-45720000D03*
X71120000Y-60960000D03*
X55880000Y-43180000D03*
X71120000Y-63500000D03*
X55880000Y-40640000D03*
X71120000Y-66040000D03*
X55880000Y-38100000D03*
X71120000Y-68580000D03*
X55880000Y-35560000D03*
X71120000Y-71120000D03*
X55880000Y-33020000D03*
X71120000Y-73660000D03*
X55880000Y-30480000D03*
X71120000Y-76200000D03*
D20*
X55880000Y-27940000D03*
D12*
X114300000Y-42576000D03*
X114300000Y-40076000D03*
D21*
X49530000Y-45720000D03*
X50800000Y-46990000D03*
X48260000Y-46990000D03*
D22*
X120185000Y-30006000D03*
X120185000Y-43146000D03*
D23*
X117475000Y-40076000D03*
D24*
X117475000Y-37576000D03*
X117475000Y-35576000D03*
X117475000Y-33076000D03*
D25*
X45800000Y-83820000D03*
D26*
X50800000Y-83820000D03*
D12*
X50800000Y-60920000D03*
X50800000Y-58420000D03*
X50800000Y-43180000D03*
X48300000Y-43180000D03*
X50800000Y-50165000D03*
X48300000Y-50165000D03*
X100965000Y-33020000D03*
X100965000Y-35520000D03*
X73660000Y-45760000D03*
X73660000Y-48260000D03*
X53340000Y-53380000D03*
X53340000Y-55880000D03*
D16*
X36830000Y-76200000D03*
D27*
X36830000Y-73660000D03*
D16*
X31750000Y-43180000D03*
X31750000Y-40640000D03*
X31750000Y-38100000D03*
X31750000Y-35560000D03*
X31750000Y-33020000D03*
D17*
X31750000Y-30480000D03*
D28*
X36480000Y-62230000D03*
%TA.AperFunction,ComponentPad*%
G36*
G01*
X28980000Y-63230000D02*
X28980000Y-61230000D01*
G75*
G02*
X29730000Y-60480000I750000J0D01*
G01*
X31230000Y-60480000D01*
G75*
G02*
X31980000Y-61230000I0J-750000D01*
G01*
X31980000Y-63230000D01*
G75*
G02*
X31230000Y-63980000I-750000J0D01*
G01*
X29730000Y-63980000D01*
G75*
G02*
X28980000Y-63230000I0J750000D01*
G01*
G37*
%TD.AperFunction*%
%TA.AperFunction,ComponentPad*%
G36*
G01*
X31730000Y-67805000D02*
X31730000Y-66055000D01*
G75*
G02*
X32605000Y-65180000I875000J0D01*
G01*
X34355000Y-65180000D01*
G75*
G02*
X35230000Y-66055000I0J-875000D01*
G01*
X35230000Y-67805000D01*
G75*
G02*
X34355000Y-68680000I-875000J0D01*
G01*
X32605000Y-68680000D01*
G75*
G02*
X31730000Y-67805000I0J875000D01*
G01*
G37*
%TD.AperFunction*%
D16*
X92075000Y-53340000D03*
X89535000Y-53340000D03*
X86995000Y-53340000D03*
D17*
X84455000Y-53340000D03*
D29*
X77470000Y-50800000D03*
X77470000Y-55680000D03*
D30*
X37465000Y-41275000D03*
X68580000Y-44450000D03*
X66675000Y-42545000D03*
X28575000Y-45085000D03*
D31*
X41275000Y-83185010D03*
D32*
X71120000Y-48260000D02*
X73660000Y-48260000D01*
X81915000Y-48260000D02*
X84455000Y-48260000D01*
X98425000Y-33020000D02*
X100965000Y-33020000D01*
X50800000Y-46990000D02*
X50800000Y-48260000D01*
X50800000Y-48260000D02*
X50800000Y-50165000D01*
D33*
X46990000Y-48260000D02*
X50800000Y-48260000D01*
X40640000Y-39370000D02*
X40640000Y-41910000D01*
X40640000Y-41910000D02*
X46990000Y-48260000D01*
D32*
X73660000Y-48260000D02*
X81915000Y-48260000D01*
X50800000Y-58420000D02*
X53340000Y-55880000D01*
X48260000Y-58420000D02*
X50800000Y-58420000D01*
D33*
X59690000Y-57150000D02*
X55880000Y-53340000D01*
X86995000Y-53340000D02*
X83185000Y-57150000D01*
X83185000Y-57150000D02*
X59690000Y-57150000D01*
X45085000Y-48895000D02*
X37465000Y-41275000D01*
X45085000Y-50165000D02*
X45085000Y-48895000D01*
X45085000Y-50165000D02*
X46990000Y-52070000D01*
X54610000Y-52070000D02*
X55880000Y-53340000D01*
X46990000Y-52070000D02*
X54610000Y-52070000D01*
X94615000Y-58420000D02*
X102235000Y-50800000D01*
X71120000Y-58420000D02*
X94615000Y-58420000D01*
X94615000Y-60960000D02*
X102235000Y-53340000D01*
X71120000Y-60960000D02*
X94615000Y-60960000D01*
X97155000Y-63500000D02*
X102235000Y-58420000D01*
X71120000Y-63500000D02*
X97155000Y-63500000D01*
X97155000Y-66040000D02*
X102235000Y-60960000D01*
X71120000Y-66040000D02*
X97155000Y-66040000D01*
X99695000Y-68580000D02*
X102235000Y-66040000D01*
X71120000Y-68580000D02*
X99695000Y-68580000D01*
X99695000Y-71120000D02*
X102235000Y-68580000D01*
X71120000Y-71120000D02*
X99695000Y-71120000D01*
X55880000Y-78740000D02*
X50800000Y-83820000D01*
X55880000Y-76200000D02*
X55880000Y-78740000D01*
X45800000Y-83740000D02*
X45800000Y-83820000D01*
X55880000Y-73660000D02*
X45800000Y-83740000D01*
D32*
X50800000Y-43180000D02*
X49530000Y-44450000D01*
X49530000Y-44450000D02*
X49530000Y-45720000D01*
X117475000Y-40005000D02*
X122047000Y-35433000D01*
X117475000Y-40076000D02*
X117475000Y-40005000D01*
X126365000Y-75565000D02*
X126365000Y-39751000D01*
X116840000Y-85090000D02*
X126365000Y-75565000D01*
X126365000Y-39751000D02*
X122047000Y-35433000D01*
X117729000Y-31115000D02*
X122047000Y-35433000D01*
X84328000Y-34798000D02*
X88011000Y-31115000D01*
X50800000Y-29210000D02*
X53594000Y-26416000D01*
X53594000Y-26416000D02*
X72898000Y-26416000D01*
X72898000Y-26416000D02*
X81280000Y-34798000D01*
X50800000Y-43180000D02*
X50800000Y-29210000D01*
X81280000Y-34798000D02*
X84328000Y-34798000D01*
X88011000Y-31115000D02*
X114300000Y-31115000D01*
X114300000Y-31115000D02*
X117729000Y-31115000D01*
X113665000Y-33020000D02*
X113665000Y-31115000D01*
X117475000Y-40076000D02*
X114300000Y-40076000D01*
D33*
X70035988Y-46990000D02*
X68580000Y-45534012D01*
X68580000Y-45534012D02*
X68580000Y-44450000D01*
X92075000Y-53340000D02*
X92075000Y-50800000D01*
X88265000Y-46990000D02*
X70035988Y-46990000D01*
X92075000Y-50800000D02*
X88265000Y-46990000D01*
X88265000Y-52070000D02*
X89535000Y-53340000D01*
X69850000Y-52070000D02*
X66675000Y-48895000D01*
X66675000Y-48895000D02*
X66675000Y-42545000D01*
X88265000Y-52070000D02*
X69850000Y-52070000D01*
X88265000Y-49530000D02*
X86995000Y-48260000D01*
X88265000Y-52070000D02*
X88265000Y-49530000D01*
X123190000Y-67753800D02*
X121285000Y-65848800D01*
X123190000Y-69215000D02*
X123190000Y-67753800D01*
X121920000Y-70485000D02*
X123190000Y-69215000D01*
X109855000Y-76200000D02*
X115570000Y-70485000D01*
X115570000Y-70485000D02*
X121920000Y-70485000D01*
X108585000Y-78105000D02*
X111125000Y-78105000D01*
X107950000Y-77470000D02*
X108585000Y-78105000D01*
X109855000Y-73660000D02*
X107950000Y-75565000D01*
X111125000Y-78105000D02*
X117475000Y-71755000D01*
X107950000Y-75565000D02*
X107950000Y-77470000D01*
X117475000Y-71755000D02*
X123190000Y-71755000D01*
X124460000Y-70485000D02*
X124460000Y-66704400D01*
X123190000Y-71755000D02*
X124460000Y-70485000D01*
X124460000Y-66704400D02*
X121314400Y-63558800D01*
X121314400Y-63558800D02*
X121285000Y-63558800D01*
X109855000Y-66040000D02*
X109855000Y-68580000D01*
X109855000Y-68580000D02*
X109855000Y-71120000D01*
X112336200Y-63558800D02*
X109855000Y-66040000D01*
X116205000Y-63558800D02*
X112336200Y-63558800D01*
X109855000Y-58420000D02*
X109855000Y-60960000D01*
X109855000Y-60960000D02*
X109855000Y-63500000D01*
X116531200Y-60960000D02*
X116840000Y-61268800D01*
X110163800Y-61268800D02*
X109855000Y-60960000D01*
X116205000Y-61268800D02*
X110163800Y-61268800D01*
X109855000Y-50800000D02*
X109855000Y-53340000D01*
X109855000Y-53340000D02*
X109855000Y-55880000D01*
X116840000Y-58978800D02*
X116840000Y-59055000D01*
X112953800Y-58978800D02*
X109855000Y-55880000D01*
X116205000Y-58978800D02*
X112953800Y-58978800D01*
X83185000Y-39370000D02*
X84455000Y-40640000D01*
X74930000Y-39370000D02*
X83185000Y-39370000D01*
X73025000Y-37465000D02*
X74930000Y-39370000D01*
X71120000Y-33020000D02*
X73025000Y-34925000D01*
X73025000Y-34925000D02*
X73025000Y-37465000D01*
X97155000Y-39370000D02*
X98425000Y-40640000D01*
X84455000Y-40640000D02*
X85725000Y-39370000D01*
X85725000Y-39370000D02*
X97155000Y-39370000D01*
X74295000Y-40640000D02*
X81915000Y-40640000D01*
X71120000Y-35560000D02*
X69215000Y-37465000D01*
X69850000Y-39370000D02*
X73025000Y-39370000D01*
X73025000Y-39370000D02*
X74295000Y-40640000D01*
X69215000Y-37465000D02*
X69215000Y-38735000D01*
X69215000Y-38735000D02*
X69850000Y-39370000D01*
X99879000Y-38100000D02*
X98425000Y-38100000D01*
X83185000Y-41910000D02*
X99695000Y-41910000D01*
X99695000Y-41910000D02*
X100330000Y-41275000D01*
X81915000Y-40640000D02*
X83185000Y-41910000D01*
X100330000Y-41275000D02*
X100330000Y-38551000D01*
X100330000Y-38551000D02*
X99879000Y-38100000D01*
X71120000Y-73660000D02*
X102235000Y-73660000D01*
X71120000Y-76200000D02*
X102235000Y-76200000D01*
X52070000Y-64770000D02*
X55880000Y-60960000D01*
X52070000Y-69215000D02*
X52070000Y-64770000D01*
X48260000Y-71120000D02*
X50165000Y-71120000D01*
X50165000Y-71120000D02*
X52070000Y-69215000D01*
X50800000Y-63500000D02*
X55880000Y-58420000D01*
X50800000Y-68580000D02*
X50800000Y-63500000D01*
X42545000Y-69850000D02*
X49530000Y-69850000D01*
X49530000Y-69850000D02*
X50800000Y-68580000D01*
X41275000Y-71120000D02*
X42545000Y-69850000D01*
X40640000Y-71120000D02*
X41275000Y-71120000D01*
X42545000Y-51434992D02*
X31750000Y-40640000D01*
X42545000Y-69850000D02*
X42545000Y-51434992D01*
X71120000Y-50800000D02*
X77470000Y-50800000D01*
X75130000Y-53340000D02*
X77470000Y-55680000D01*
X71120000Y-53340000D02*
X75130000Y-53340000D01*
X100965000Y-44450000D02*
X102235000Y-45720000D01*
X55880000Y-30480000D02*
X69850000Y-44450000D01*
X69850000Y-44450000D02*
X100965000Y-44450000D01*
X74295000Y-43180000D02*
X102235000Y-43180000D01*
X73025000Y-41910000D02*
X74295000Y-43180000D01*
X55880000Y-27940000D02*
X69850000Y-41910000D01*
X69850000Y-41910000D02*
X73025000Y-41910000D01*
X109855000Y-40640000D02*
X109855000Y-43180000D01*
X114919000Y-35576000D02*
X109855000Y-40640000D01*
X117475000Y-35520000D02*
X117419000Y-35576000D01*
X117419000Y-35576000D02*
X114919000Y-35576000D01*
X109855000Y-48260000D02*
X109855000Y-45720000D01*
X114824000Y-37576000D02*
X117475000Y-37576000D01*
X111760000Y-40640000D02*
X114824000Y-37576000D01*
X109855000Y-45720000D02*
X111760000Y-43815000D01*
X111760000Y-43815000D02*
X111760000Y-40640000D01*
X27940000Y-72390000D02*
X27940000Y-72390000D01*
X29845000Y-45720000D02*
X27940000Y-47625000D01*
X27940000Y-72390000D02*
X31750000Y-76200000D01*
X31750000Y-33020000D02*
X29845000Y-34925000D01*
X27940000Y-47625000D02*
X27940000Y-72390000D01*
X29845000Y-34925000D02*
X29845000Y-45720000D01*
X31750000Y-86360000D02*
X26670000Y-81280000D01*
X26670000Y-81280000D02*
X26670000Y-46990000D01*
X26670000Y-46990000D02*
X28575000Y-45085000D01*
D32*
X75565000Y-86995000D02*
X45084990Y-86995000D01*
X112395000Y-86995000D02*
X90170000Y-86995000D01*
X45084990Y-86995000D02*
X41275000Y-83185010D01*
X85217000Y-82042000D02*
X80518000Y-82042000D01*
X114300000Y-85090000D02*
X112395000Y-86995000D01*
X80518000Y-82042000D02*
X75565000Y-86995000D01*
X90170000Y-86995000D02*
X85217000Y-82042000D01*
D33*
X40640000Y-68580000D02*
X40640000Y-66040000D01*
X38735000Y-68580000D02*
X40640000Y-68580000D01*
X34290000Y-73025000D02*
X38735000Y-68580000D01*
X34290000Y-76200000D02*
X34290000Y-73025000D01*
X29210000Y-81280000D02*
X29210000Y-78740000D01*
X29210000Y-78740000D02*
X30480000Y-77470000D01*
X33020000Y-77470000D02*
X34290000Y-76200000D01*
X31750000Y-83820000D02*
X29210000Y-81280000D01*
X30480000Y-77470000D02*
X33020000Y-77470000D01*
X48260000Y-73898125D02*
X48260000Y-73660000D01*
X37576125Y-84582000D02*
X48260000Y-73898125D01*
X31750000Y-81280000D02*
X35052000Y-84582000D01*
X35052000Y-84582000D02*
X37576125Y-84582000D01*
D32*
X34290000Y-78740000D02*
X36830000Y-76200000D01*
X31750000Y-78740000D02*
X34290000Y-78740000D01*
D33*
X43815000Y-50165000D02*
X43815000Y-64135000D01*
X43815000Y-64135000D02*
X48260000Y-68580000D01*
X40640000Y-46990000D02*
X43815000Y-50165000D01*
X40640000Y-46990000D02*
X31750000Y-38100000D01*
M02*
