%TF.GenerationSoftware,KiCad,Pcbnew,(5.1.6)-1*%
%TF.CreationDate,2020-11-22T19:56:56-08:00*%
%TF.ProjectId,vgavt1593,76676176-7431-4353-9933-2e6b69636164,1*%
%TF.SameCoordinates,Original*%
%TF.FileFunction,Soldermask,Top*%
%TF.FilePolarity,Negative*%
%FSLAX46Y46*%
G04 Gerber Fmt 4.6, Leading zero omitted, Abs format (unit mm)*
G04 Created by KiCad (PCBNEW (5.1.6)-1) date 2020-11-22 19:56:56*
%MOMM*%
%LPD*%
G01*
G04 APERTURE LIST*
%ADD10C,2.354000*%
%ADD11C,2.004000*%
%ADD12C,1.854000*%
%ADD13R,1.854000X1.854000*%
%ADD14O,1.854000X1.854000*%
%ADD15C,4.254000*%
%ADD16O,1.954000X1.954000*%
%ADD17R,1.954000X1.954000*%
%ADD18C,2.054000*%
%ADD19O,2.654000X1.854000*%
%ADD20R,2.654000X1.854000*%
%ADD21C,1.554000*%
%ADD22C,3.754000*%
%ADD23R,1.778000X1.778000*%
%ADD24C,1.778000*%
%ADD25C,2.254000*%
%ADD26R,2.254000X2.254000*%
%ADD27C,1.954000*%
%ADD28R,3.754000X3.754000*%
%ADD29C,1.754000*%
%ADD30C,3.454000*%
G04 APERTURE END LIST*
D10*
X32335000Y-54935000D03*
D11*
X29845000Y-53685000D03*
X29845000Y-49185000D03*
D10*
X32335000Y-47925000D03*
D12*
X111665000Y-33020000D03*
D13*
X113665000Y-33020000D03*
D14*
X109855000Y-76200000D03*
D12*
X102235000Y-76200000D03*
D14*
X109855000Y-73660000D03*
D12*
X102235000Y-73660000D03*
D14*
X102235000Y-71120000D03*
D12*
X109855000Y-71120000D03*
D14*
X102235000Y-68580000D03*
D12*
X109855000Y-68580000D03*
D14*
X102235000Y-66040000D03*
D12*
X109855000Y-66040000D03*
D14*
X102235000Y-63500000D03*
D12*
X109855000Y-63500000D03*
D14*
X102235000Y-60960000D03*
D12*
X109855000Y-60960000D03*
D14*
X102235000Y-58420000D03*
D12*
X109855000Y-58420000D03*
D14*
X102235000Y-55880000D03*
D12*
X109855000Y-55880000D03*
D14*
X102235000Y-53340000D03*
D12*
X109855000Y-53340000D03*
D14*
X102235000Y-50800000D03*
D12*
X109855000Y-50800000D03*
D14*
X102235000Y-48260000D03*
D12*
X109855000Y-48260000D03*
D14*
X109855000Y-45720000D03*
D12*
X102235000Y-45720000D03*
D14*
X109855000Y-43180000D03*
D12*
X102235000Y-43180000D03*
D14*
X102235000Y-40640000D03*
D12*
X109855000Y-40640000D03*
D14*
X86995000Y-48260000D03*
D12*
X86995000Y-40640000D03*
D14*
X84455000Y-40640000D03*
D12*
X84455000Y-48260000D03*
D14*
X81915000Y-40640000D03*
D12*
X81915000Y-48260000D03*
D14*
X40640000Y-39370000D03*
D12*
X40640000Y-46990000D03*
D15*
X118705000Y-50793800D03*
X118705000Y-75793800D03*
D12*
X121285000Y-68138800D03*
X121285000Y-65848800D03*
X121285000Y-63558800D03*
X121285000Y-61268800D03*
X121285000Y-58978800D03*
X118745000Y-66993800D03*
X118745000Y-64703800D03*
X118745000Y-62413800D03*
X118745000Y-60123800D03*
X118745000Y-57833800D03*
X116205000Y-68138800D03*
X116205000Y-65848800D03*
X116205000Y-63558800D03*
X116205000Y-61268800D03*
D13*
X116205000Y-58978800D03*
D16*
X31750000Y-86360000D03*
X31750000Y-83820000D03*
X31750000Y-81280000D03*
X31750000Y-78740000D03*
X31750000Y-76200000D03*
D17*
X31750000Y-73660000D03*
D18*
X121920000Y-85090000D03*
G36*
G01*
X117867000Y-84576500D02*
X117867000Y-85603500D01*
G75*
G02*
X117353500Y-86117000I-513500J0D01*
G01*
X116326500Y-86117000D01*
G75*
G02*
X115813000Y-85603500I0J513500D01*
G01*
X115813000Y-84576500D01*
G75*
G02*
X116326500Y-84063000I513500J0D01*
G01*
X117353500Y-84063000D01*
G75*
G02*
X117867000Y-84576500I0J-513500D01*
G01*
G37*
X114300000Y-85090000D03*
X111760000Y-85090000D03*
D19*
X48260000Y-58420000D03*
X40640000Y-73660000D03*
X48260000Y-60960000D03*
X40640000Y-71120000D03*
X48260000Y-63500000D03*
X40640000Y-68580000D03*
X48260000Y-66040000D03*
X40640000Y-66040000D03*
X48260000Y-68580000D03*
X40640000Y-63500000D03*
X48260000Y-71120000D03*
X40640000Y-60960000D03*
X48260000Y-73660000D03*
D20*
X40640000Y-58420000D03*
X90805000Y-33020000D03*
D19*
X98425000Y-40640000D03*
X90805000Y-35560000D03*
X98425000Y-38100000D03*
X90805000Y-38100000D03*
X98425000Y-35560000D03*
X90805000Y-40640000D03*
X98425000Y-33020000D03*
X71120000Y-27940000D03*
X55880000Y-76200000D03*
X71120000Y-30480000D03*
X55880000Y-73660000D03*
X71120000Y-33020000D03*
X55880000Y-71120000D03*
X71120000Y-35560000D03*
X55880000Y-68580000D03*
X71120000Y-38100000D03*
X55880000Y-66040000D03*
X71120000Y-40640000D03*
X55880000Y-63500000D03*
X71120000Y-43180000D03*
X55880000Y-60960000D03*
X71120000Y-45720000D03*
X55880000Y-58420000D03*
X71120000Y-48260000D03*
X55880000Y-55880000D03*
X71120000Y-50800000D03*
X55880000Y-53340000D03*
X71120000Y-53340000D03*
X55880000Y-50800000D03*
X71120000Y-55880000D03*
X55880000Y-48260000D03*
X71120000Y-58420000D03*
X55880000Y-45720000D03*
X71120000Y-60960000D03*
X55880000Y-43180000D03*
X71120000Y-63500000D03*
X55880000Y-40640000D03*
X71120000Y-66040000D03*
X55880000Y-38100000D03*
X71120000Y-68580000D03*
X55880000Y-35560000D03*
X71120000Y-71120000D03*
X55880000Y-33020000D03*
X71120000Y-73660000D03*
X55880000Y-30480000D03*
X71120000Y-76200000D03*
D20*
X55880000Y-27940000D03*
D12*
X114300000Y-42576000D03*
X114300000Y-40076000D03*
D21*
X49530000Y-45720000D03*
X50800000Y-46990000D03*
X48260000Y-46990000D03*
D22*
X120185000Y-30006000D03*
X120185000Y-43146000D03*
D23*
X117475000Y-40076000D03*
D24*
X117475000Y-37576000D03*
X117475000Y-35576000D03*
X117475000Y-33076000D03*
D25*
X45800000Y-83820000D03*
D26*
X50800000Y-83820000D03*
D12*
X50800000Y-60920000D03*
X50800000Y-58420000D03*
X50800000Y-43180000D03*
X48300000Y-43180000D03*
X50800000Y-50165000D03*
X48300000Y-50165000D03*
X100965000Y-33020000D03*
X100965000Y-35520000D03*
X73660000Y-45760000D03*
X73660000Y-48260000D03*
X53340000Y-53380000D03*
X53340000Y-55880000D03*
D16*
X36830000Y-76200000D03*
D27*
X36830000Y-73660000D03*
D16*
X31750000Y-43180000D03*
X31750000Y-40640000D03*
X31750000Y-38100000D03*
X31750000Y-35560000D03*
X31750000Y-33020000D03*
D17*
X31750000Y-30480000D03*
D28*
X36480000Y-62230000D03*
G36*
G01*
X28853000Y-63293500D02*
X28853000Y-61166500D01*
G75*
G02*
X29666500Y-60353000I813500J0D01*
G01*
X31293500Y-60353000D01*
G75*
G02*
X32107000Y-61166500I0J-813500D01*
G01*
X32107000Y-63293500D01*
G75*
G02*
X31293500Y-64107000I-813500J0D01*
G01*
X29666500Y-64107000D01*
G75*
G02*
X28853000Y-63293500I0J813500D01*
G01*
G37*
G36*
G01*
X31603000Y-67868500D02*
X31603000Y-65991500D01*
G75*
G02*
X32541500Y-65053000I938500J0D01*
G01*
X34418500Y-65053000D01*
G75*
G02*
X35357000Y-65991500I0J-938500D01*
G01*
X35357000Y-67868500D01*
G75*
G02*
X34418500Y-68807000I-938500J0D01*
G01*
X32541500Y-68807000D01*
G75*
G02*
X31603000Y-67868500I0J938500D01*
G01*
G37*
D16*
X92075000Y-53340000D03*
X89535000Y-53340000D03*
X86995000Y-53340000D03*
D17*
X84455000Y-53340000D03*
D29*
X77470000Y-50800000D03*
X77470000Y-55680000D03*
D30*
X106172000Y-81534000D03*
X76200000Y-81534000D03*
X36322000Y-81534000D03*
X106172000Y-35306000D03*
X76200000Y-35306000D03*
X36322000Y-35306000D03*
M02*
