M48
; DRILL file {KiCad (5.1.6)-1} date 11/22/20 19:56:58
; FORMAT={-:-/ absolute / inch / decimal}
; #@! TF.CreationDate,2020-11-22T19:56:58-08:00
; #@! TF.GenerationSoftware,Kicad,Pcbnew,(5.1.6)-1
; #@! TF.FileFunction,Plated,1,2,PTH
FMAT,2
INCH
T1C0.0150
T2C0.0250
T3C0.0295
T4C0.0315
T5C0.0362
T6C0.0390
T7C0.0394
T8C0.0429
T9C0.0512
T10C0.0906
T11C0.1260
%
G90
G05
T1
X1.125Y-1.775
X1.475Y-1.625
X2.625Y-1.675
X2.7Y-1.75
T2
X1.625Y-3.275
T3
X1.9Y-1.85
X1.95Y-1.8
X2.0Y-1.85
T4
X2.0Y-2.3
X2.0Y-2.3984
X4.025Y-1.6
X4.325Y-1.6
X2.1Y-2.1016
X2.1Y-2.2
X4.025Y-2.3
X4.325Y-2.3
X4.025Y-1.7
X4.325Y-1.7
X4.025Y-3.0
X4.325Y-3.0
X2.9Y-1.8016
X2.9Y-1.9
X2.2Y-1.1
X2.2Y-1.2
X2.2Y-1.3
X2.2Y-1.4
X2.2Y-1.5
X2.2Y-1.6
X2.2Y-1.7
X2.2Y-1.8
X2.2Y-1.9
X2.2Y-2.0
X2.2Y-2.1
X2.2Y-2.2
X2.2Y-2.3
X2.2Y-2.4
X2.2Y-2.5
X2.2Y-2.6
X2.2Y-2.7
X2.2Y-2.8
X2.2Y-2.9
X2.2Y-3.0
X2.8Y-1.1
X2.8Y-1.2
X2.8Y-1.3
X2.8Y-1.4
X2.8Y-1.5
X2.8Y-1.6
X2.8Y-1.7
X2.8Y-1.8
X2.8Y-1.9
X2.8Y-2.0
X2.8Y-2.1
X2.8Y-2.2
X2.8Y-2.3
X2.8Y-2.4
X2.8Y-2.5
X2.8Y-2.6
X2.8Y-2.7
X2.8Y-2.8
X2.8Y-2.9
X2.8Y-3.0
X1.9016Y-1.975
X2.0Y-1.975
X4.025Y-2.9
X4.325Y-2.9
X4.025Y-2.2
X4.325Y-2.2
X4.5Y-1.5778
X4.5Y-1.6762
X1.9016Y-1.7
X2.0Y-1.7
X4.025Y-2.4
X4.325Y-2.4
X3.575Y-1.3
X3.575Y-1.4
X3.575Y-1.5
X3.575Y-1.6
X3.875Y-1.3
X3.875Y-1.4
X3.875Y-1.5
X3.875Y-1.6
X4.025Y-2.7
X4.325Y-2.7
X3.05Y-2.0
X3.05Y-2.1921
X3.225Y-1.6
X3.225Y-1.9
X4.025Y-1.9
X4.325Y-1.9
X4.025Y-2.5
X4.325Y-2.5
X1.6Y-2.3
X1.6Y-2.4
X1.6Y-2.5
X1.6Y-2.6
X1.6Y-2.7
X1.6Y-2.8
X1.6Y-2.9
X1.9Y-2.3
X1.9Y-2.4
X1.9Y-2.5
X1.9Y-2.6
X1.9Y-2.7
X1.9Y-2.8
X1.9Y-2.9
X4.3963Y-1.3
X4.475Y-1.3
X3.975Y-1.3
X3.975Y-1.3984
X3.325Y-1.6
X3.325Y-1.9
X4.025Y-2.0
X4.325Y-2.0
X4.025Y-2.6
X4.325Y-2.6
X1.6Y-1.55
X1.6Y-1.85
X4.025Y-1.8
X4.325Y-1.8
X4.025Y-2.1
X4.325Y-2.1
X4.025Y-2.8
X4.325Y-2.8
X3.425Y-1.6
X3.425Y-1.9
T5
X4.625Y-1.3022
X4.625Y-1.4006
X4.625Y-1.4794
X4.625Y-1.5778
T6
X1.175Y-1.9364
X1.175Y-2.1136
T7
X1.8031Y-3.3
X2.0Y-3.3
X1.25Y-2.9
X1.25Y-3.0
X1.25Y-3.1
X1.25Y-3.2
X1.25Y-3.3
X1.25Y-3.4
X4.575Y-2.322
X4.575Y-2.4122
X4.575Y-2.5023
X4.575Y-2.5925
X4.575Y-2.6826
X4.675Y-2.2769
X4.675Y-2.3671
X4.675Y-2.4572
X4.675Y-2.5474
X4.675Y-2.6376
X4.775Y-2.322
X4.775Y-2.4122
X4.775Y-2.5023
X4.775Y-2.5925
X4.775Y-2.6826
X3.325Y-2.1
X3.425Y-2.1
X3.525Y-2.1
X3.625Y-2.1
X1.25Y-1.2
X1.25Y-1.3
X1.25Y-1.4
X1.25Y-1.5
X1.25Y-1.6
X1.25Y-1.7
X1.45Y-2.9
X1.45Y-3.0
T8
X4.4Y-3.35
X4.5Y-3.35
X4.6Y-3.35
X4.8Y-3.35
T9
X1.273Y-1.8868
X1.273Y-2.1628
T10
X4.7317Y-1.1813
X4.7317Y-1.6987
T11
X4.6734Y-1.9998
X4.6734Y-2.984
T7
G00X1.2Y-2.4106
M15
G01X1.2Y-2.4894
M16
G05
G00X1.2787Y-2.635
M15
G01X1.3575Y-2.635
M16
G05
G00X1.4362Y-2.4106
M15
G01X1.4362Y-2.4894
M16
G05
T0
M30
