%TF.GenerationSoftware,KiCad,Pcbnew,(5.1.6)-1*%
%TF.CreationDate,2020-11-22T19:56:56-08:00*%
%TF.ProjectId,vgavt1593,76676176-7431-4353-9933-2e6b69636164,1*%
%TF.SameCoordinates,Original*%
%TF.FileFunction,Legend,Bot*%
%TF.FilePolarity,Positive*%
%FSLAX46Y46*%
G04 Gerber Fmt 4.6, Leading zero omitted, Abs format (unit mm)*
G04 Created by KiCad (PCBNEW (5.1.6)-1) date 2020-11-22 19:56:56*
%MOMM*%
%LPD*%
G01*
G04 APERTURE LIST*
%ADD10C,0.177800*%
%ADD11C,2.354000*%
%ADD12C,2.004000*%
%ADD13C,1.854000*%
%ADD14R,1.854000X1.854000*%
%ADD15O,1.854000X1.854000*%
%ADD16C,4.254000*%
%ADD17O,1.954000X1.954000*%
%ADD18R,1.954000X1.954000*%
%ADD19C,2.054000*%
%ADD20O,2.654000X1.854000*%
%ADD21R,2.654000X1.854000*%
%ADD22C,1.554000*%
%ADD23C,3.754000*%
%ADD24R,1.778000X1.778000*%
%ADD25C,1.778000*%
%ADD26C,2.254000*%
%ADD27R,2.254000X2.254000*%
%ADD28C,1.954000*%
%ADD29R,3.754000X3.754000*%
%ADD30C,1.754000*%
%ADD31C,3.454000*%
G04 APERTURE END LIST*
D10*
X95993857Y-60724142D02*
X95587457Y-61943342D01*
X95181057Y-60724142D01*
X94136028Y-60782200D02*
X94252142Y-60724142D01*
X94426314Y-60724142D01*
X94600485Y-60782200D01*
X94716600Y-60898314D01*
X94774657Y-61014428D01*
X94832714Y-61246657D01*
X94832714Y-61420828D01*
X94774657Y-61653057D01*
X94716600Y-61769171D01*
X94600485Y-61885285D01*
X94426314Y-61943342D01*
X94310200Y-61943342D01*
X94136028Y-61885285D01*
X94077971Y-61827228D01*
X94077971Y-61420828D01*
X94310200Y-61420828D01*
X93613514Y-61595000D02*
X93032942Y-61595000D01*
X93729628Y-61943342D02*
X93323228Y-60724142D01*
X92916828Y-61943342D01*
X91639571Y-61885285D02*
X91465400Y-61943342D01*
X91175114Y-61943342D01*
X91059000Y-61885285D01*
X91000942Y-61827228D01*
X90942885Y-61711114D01*
X90942885Y-61595000D01*
X91000942Y-61478885D01*
X91059000Y-61420828D01*
X91175114Y-61362771D01*
X91407342Y-61304714D01*
X91523457Y-61246657D01*
X91581514Y-61188600D01*
X91639571Y-61072485D01*
X91639571Y-60956371D01*
X91581514Y-60840257D01*
X91523457Y-60782200D01*
X91407342Y-60724142D01*
X91117057Y-60724142D01*
X90942885Y-60782200D01*
X89955914Y-61885285D02*
X90072028Y-61943342D01*
X90304257Y-61943342D01*
X90420371Y-61885285D01*
X90478428Y-61769171D01*
X90478428Y-61304714D01*
X90420371Y-61188600D01*
X90304257Y-61130542D01*
X90072028Y-61130542D01*
X89955914Y-61188600D01*
X89897857Y-61304714D01*
X89897857Y-61420828D01*
X90478428Y-61536942D01*
X89375342Y-61943342D02*
X89375342Y-61130542D01*
X89375342Y-61362771D02*
X89317285Y-61246657D01*
X89259228Y-61188600D01*
X89143114Y-61130542D01*
X89027000Y-61130542D01*
X88620600Y-61943342D02*
X88620600Y-61130542D01*
X88620600Y-60724142D02*
X88678657Y-60782200D01*
X88620600Y-60840257D01*
X88562542Y-60782200D01*
X88620600Y-60724142D01*
X88620600Y-60840257D01*
X87517514Y-61943342D02*
X87517514Y-61304714D01*
X87575571Y-61188600D01*
X87691685Y-61130542D01*
X87923914Y-61130542D01*
X88040028Y-61188600D01*
X87517514Y-61885285D02*
X87633628Y-61943342D01*
X87923914Y-61943342D01*
X88040028Y-61885285D01*
X88098085Y-61769171D01*
X88098085Y-61653057D01*
X88040028Y-61536942D01*
X87923914Y-61478885D01*
X87633628Y-61478885D01*
X87517514Y-61420828D01*
X86762771Y-61943342D02*
X86878885Y-61885285D01*
X86936942Y-61769171D01*
X86936942Y-60724142D01*
X85543571Y-60724142D02*
X84846885Y-60724142D01*
X85195228Y-61943342D02*
X85195228Y-60724142D01*
X83976028Y-61885285D02*
X84092142Y-61943342D01*
X84324371Y-61943342D01*
X84440485Y-61885285D01*
X84498542Y-61769171D01*
X84498542Y-61304714D01*
X84440485Y-61188600D01*
X84324371Y-61130542D01*
X84092142Y-61130542D01*
X83976028Y-61188600D01*
X83917971Y-61304714D01*
X83917971Y-61420828D01*
X84498542Y-61536942D01*
X83395457Y-61943342D02*
X83395457Y-61130542D01*
X83395457Y-61362771D02*
X83337400Y-61246657D01*
X83279342Y-61188600D01*
X83163228Y-61130542D01*
X83047114Y-61130542D01*
X82640714Y-61943342D02*
X82640714Y-61130542D01*
X82640714Y-61246657D02*
X82582657Y-61188600D01*
X82466542Y-61130542D01*
X82292371Y-61130542D01*
X82176257Y-61188600D01*
X82118200Y-61304714D01*
X82118200Y-61943342D01*
X82118200Y-61304714D02*
X82060142Y-61188600D01*
X81944028Y-61130542D01*
X81769857Y-61130542D01*
X81653742Y-61188600D01*
X81595685Y-61304714D01*
X81595685Y-61943342D01*
X81015114Y-61943342D02*
X81015114Y-61130542D01*
X81015114Y-60724142D02*
X81073171Y-60782200D01*
X81015114Y-60840257D01*
X80957057Y-60782200D01*
X81015114Y-60724142D01*
X81015114Y-60840257D01*
X80434542Y-61130542D02*
X80434542Y-61943342D01*
X80434542Y-61246657D02*
X80376485Y-61188600D01*
X80260371Y-61130542D01*
X80086200Y-61130542D01*
X79970085Y-61188600D01*
X79912028Y-61304714D01*
X79912028Y-61943342D01*
X78808942Y-61943342D02*
X78808942Y-61304714D01*
X78867000Y-61188600D01*
X78983114Y-61130542D01*
X79215342Y-61130542D01*
X79331457Y-61188600D01*
X78808942Y-61885285D02*
X78925057Y-61943342D01*
X79215342Y-61943342D01*
X79331457Y-61885285D01*
X79389514Y-61769171D01*
X79389514Y-61653057D01*
X79331457Y-61536942D01*
X79215342Y-61478885D01*
X78925057Y-61478885D01*
X78808942Y-61420828D01*
X78054200Y-61943342D02*
X78170314Y-61885285D01*
X78228371Y-61769171D01*
X78228371Y-60724142D01*
X98954771Y-64414400D02*
X99012828Y-64356342D01*
X99128942Y-64182171D01*
X99187000Y-64066057D01*
X99245057Y-63891885D01*
X99303114Y-63601600D01*
X99303114Y-63369371D01*
X99245057Y-63079085D01*
X99187000Y-62904914D01*
X99128942Y-62788800D01*
X99012828Y-62614628D01*
X98954771Y-62556571D01*
X97793628Y-63833828D02*
X97851685Y-63891885D01*
X98025857Y-63949942D01*
X98141971Y-63949942D01*
X98316142Y-63891885D01*
X98432257Y-63775771D01*
X98490314Y-63659657D01*
X98548371Y-63427428D01*
X98548371Y-63253257D01*
X98490314Y-63021028D01*
X98432257Y-62904914D01*
X98316142Y-62788800D01*
X98141971Y-62730742D01*
X98025857Y-62730742D01*
X97851685Y-62788800D01*
X97793628Y-62846857D01*
X97387228Y-64414400D02*
X97329171Y-64356342D01*
X97213057Y-64182171D01*
X97155000Y-64066057D01*
X97096942Y-63891885D01*
X97038885Y-63601600D01*
X97038885Y-63369371D01*
X97096942Y-63079085D01*
X97155000Y-62904914D01*
X97213057Y-62788800D01*
X97329171Y-62614628D01*
X97387228Y-62556571D01*
X95587457Y-62846857D02*
X95529400Y-62788800D01*
X95413285Y-62730742D01*
X95123000Y-62730742D01*
X95006885Y-62788800D01*
X94948828Y-62846857D01*
X94890771Y-62962971D01*
X94890771Y-63079085D01*
X94948828Y-63253257D01*
X95645514Y-63949942D01*
X94890771Y-63949942D01*
X94136028Y-62730742D02*
X94019914Y-62730742D01*
X93903800Y-62788800D01*
X93845742Y-62846857D01*
X93787685Y-62962971D01*
X93729628Y-63195200D01*
X93729628Y-63485485D01*
X93787685Y-63717714D01*
X93845742Y-63833828D01*
X93903800Y-63891885D01*
X94019914Y-63949942D01*
X94136028Y-63949942D01*
X94252142Y-63891885D01*
X94310200Y-63833828D01*
X94368257Y-63717714D01*
X94426314Y-63485485D01*
X94426314Y-63195200D01*
X94368257Y-62962971D01*
X94310200Y-62846857D01*
X94252142Y-62788800D01*
X94136028Y-62730742D01*
X92568485Y-63949942D02*
X93265171Y-63949942D01*
X92916828Y-63949942D02*
X92916828Y-62730742D01*
X93032942Y-62904914D01*
X93149057Y-63021028D01*
X93265171Y-63079085D01*
X92162085Y-62730742D02*
X91349285Y-62730742D01*
X91871800Y-63949942D01*
X89955914Y-63949942D02*
X89955914Y-62730742D01*
X89549514Y-63601600D01*
X89143114Y-62730742D01*
X89143114Y-63949942D01*
X88040028Y-63949942D02*
X88040028Y-63311314D01*
X88098085Y-63195200D01*
X88214200Y-63137142D01*
X88446428Y-63137142D01*
X88562542Y-63195200D01*
X88040028Y-63891885D02*
X88156142Y-63949942D01*
X88446428Y-63949942D01*
X88562542Y-63891885D01*
X88620600Y-63775771D01*
X88620600Y-63659657D01*
X88562542Y-63543542D01*
X88446428Y-63485485D01*
X88156142Y-63485485D01*
X88040028Y-63427428D01*
X87459457Y-63949942D02*
X87459457Y-63137142D01*
X87459457Y-63369371D02*
X87401400Y-63253257D01*
X87343342Y-63195200D01*
X87227228Y-63137142D01*
X87111114Y-63137142D01*
X86182200Y-63891885D02*
X86298314Y-63949942D01*
X86530542Y-63949942D01*
X86646657Y-63891885D01*
X86704714Y-63833828D01*
X86762771Y-63717714D01*
X86762771Y-63369371D01*
X86704714Y-63253257D01*
X86646657Y-63195200D01*
X86530542Y-63137142D01*
X86298314Y-63137142D01*
X86182200Y-63195200D01*
X85485514Y-63949942D02*
X85601628Y-63891885D01*
X85659685Y-63833828D01*
X85717742Y-63717714D01*
X85717742Y-63369371D01*
X85659685Y-63253257D01*
X85601628Y-63195200D01*
X85485514Y-63137142D01*
X85311342Y-63137142D01*
X85195228Y-63195200D01*
X85137171Y-63253257D01*
X85079114Y-63369371D01*
X85079114Y-63717714D01*
X85137171Y-63833828D01*
X85195228Y-63891885D01*
X85311342Y-63949942D01*
X85485514Y-63949942D01*
X83627685Y-63949942D02*
X83627685Y-62730742D01*
X83221285Y-63601600D01*
X82814885Y-62730742D01*
X82814885Y-63949942D01*
X81711800Y-63949942D02*
X81711800Y-63311314D01*
X81769857Y-63195200D01*
X81885971Y-63137142D01*
X82118200Y-63137142D01*
X82234314Y-63195200D01*
X81711800Y-63891885D02*
X81827914Y-63949942D01*
X82118200Y-63949942D01*
X82234314Y-63891885D01*
X82292371Y-63775771D01*
X82292371Y-63659657D01*
X82234314Y-63543542D01*
X82118200Y-63485485D01*
X81827914Y-63485485D01*
X81711800Y-63427428D01*
X80608714Y-63891885D02*
X80724828Y-63949942D01*
X80957057Y-63949942D01*
X81073171Y-63891885D01*
X81131228Y-63833828D01*
X81189285Y-63717714D01*
X81189285Y-63369371D01*
X81131228Y-63253257D01*
X81073171Y-63195200D01*
X80957057Y-63137142D01*
X80724828Y-63137142D01*
X80608714Y-63195200D01*
X79563685Y-63891885D02*
X79679800Y-63949942D01*
X79912028Y-63949942D01*
X80028142Y-63891885D01*
X80086200Y-63833828D01*
X80144257Y-63717714D01*
X80144257Y-63369371D01*
X80086200Y-63253257D01*
X80028142Y-63195200D01*
X79912028Y-63137142D01*
X79679800Y-63137142D01*
X79563685Y-63195200D01*
X78518657Y-63949942D02*
X78518657Y-63311314D01*
X78576714Y-63195200D01*
X78692828Y-63137142D01*
X78925057Y-63137142D01*
X79041171Y-63195200D01*
X78518657Y-63891885D02*
X78634771Y-63949942D01*
X78925057Y-63949942D01*
X79041171Y-63891885D01*
X79099228Y-63775771D01*
X79099228Y-63659657D01*
X79041171Y-63543542D01*
X78925057Y-63485485D01*
X78634771Y-63485485D01*
X78518657Y-63427428D01*
X78112257Y-63137142D02*
X77647800Y-63137142D01*
X77938085Y-63949942D02*
X77938085Y-62904914D01*
X77880028Y-62788800D01*
X77763914Y-62730742D01*
X77647800Y-62730742D01*
X76776942Y-63891885D02*
X76893057Y-63949942D01*
X77125285Y-63949942D01*
X77241400Y-63891885D01*
X77299457Y-63775771D01*
X77299457Y-63311314D01*
X77241400Y-63195200D01*
X77125285Y-63137142D01*
X76893057Y-63137142D01*
X76776942Y-63195200D01*
X76718885Y-63311314D01*
X76718885Y-63427428D01*
X77299457Y-63543542D01*
X76196371Y-63949942D02*
X76196371Y-63137142D01*
X76196371Y-63369371D02*
X76138314Y-63253257D01*
X76080257Y-63195200D01*
X75964142Y-63137142D01*
X75848028Y-63137142D01*
X75441628Y-63949942D02*
X75441628Y-63137142D01*
X75441628Y-63369371D02*
X75383571Y-63253257D01*
X75325514Y-63195200D01*
X75209400Y-63137142D01*
X75093285Y-63137142D01*
X74686885Y-63949942D02*
X74686885Y-63137142D01*
X74686885Y-62730742D02*
X74744942Y-62788800D01*
X74686885Y-62846857D01*
X74628828Y-62788800D01*
X74686885Y-62730742D01*
X74686885Y-62846857D01*
X98316142Y-65956542D02*
X98316142Y-64737342D01*
X98316142Y-65317914D02*
X97619457Y-65317914D01*
X97619457Y-65956542D02*
X97619457Y-64737342D01*
X96516371Y-65956542D02*
X96516371Y-65317914D01*
X96574428Y-65201800D01*
X96690542Y-65143742D01*
X96922771Y-65143742D01*
X97038885Y-65201800D01*
X96516371Y-65898485D02*
X96632485Y-65956542D01*
X96922771Y-65956542D01*
X97038885Y-65898485D01*
X97096942Y-65782371D01*
X97096942Y-65666257D01*
X97038885Y-65550142D01*
X96922771Y-65492085D01*
X96632485Y-65492085D01*
X96516371Y-65434028D01*
X95935800Y-65956542D02*
X95935800Y-65143742D01*
X95935800Y-65259857D02*
X95877742Y-65201800D01*
X95761628Y-65143742D01*
X95587457Y-65143742D01*
X95471342Y-65201800D01*
X95413285Y-65317914D01*
X95413285Y-65956542D01*
X95413285Y-65317914D02*
X95355228Y-65201800D01*
X95239114Y-65143742D01*
X95064942Y-65143742D01*
X94948828Y-65201800D01*
X94890771Y-65317914D01*
X94890771Y-65956542D01*
X94310200Y-65956542D02*
X94310200Y-65143742D01*
X94310200Y-65259857D02*
X94252142Y-65201800D01*
X94136028Y-65143742D01*
X93961857Y-65143742D01*
X93845742Y-65201800D01*
X93787685Y-65317914D01*
X93787685Y-65956542D01*
X93787685Y-65317914D02*
X93729628Y-65201800D01*
X93613514Y-65143742D01*
X93439342Y-65143742D01*
X93323228Y-65201800D01*
X93265171Y-65317914D01*
X93265171Y-65956542D01*
X92510428Y-65956542D02*
X92626542Y-65898485D01*
X92684600Y-65840428D01*
X92742657Y-65724314D01*
X92742657Y-65375971D01*
X92684600Y-65259857D01*
X92626542Y-65201800D01*
X92510428Y-65143742D01*
X92336257Y-65143742D01*
X92220142Y-65201800D01*
X92162085Y-65259857D01*
X92104028Y-65375971D01*
X92104028Y-65724314D01*
X92162085Y-65840428D01*
X92220142Y-65898485D01*
X92336257Y-65956542D01*
X92510428Y-65956542D01*
X91581514Y-65143742D02*
X91581514Y-65956542D01*
X91581514Y-65259857D02*
X91523457Y-65201800D01*
X91407342Y-65143742D01*
X91233171Y-65143742D01*
X91117057Y-65201800D01*
X91059000Y-65317914D01*
X91059000Y-65956542D01*
X89955914Y-65956542D02*
X89955914Y-64737342D01*
X89955914Y-65898485D02*
X90072028Y-65956542D01*
X90304257Y-65956542D01*
X90420371Y-65898485D01*
X90478428Y-65840428D01*
X90536485Y-65724314D01*
X90536485Y-65375971D01*
X90478428Y-65259857D01*
X90420371Y-65201800D01*
X90304257Y-65143742D01*
X90072028Y-65143742D01*
X89955914Y-65201800D01*
X87807800Y-65956542D02*
X88504485Y-65956542D01*
X88156142Y-65956542D02*
X88156142Y-64737342D01*
X88272257Y-64911514D01*
X88388371Y-65027628D01*
X88504485Y-65085685D01*
X86704714Y-64737342D02*
X87285285Y-64737342D01*
X87343342Y-65317914D01*
X87285285Y-65259857D01*
X87169171Y-65201800D01*
X86878885Y-65201800D01*
X86762771Y-65259857D01*
X86704714Y-65317914D01*
X86646657Y-65434028D01*
X86646657Y-65724314D01*
X86704714Y-65840428D01*
X86762771Y-65898485D01*
X86878885Y-65956542D01*
X87169171Y-65956542D01*
X87285285Y-65898485D01*
X87343342Y-65840428D01*
X86066085Y-65956542D02*
X85833857Y-65956542D01*
X85717742Y-65898485D01*
X85659685Y-65840428D01*
X85543571Y-65666257D01*
X85485514Y-65434028D01*
X85485514Y-64969571D01*
X85543571Y-64853457D01*
X85601628Y-64795400D01*
X85717742Y-64737342D01*
X85949971Y-64737342D01*
X86066085Y-64795400D01*
X86124142Y-64853457D01*
X86182200Y-64969571D01*
X86182200Y-65259857D01*
X86124142Y-65375971D01*
X86066085Y-65434028D01*
X85949971Y-65492085D01*
X85717742Y-65492085D01*
X85601628Y-65434028D01*
X85543571Y-65375971D01*
X85485514Y-65259857D01*
X85079114Y-64737342D02*
X84324371Y-64737342D01*
X84730771Y-65201800D01*
X84556600Y-65201800D01*
X84440485Y-65259857D01*
X84382428Y-65317914D01*
X84324371Y-65434028D01*
X84324371Y-65724314D01*
X84382428Y-65840428D01*
X84440485Y-65898485D01*
X84556600Y-65956542D01*
X84904942Y-65956542D01*
X85021057Y-65898485D01*
X85079114Y-65840428D01*
X83801857Y-65956542D02*
X83801857Y-64737342D01*
X83105171Y-65956542D01*
X83105171Y-64737342D01*
X81711800Y-65143742D02*
X81421514Y-65956542D01*
X81131228Y-65143742D01*
X80202314Y-65898485D02*
X80318428Y-65956542D01*
X80550657Y-65956542D01*
X80666771Y-65898485D01*
X80724828Y-65782371D01*
X80724828Y-65317914D01*
X80666771Y-65201800D01*
X80550657Y-65143742D01*
X80318428Y-65143742D01*
X80202314Y-65201800D01*
X80144257Y-65317914D01*
X80144257Y-65434028D01*
X80724828Y-65550142D01*
X79621742Y-65956542D02*
X79621742Y-65143742D01*
X79621742Y-65375971D02*
X79563685Y-65259857D01*
X79505628Y-65201800D01*
X79389514Y-65143742D01*
X79273400Y-65143742D01*
X78925057Y-65898485D02*
X78808942Y-65956542D01*
X78576714Y-65956542D01*
X78460600Y-65898485D01*
X78402542Y-65782371D01*
X78402542Y-65724314D01*
X78460600Y-65608200D01*
X78576714Y-65550142D01*
X78750885Y-65550142D01*
X78867000Y-65492085D01*
X78925057Y-65375971D01*
X78925057Y-65317914D01*
X78867000Y-65201800D01*
X78750885Y-65143742D01*
X78576714Y-65143742D01*
X78460600Y-65201800D01*
X77880028Y-65956542D02*
X77880028Y-65143742D01*
X77880028Y-64737342D02*
X77938085Y-64795400D01*
X77880028Y-64853457D01*
X77821971Y-64795400D01*
X77880028Y-64737342D01*
X77880028Y-64853457D01*
X77125285Y-65956542D02*
X77241400Y-65898485D01*
X77299457Y-65840428D01*
X77357514Y-65724314D01*
X77357514Y-65375971D01*
X77299457Y-65259857D01*
X77241400Y-65201800D01*
X77125285Y-65143742D01*
X76951114Y-65143742D01*
X76835000Y-65201800D01*
X76776942Y-65259857D01*
X76718885Y-65375971D01*
X76718885Y-65724314D01*
X76776942Y-65840428D01*
X76835000Y-65898485D01*
X76951114Y-65956542D01*
X77125285Y-65956542D01*
X76196371Y-65143742D02*
X76196371Y-65956542D01*
X76196371Y-65259857D02*
X76138314Y-65201800D01*
X76022200Y-65143742D01*
X75848028Y-65143742D01*
X75731914Y-65201800D01*
X75673857Y-65317914D01*
X75673857Y-65956542D01*
X97358200Y-68427600D02*
X97416257Y-68369542D01*
X97532371Y-68195371D01*
X97590428Y-68079257D01*
X97648485Y-67905085D01*
X97706542Y-67614800D01*
X97706542Y-67382571D01*
X97648485Y-67092285D01*
X97590428Y-66918114D01*
X97532371Y-66802000D01*
X97416257Y-66627828D01*
X97358200Y-66569771D01*
X96197057Y-67847028D02*
X96255114Y-67905085D01*
X96429285Y-67963142D01*
X96545400Y-67963142D01*
X96719571Y-67905085D01*
X96835685Y-67788971D01*
X96893742Y-67672857D01*
X96951800Y-67440628D01*
X96951800Y-67266457D01*
X96893742Y-67034228D01*
X96835685Y-66918114D01*
X96719571Y-66802000D01*
X96545400Y-66743942D01*
X96429285Y-66743942D01*
X96255114Y-66802000D01*
X96197057Y-66860057D01*
X95790657Y-68427600D02*
X95732600Y-68369542D01*
X95616485Y-68195371D01*
X95558428Y-68079257D01*
X95500371Y-67905085D01*
X95442314Y-67614800D01*
X95442314Y-67382571D01*
X95500371Y-67092285D01*
X95558428Y-66918114D01*
X95616485Y-66802000D01*
X95732600Y-66627828D01*
X95790657Y-66569771D01*
X93990885Y-66860057D02*
X93932828Y-66802000D01*
X93816714Y-66743942D01*
X93526428Y-66743942D01*
X93410314Y-66802000D01*
X93352257Y-66860057D01*
X93294200Y-66976171D01*
X93294200Y-67092285D01*
X93352257Y-67266457D01*
X94048942Y-67963142D01*
X93294200Y-67963142D01*
X92539457Y-66743942D02*
X92423342Y-66743942D01*
X92307228Y-66802000D01*
X92249171Y-66860057D01*
X92191114Y-66976171D01*
X92133057Y-67208400D01*
X92133057Y-67498685D01*
X92191114Y-67730914D01*
X92249171Y-67847028D01*
X92307228Y-67905085D01*
X92423342Y-67963142D01*
X92539457Y-67963142D01*
X92655571Y-67905085D01*
X92713628Y-67847028D01*
X92771685Y-67730914D01*
X92829742Y-67498685D01*
X92829742Y-67208400D01*
X92771685Y-66976171D01*
X92713628Y-66860057D01*
X92655571Y-66802000D01*
X92539457Y-66743942D01*
X91668600Y-66860057D02*
X91610542Y-66802000D01*
X91494428Y-66743942D01*
X91204142Y-66743942D01*
X91088028Y-66802000D01*
X91029971Y-66860057D01*
X90971914Y-66976171D01*
X90971914Y-67092285D01*
X91029971Y-67266457D01*
X91726657Y-67963142D01*
X90971914Y-67963142D01*
X90217171Y-66743942D02*
X90101057Y-66743942D01*
X89984942Y-66802000D01*
X89926885Y-66860057D01*
X89868828Y-66976171D01*
X89810771Y-67208400D01*
X89810771Y-67498685D01*
X89868828Y-67730914D01*
X89926885Y-67847028D01*
X89984942Y-67905085D01*
X90101057Y-67963142D01*
X90217171Y-67963142D01*
X90333285Y-67905085D01*
X90391342Y-67847028D01*
X90449400Y-67730914D01*
X90507457Y-67498685D01*
X90507457Y-67208400D01*
X90449400Y-66976171D01*
X90391342Y-66860057D01*
X90333285Y-66802000D01*
X90217171Y-66743942D01*
X88475457Y-66743942D02*
X88185171Y-67963142D01*
X87952942Y-67092285D01*
X87720714Y-67963142D01*
X87430428Y-66743942D01*
X86501514Y-67905085D02*
X86617628Y-67963142D01*
X86849857Y-67963142D01*
X86965971Y-67905085D01*
X87024028Y-67788971D01*
X87024028Y-67324514D01*
X86965971Y-67208400D01*
X86849857Y-67150342D01*
X86617628Y-67150342D01*
X86501514Y-67208400D01*
X86443457Y-67324514D01*
X86443457Y-67440628D01*
X87024028Y-67556742D01*
X85979000Y-67905085D02*
X85862885Y-67963142D01*
X85630657Y-67963142D01*
X85514542Y-67905085D01*
X85456485Y-67788971D01*
X85456485Y-67730914D01*
X85514542Y-67614800D01*
X85630657Y-67556742D01*
X85804828Y-67556742D01*
X85920942Y-67498685D01*
X85979000Y-67382571D01*
X85979000Y-67324514D01*
X85920942Y-67208400D01*
X85804828Y-67150342D01*
X85630657Y-67150342D01*
X85514542Y-67208400D01*
X84759800Y-67963142D02*
X84875914Y-67905085D01*
X84933971Y-67788971D01*
X84933971Y-66743942D01*
X83830885Y-67905085D02*
X83947000Y-67963142D01*
X84179228Y-67963142D01*
X84295342Y-67905085D01*
X84353400Y-67788971D01*
X84353400Y-67324514D01*
X84295342Y-67208400D01*
X84179228Y-67150342D01*
X83947000Y-67150342D01*
X83830885Y-67208400D01*
X83772828Y-67324514D01*
X83772828Y-67440628D01*
X84353400Y-67556742D01*
X83366428Y-67150342D02*
X83076142Y-67963142D01*
X82785857Y-67150342D02*
X83076142Y-67963142D01*
X83192257Y-68253428D01*
X83250314Y-68311485D01*
X83366428Y-68369542D01*
X81392485Y-67963142D02*
X81392485Y-66743942D01*
X80869971Y-67905085D02*
X80753857Y-67963142D01*
X80521628Y-67963142D01*
X80405514Y-67905085D01*
X80347457Y-67788971D01*
X80347457Y-67730914D01*
X80405514Y-67614800D01*
X80521628Y-67556742D01*
X80695800Y-67556742D01*
X80811914Y-67498685D01*
X80869971Y-67382571D01*
X80869971Y-67324514D01*
X80811914Y-67208400D01*
X80695800Y-67150342D01*
X80521628Y-67150342D01*
X80405514Y-67208400D01*
X79302428Y-67963142D02*
X79302428Y-67324514D01*
X79360485Y-67208400D01*
X79476600Y-67150342D01*
X79708828Y-67150342D01*
X79824942Y-67208400D01*
X79302428Y-67905085D02*
X79418542Y-67963142D01*
X79708828Y-67963142D01*
X79824942Y-67905085D01*
X79883000Y-67788971D01*
X79883000Y-67672857D01*
X79824942Y-67556742D01*
X79708828Y-67498685D01*
X79418542Y-67498685D01*
X79302428Y-67440628D01*
X78199342Y-67905085D02*
X78315457Y-67963142D01*
X78547685Y-67963142D01*
X78663800Y-67905085D01*
X78721857Y-67847028D01*
X78779914Y-67730914D01*
X78779914Y-67382571D01*
X78721857Y-67266457D01*
X78663800Y-67208400D01*
X78547685Y-67150342D01*
X78315457Y-67150342D01*
X78199342Y-67208400D01*
X77676828Y-67963142D02*
X77676828Y-66743942D01*
X77560714Y-67498685D02*
X77212371Y-67963142D01*
X77212371Y-67150342D02*
X77676828Y-67614800D01*
X76747914Y-67905085D02*
X76631800Y-67963142D01*
X76399571Y-67963142D01*
X76283457Y-67905085D01*
X76225400Y-67788971D01*
X76225400Y-67730914D01*
X76283457Y-67614800D01*
X76399571Y-67556742D01*
X76573742Y-67556742D01*
X76689857Y-67498685D01*
X76747914Y-67382571D01*
X76747914Y-67324514D01*
X76689857Y-67208400D01*
X76573742Y-67150342D01*
X76399571Y-67150342D01*
X76283457Y-67208400D01*
X92045971Y-69969742D02*
X92045971Y-68750542D01*
X91581514Y-68750542D01*
X91465400Y-68808600D01*
X91407342Y-68866657D01*
X91349285Y-68982771D01*
X91349285Y-69156942D01*
X91407342Y-69273057D01*
X91465400Y-69331114D01*
X91581514Y-69389171D01*
X92045971Y-69389171D01*
X90826771Y-69969742D02*
X90826771Y-68750542D01*
X90536485Y-68750542D01*
X90362314Y-68808600D01*
X90246200Y-68924714D01*
X90188142Y-69040828D01*
X90130085Y-69273057D01*
X90130085Y-69447228D01*
X90188142Y-69679457D01*
X90246200Y-69795571D01*
X90362314Y-69911685D01*
X90536485Y-69969742D01*
X90826771Y-69969742D01*
X88968942Y-69969742D02*
X89665628Y-69969742D01*
X89317285Y-69969742D02*
X89317285Y-68750542D01*
X89433400Y-68924714D01*
X89549514Y-69040828D01*
X89665628Y-69098885D01*
X88214200Y-68750542D02*
X88098085Y-68750542D01*
X87981971Y-68808600D01*
X87923914Y-68866657D01*
X87865857Y-68982771D01*
X87807800Y-69215000D01*
X87807800Y-69505285D01*
X87865857Y-69737514D01*
X87923914Y-69853628D01*
X87981971Y-69911685D01*
X88098085Y-69969742D01*
X88214200Y-69969742D01*
X88330314Y-69911685D01*
X88388371Y-69853628D01*
X88446428Y-69737514D01*
X88504485Y-69505285D01*
X88504485Y-69215000D01*
X88446428Y-68982771D01*
X88388371Y-68866657D01*
X88330314Y-68808600D01*
X88214200Y-68750542D01*
X87343342Y-68866657D02*
X87285285Y-68808600D01*
X87169171Y-68750542D01*
X86878885Y-68750542D01*
X86762771Y-68808600D01*
X86704714Y-68866657D01*
X86646657Y-68982771D01*
X86646657Y-69098885D01*
X86704714Y-69273057D01*
X87401400Y-69969742D01*
X86646657Y-69969742D01*
X85311342Y-69156942D02*
X85021057Y-69969742D01*
X84730771Y-69156942D01*
X83627685Y-69969742D02*
X84324371Y-69969742D01*
X83976028Y-69969742D02*
X83976028Y-68750542D01*
X84092142Y-68924714D01*
X84208257Y-69040828D01*
X84324371Y-69098885D01*
X83105171Y-69853628D02*
X83047114Y-69911685D01*
X83105171Y-69969742D01*
X83163228Y-69911685D01*
X83105171Y-69853628D01*
X83105171Y-69969742D01*
X82292371Y-68750542D02*
X82176257Y-68750542D01*
X82060142Y-68808600D01*
X82002085Y-68866657D01*
X81944028Y-68982771D01*
X81885971Y-69215000D01*
X81885971Y-69505285D01*
X81944028Y-69737514D01*
X82002085Y-69853628D01*
X82060142Y-69911685D01*
X82176257Y-69969742D01*
X82292371Y-69969742D01*
X82408485Y-69911685D01*
X82466542Y-69853628D01*
X82524600Y-69737514D01*
X82582657Y-69505285D01*
X82582657Y-69215000D01*
X82524600Y-68982771D01*
X82466542Y-68866657D01*
X82408485Y-68808600D01*
X82292371Y-68750542D01*
%LPC*%
D11*
X32335000Y-54935000D03*
D12*
X29845000Y-53685000D03*
X29845000Y-49185000D03*
D11*
X32335000Y-47925000D03*
D13*
X111665000Y-33020000D03*
D14*
X113665000Y-33020000D03*
D15*
X109855000Y-76200000D03*
D13*
X102235000Y-76200000D03*
D15*
X109855000Y-73660000D03*
D13*
X102235000Y-73660000D03*
D15*
X102235000Y-71120000D03*
D13*
X109855000Y-71120000D03*
D15*
X102235000Y-68580000D03*
D13*
X109855000Y-68580000D03*
D15*
X102235000Y-66040000D03*
D13*
X109855000Y-66040000D03*
D15*
X102235000Y-63500000D03*
D13*
X109855000Y-63500000D03*
D15*
X102235000Y-60960000D03*
D13*
X109855000Y-60960000D03*
D15*
X102235000Y-58420000D03*
D13*
X109855000Y-58420000D03*
D15*
X102235000Y-55880000D03*
D13*
X109855000Y-55880000D03*
D15*
X102235000Y-53340000D03*
D13*
X109855000Y-53340000D03*
D15*
X102235000Y-50800000D03*
D13*
X109855000Y-50800000D03*
D15*
X102235000Y-48260000D03*
D13*
X109855000Y-48260000D03*
D15*
X109855000Y-45720000D03*
D13*
X102235000Y-45720000D03*
D15*
X109855000Y-43180000D03*
D13*
X102235000Y-43180000D03*
D15*
X102235000Y-40640000D03*
D13*
X109855000Y-40640000D03*
D15*
X86995000Y-48260000D03*
D13*
X86995000Y-40640000D03*
D15*
X84455000Y-40640000D03*
D13*
X84455000Y-48260000D03*
D15*
X81915000Y-40640000D03*
D13*
X81915000Y-48260000D03*
D15*
X40640000Y-39370000D03*
D13*
X40640000Y-46990000D03*
D16*
X118705000Y-50793800D03*
X118705000Y-75793800D03*
D13*
X121285000Y-68138800D03*
X121285000Y-65848800D03*
X121285000Y-63558800D03*
X121285000Y-61268800D03*
X121285000Y-58978800D03*
X118745000Y-66993800D03*
X118745000Y-64703800D03*
X118745000Y-62413800D03*
X118745000Y-60123800D03*
X118745000Y-57833800D03*
X116205000Y-68138800D03*
X116205000Y-65848800D03*
X116205000Y-63558800D03*
X116205000Y-61268800D03*
D14*
X116205000Y-58978800D03*
D17*
X31750000Y-86360000D03*
X31750000Y-83820000D03*
X31750000Y-81280000D03*
X31750000Y-78740000D03*
X31750000Y-76200000D03*
D18*
X31750000Y-73660000D03*
D19*
X121920000Y-85090000D03*
G36*
G01*
X117867000Y-84576500D02*
X117867000Y-85603500D01*
G75*
G02*
X117353500Y-86117000I-513500J0D01*
G01*
X116326500Y-86117000D01*
G75*
G02*
X115813000Y-85603500I0J513500D01*
G01*
X115813000Y-84576500D01*
G75*
G02*
X116326500Y-84063000I513500J0D01*
G01*
X117353500Y-84063000D01*
G75*
G02*
X117867000Y-84576500I0J-513500D01*
G01*
G37*
X114300000Y-85090000D03*
X111760000Y-85090000D03*
D20*
X48260000Y-58420000D03*
X40640000Y-73660000D03*
X48260000Y-60960000D03*
X40640000Y-71120000D03*
X48260000Y-63500000D03*
X40640000Y-68580000D03*
X48260000Y-66040000D03*
X40640000Y-66040000D03*
X48260000Y-68580000D03*
X40640000Y-63500000D03*
X48260000Y-71120000D03*
X40640000Y-60960000D03*
X48260000Y-73660000D03*
D21*
X40640000Y-58420000D03*
X90805000Y-33020000D03*
D20*
X98425000Y-40640000D03*
X90805000Y-35560000D03*
X98425000Y-38100000D03*
X90805000Y-38100000D03*
X98425000Y-35560000D03*
X90805000Y-40640000D03*
X98425000Y-33020000D03*
X71120000Y-27940000D03*
X55880000Y-76200000D03*
X71120000Y-30480000D03*
X55880000Y-73660000D03*
X71120000Y-33020000D03*
X55880000Y-71120000D03*
X71120000Y-35560000D03*
X55880000Y-68580000D03*
X71120000Y-38100000D03*
X55880000Y-66040000D03*
X71120000Y-40640000D03*
X55880000Y-63500000D03*
X71120000Y-43180000D03*
X55880000Y-60960000D03*
X71120000Y-45720000D03*
X55880000Y-58420000D03*
X71120000Y-48260000D03*
X55880000Y-55880000D03*
X71120000Y-50800000D03*
X55880000Y-53340000D03*
X71120000Y-53340000D03*
X55880000Y-50800000D03*
X71120000Y-55880000D03*
X55880000Y-48260000D03*
X71120000Y-58420000D03*
X55880000Y-45720000D03*
X71120000Y-60960000D03*
X55880000Y-43180000D03*
X71120000Y-63500000D03*
X55880000Y-40640000D03*
X71120000Y-66040000D03*
X55880000Y-38100000D03*
X71120000Y-68580000D03*
X55880000Y-35560000D03*
X71120000Y-71120000D03*
X55880000Y-33020000D03*
X71120000Y-73660000D03*
X55880000Y-30480000D03*
X71120000Y-76200000D03*
D21*
X55880000Y-27940000D03*
D13*
X114300000Y-42576000D03*
X114300000Y-40076000D03*
D22*
X49530000Y-45720000D03*
X50800000Y-46990000D03*
X48260000Y-46990000D03*
D23*
X120185000Y-30006000D03*
X120185000Y-43146000D03*
D24*
X117475000Y-40076000D03*
D25*
X117475000Y-37576000D03*
X117475000Y-35576000D03*
X117475000Y-33076000D03*
D26*
X45800000Y-83820000D03*
D27*
X50800000Y-83820000D03*
D13*
X50800000Y-60920000D03*
X50800000Y-58420000D03*
X50800000Y-43180000D03*
X48300000Y-43180000D03*
X50800000Y-50165000D03*
X48300000Y-50165000D03*
X100965000Y-33020000D03*
X100965000Y-35520000D03*
X73660000Y-45760000D03*
X73660000Y-48260000D03*
X53340000Y-53380000D03*
X53340000Y-55880000D03*
D17*
X36830000Y-76200000D03*
D28*
X36830000Y-73660000D03*
D17*
X31750000Y-43180000D03*
X31750000Y-40640000D03*
X31750000Y-38100000D03*
X31750000Y-35560000D03*
X31750000Y-33020000D03*
D18*
X31750000Y-30480000D03*
D29*
X36480000Y-62230000D03*
G36*
G01*
X28853000Y-63293500D02*
X28853000Y-61166500D01*
G75*
G02*
X29666500Y-60353000I813500J0D01*
G01*
X31293500Y-60353000D01*
G75*
G02*
X32107000Y-61166500I0J-813500D01*
G01*
X32107000Y-63293500D01*
G75*
G02*
X31293500Y-64107000I-813500J0D01*
G01*
X29666500Y-64107000D01*
G75*
G02*
X28853000Y-63293500I0J813500D01*
G01*
G37*
G36*
G01*
X31603000Y-67868500D02*
X31603000Y-65991500D01*
G75*
G02*
X32541500Y-65053000I938500J0D01*
G01*
X34418500Y-65053000D01*
G75*
G02*
X35357000Y-65991500I0J-938500D01*
G01*
X35357000Y-67868500D01*
G75*
G02*
X34418500Y-68807000I-938500J0D01*
G01*
X32541500Y-68807000D01*
G75*
G02*
X31603000Y-67868500I0J938500D01*
G01*
G37*
D17*
X92075000Y-53340000D03*
X89535000Y-53340000D03*
X86995000Y-53340000D03*
D18*
X84455000Y-53340000D03*
D30*
X77470000Y-50800000D03*
X77470000Y-55680000D03*
D31*
X106172000Y-81534000D03*
X76200000Y-81534000D03*
X36322000Y-81534000D03*
X106172000Y-35306000D03*
X76200000Y-35306000D03*
X36322000Y-35306000D03*
M02*
