%TF.GenerationSoftware,KiCad,Pcbnew,(5.1.6)-1*%
%TF.CreationDate,2020-11-22T19:56:56-08:00*%
%TF.ProjectId,vgavt1593,76676176-7431-4353-9933-2e6b69636164,1*%
%TF.SameCoordinates,Original*%
%TF.FileFunction,Legend,Top*%
%TF.FilePolarity,Positive*%
%FSLAX46Y46*%
G04 Gerber Fmt 4.6, Leading zero omitted, Abs format (unit mm)*
G04 Created by KiCad (PCBNEW (5.1.6)-1) date 2020-11-22 19:56:56*
%MOMM*%
%LPD*%
G01*
G04 APERTURE LIST*
%ADD10C,0.100000*%
%ADD11C,0.150000*%
%ADD12C,0.203200*%
%ADD13C,0.120000*%
%ADD14C,2.354000*%
%ADD15C,2.004000*%
%ADD16C,1.854000*%
%ADD17R,1.854000X1.854000*%
%ADD18O,1.854000X1.854000*%
%ADD19C,4.254000*%
%ADD20O,1.954000X1.954000*%
%ADD21R,1.954000X1.954000*%
%ADD22C,2.054000*%
%ADD23O,2.654000X1.854000*%
%ADD24R,2.654000X1.854000*%
%ADD25C,1.554000*%
%ADD26C,3.754000*%
%ADD27R,1.778000X1.778000*%
%ADD28C,1.778000*%
%ADD29C,2.254000*%
%ADD30R,2.254000X2.254000*%
%ADD31C,1.954000*%
%ADD32R,3.754000X3.754000*%
%ADD33C,1.754000*%
%ADD34C,3.454000*%
G04 APERTURE END LIST*
D10*
G36*
X34290000Y-31242000D02*
G01*
X33528000Y-30480000D01*
X34290000Y-29718000D01*
X34290000Y-31242000D01*
G37*
X34290000Y-31242000D02*
X33528000Y-30480000D01*
X34290000Y-29718000D01*
X34290000Y-31242000D01*
G36*
X34290000Y-74422000D02*
G01*
X33528000Y-73660000D01*
X34290000Y-72898000D01*
X34290000Y-74422000D01*
G37*
X34290000Y-74422000D02*
X33528000Y-73660000D01*
X34290000Y-72898000D01*
X34290000Y-74422000D01*
G36*
X84455000Y-51562000D02*
G01*
X83693000Y-50800000D01*
X85217000Y-50800000D01*
X84455000Y-51562000D01*
G37*
X84455000Y-51562000D02*
X83693000Y-50800000D01*
X85217000Y-50800000D01*
X84455000Y-51562000D01*
D11*
X84031666Y-55323619D02*
X84128428Y-55323619D01*
X84225190Y-55372000D01*
X84273571Y-55420380D01*
X84321952Y-55517142D01*
X84370333Y-55710666D01*
X84370333Y-55952571D01*
X84321952Y-56146095D01*
X84273571Y-56242857D01*
X84225190Y-56291238D01*
X84128428Y-56339619D01*
X84031666Y-56339619D01*
X83934904Y-56291238D01*
X83886523Y-56242857D01*
X83838142Y-56146095D01*
X83789761Y-55952571D01*
X83789761Y-55710666D01*
X83838142Y-55517142D01*
X83886523Y-55420380D01*
X83934904Y-55372000D01*
X84031666Y-55323619D01*
X84709000Y-55662285D02*
X84950904Y-56339619D01*
X85192809Y-55662285D01*
X86934523Y-56339619D02*
X86595857Y-55855809D01*
X86353952Y-56339619D02*
X86353952Y-55323619D01*
X86741000Y-55323619D01*
X86837761Y-55372000D01*
X86886142Y-55420380D01*
X86934523Y-55517142D01*
X86934523Y-55662285D01*
X86886142Y-55759047D01*
X86837761Y-55807428D01*
X86741000Y-55855809D01*
X86353952Y-55855809D01*
X87321571Y-56291238D02*
X87418333Y-56339619D01*
X87611857Y-56339619D01*
X87708619Y-56291238D01*
X87757000Y-56194476D01*
X87757000Y-56146095D01*
X87708619Y-56049333D01*
X87611857Y-56000952D01*
X87466714Y-56000952D01*
X87369952Y-55952571D01*
X87321571Y-55855809D01*
X87321571Y-55807428D01*
X87369952Y-55710666D01*
X87466714Y-55662285D01*
X87611857Y-55662285D01*
X87708619Y-55710666D01*
X89547095Y-56339619D02*
X89208428Y-55855809D01*
X88966523Y-56339619D02*
X88966523Y-55323619D01*
X89353571Y-55323619D01*
X89450333Y-55372000D01*
X89498714Y-55420380D01*
X89547095Y-55517142D01*
X89547095Y-55662285D01*
X89498714Y-55759047D01*
X89450333Y-55807428D01*
X89353571Y-55855809D01*
X88966523Y-55855809D01*
X89885761Y-56339619D02*
X90417952Y-55662285D01*
X89885761Y-55662285D02*
X90417952Y-56339619D01*
X91433952Y-55323619D02*
X92014523Y-55323619D01*
X91724238Y-56339619D02*
X91724238Y-55323619D01*
X92256428Y-56339619D02*
X92788619Y-55662285D01*
X92256428Y-55662285D02*
X92788619Y-56339619D01*
X27254200Y-29997400D02*
X27254200Y-30099000D01*
X27203400Y-30200600D01*
X27152600Y-30251400D01*
X27051000Y-30302200D01*
X26847800Y-30353000D01*
X26593800Y-30353000D01*
X26390600Y-30302200D01*
X26289000Y-30251400D01*
X26238200Y-30200600D01*
X26187400Y-30099000D01*
X26187400Y-29997400D01*
X26238200Y-29895800D01*
X26289000Y-29845000D01*
X26390600Y-29794200D01*
X26593800Y-29743400D01*
X26847800Y-29743400D01*
X27051000Y-29794200D01*
X27152600Y-29845000D01*
X27203400Y-29895800D01*
X27254200Y-29997400D01*
X26898600Y-30708600D02*
X26187400Y-30962600D01*
X26898600Y-31216600D01*
X26187400Y-33045400D02*
X26695400Y-32689800D01*
X26187400Y-32435800D02*
X27254200Y-32435800D01*
X27254200Y-32842200D01*
X27203400Y-32943800D01*
X27152600Y-32994600D01*
X27051000Y-33045400D01*
X26898600Y-33045400D01*
X26797000Y-32994600D01*
X26746200Y-32943800D01*
X26695400Y-32842200D01*
X26695400Y-32435800D01*
X26898600Y-33350200D02*
X26898600Y-33756600D01*
X27254200Y-33502600D02*
X26339800Y-33502600D01*
X26238200Y-33553400D01*
X26187400Y-33655000D01*
X26187400Y-33756600D01*
X26187400Y-34823400D02*
X26898600Y-35382200D01*
X26898600Y-34823400D02*
X26187400Y-35382200D01*
X26187400Y-35687000D02*
X26898600Y-36245800D01*
X26898600Y-35687000D02*
X26187400Y-36245800D01*
X26187400Y-38074600D02*
X26695400Y-37719000D01*
X26187400Y-37465000D02*
X27254200Y-37465000D01*
X27254200Y-37871400D01*
X27203400Y-37973000D01*
X27152600Y-38023800D01*
X27051000Y-38074600D01*
X26898600Y-38074600D01*
X26797000Y-38023800D01*
X26746200Y-37973000D01*
X26695400Y-37871400D01*
X26695400Y-37465000D01*
X26187400Y-38430200D02*
X26898600Y-38989000D01*
X26898600Y-38430200D02*
X26187400Y-38989000D01*
X27254200Y-40055800D02*
X27254200Y-40665400D01*
X26187400Y-40360600D02*
X27254200Y-40360600D01*
X26187400Y-40919400D02*
X26898600Y-41478200D01*
X26898600Y-40919400D02*
X26187400Y-41478200D01*
X26289000Y-43307000D02*
X26238200Y-43256200D01*
X26187400Y-43103800D01*
X26187400Y-43002200D01*
X26238200Y-42849800D01*
X26339800Y-42748200D01*
X26441400Y-42697400D01*
X26644600Y-42646600D01*
X26797000Y-42646600D01*
X27000200Y-42697400D01*
X27101800Y-42748200D01*
X27203400Y-42849800D01*
X27254200Y-43002200D01*
X27254200Y-43103800D01*
X27203400Y-43256200D01*
X27152600Y-43307000D01*
X26898600Y-43611800D02*
X26898600Y-44018200D01*
X27254200Y-43764200D02*
X26339800Y-43764200D01*
X26238200Y-43815000D01*
X26187400Y-43916600D01*
X26187400Y-44018200D01*
X27254200Y-73126600D02*
X27254200Y-73228200D01*
X27203400Y-73329800D01*
X27152600Y-73380600D01*
X27051000Y-73431400D01*
X26847800Y-73482200D01*
X26593800Y-73482200D01*
X26390600Y-73431400D01*
X26289000Y-73380600D01*
X26238200Y-73329800D01*
X26187400Y-73228200D01*
X26187400Y-73126600D01*
X26238200Y-73025000D01*
X26289000Y-72974200D01*
X26390600Y-72923400D01*
X26593800Y-72872600D01*
X26847800Y-72872600D01*
X27051000Y-72923400D01*
X27152600Y-72974200D01*
X27203400Y-73025000D01*
X27254200Y-73126600D01*
X26898600Y-73837800D02*
X26187400Y-74091800D01*
X26898600Y-74345800D01*
X26289000Y-76174600D02*
X26238200Y-76123800D01*
X26187400Y-75971400D01*
X26187400Y-75869800D01*
X26238200Y-75717400D01*
X26339800Y-75615800D01*
X26441400Y-75565000D01*
X26644600Y-75514200D01*
X26797000Y-75514200D01*
X27000200Y-75565000D01*
X27101800Y-75615800D01*
X27203400Y-75717400D01*
X27254200Y-75869800D01*
X27254200Y-75971400D01*
X27203400Y-76123800D01*
X27152600Y-76174600D01*
X26898600Y-76479400D02*
X26898600Y-76885800D01*
X27254200Y-76631800D02*
X26339800Y-76631800D01*
X26238200Y-76682600D01*
X26187400Y-76784200D01*
X26187400Y-76885800D01*
X27254200Y-78562200D02*
X27254200Y-78054200D01*
X26746200Y-78003400D01*
X26797000Y-78054200D01*
X26847800Y-78155800D01*
X26847800Y-78409800D01*
X26797000Y-78511400D01*
X26746200Y-78562200D01*
X26644600Y-78613000D01*
X26390600Y-78613000D01*
X26289000Y-78562200D01*
X26238200Y-78511400D01*
X26187400Y-78409800D01*
X26187400Y-78155800D01*
X26238200Y-78054200D01*
X26289000Y-78003400D01*
X26898600Y-78968600D02*
X26187400Y-79222600D01*
X26898600Y-79476600D01*
X27254200Y-80543400D02*
X27254200Y-81153000D01*
X26187400Y-80848200D02*
X27254200Y-80848200D01*
X26187400Y-81407000D02*
X26898600Y-81965800D01*
X26898600Y-81407000D02*
X26187400Y-81965800D01*
X26187400Y-83794600D02*
X26695400Y-83439000D01*
X26187400Y-83185000D02*
X27254200Y-83185000D01*
X27254200Y-83591400D01*
X27203400Y-83693000D01*
X27152600Y-83743800D01*
X27051000Y-83794600D01*
X26898600Y-83794600D01*
X26797000Y-83743800D01*
X26746200Y-83693000D01*
X26695400Y-83591400D01*
X26695400Y-83185000D01*
X26187400Y-84150200D02*
X26898600Y-84709000D01*
X26898600Y-84150200D02*
X26187400Y-84709000D01*
X26187400Y-86537800D02*
X26695400Y-86182200D01*
X26187400Y-85928200D02*
X27254200Y-85928200D01*
X27254200Y-86334600D01*
X27203400Y-86436200D01*
X27152600Y-86487000D01*
X27051000Y-86537800D01*
X26898600Y-86537800D01*
X26797000Y-86487000D01*
X26746200Y-86436200D01*
X26695400Y-86334600D01*
X26695400Y-85928200D01*
X26898600Y-86842600D02*
X26898600Y-87249000D01*
X27254200Y-86995000D02*
X26339800Y-86995000D01*
X26238200Y-87045800D01*
X26187400Y-87147400D01*
X26187400Y-87249000D01*
D12*
X62665428Y-59109428D02*
X63754000Y-59109428D01*
X63971714Y-59182000D01*
X64116857Y-59327142D01*
X64189428Y-59544857D01*
X64189428Y-59690000D01*
X64189428Y-57658000D02*
X64189428Y-58383714D01*
X62665428Y-58383714D01*
X64044285Y-56279142D02*
X64116857Y-56351714D01*
X64189428Y-56569428D01*
X64189428Y-56714571D01*
X64116857Y-56932285D01*
X63971714Y-57077428D01*
X63826571Y-57150000D01*
X63536285Y-57222571D01*
X63318571Y-57222571D01*
X63028285Y-57150000D01*
X62883142Y-57077428D01*
X62738000Y-56932285D01*
X62665428Y-56714571D01*
X62665428Y-56569428D01*
X62738000Y-56351714D01*
X62810571Y-56279142D01*
X62665428Y-55190571D02*
X63754000Y-55190571D01*
X63971714Y-55263142D01*
X64116857Y-55408285D01*
X64189428Y-55626000D01*
X64189428Y-55771142D01*
X64189428Y-53739142D02*
X64189428Y-54464857D01*
X62665428Y-54464857D01*
X64044285Y-52360285D02*
X64116857Y-52432857D01*
X64189428Y-52650571D01*
X64189428Y-52795714D01*
X64116857Y-53013428D01*
X63971714Y-53158571D01*
X63826571Y-53231142D01*
X63536285Y-53303714D01*
X63318571Y-53303714D01*
X63028285Y-53231142D01*
X62883142Y-53158571D01*
X62738000Y-53013428D01*
X62665428Y-52795714D01*
X62665428Y-52650571D01*
X62738000Y-52432857D01*
X62810571Y-52360285D01*
X62665428Y-51271714D02*
X63754000Y-51271714D01*
X63971714Y-51344285D01*
X64116857Y-51489428D01*
X64189428Y-51707142D01*
X64189428Y-51852285D01*
X64189428Y-49820285D02*
X64189428Y-50546000D01*
X62665428Y-50546000D01*
X64044285Y-48441428D02*
X64116857Y-48514000D01*
X64189428Y-48731714D01*
X64189428Y-48876857D01*
X64116857Y-49094571D01*
X63971714Y-49239714D01*
X63826571Y-49312285D01*
X63536285Y-49384857D01*
X63318571Y-49384857D01*
X63028285Y-49312285D01*
X62883142Y-49239714D01*
X62738000Y-49094571D01*
X62665428Y-48876857D01*
X62665428Y-48731714D01*
X62738000Y-48514000D01*
X62810571Y-48441428D01*
X62665428Y-47352857D02*
X63754000Y-47352857D01*
X63971714Y-47425428D01*
X64116857Y-47570571D01*
X64189428Y-47788285D01*
X64189428Y-47933428D01*
X64189428Y-45901428D02*
X64189428Y-46627142D01*
X62665428Y-46627142D01*
X64044285Y-44522571D02*
X64116857Y-44595142D01*
X64189428Y-44812857D01*
X64189428Y-44958000D01*
X64116857Y-45175714D01*
X63971714Y-45320857D01*
X63826571Y-45393428D01*
X63536285Y-45466000D01*
X63318571Y-45466000D01*
X63028285Y-45393428D01*
X62883142Y-45320857D01*
X62738000Y-45175714D01*
X62665428Y-44958000D01*
X62665428Y-44812857D01*
X62738000Y-44595142D01*
X62810571Y-44522571D01*
D13*
X30815000Y-54775000D02*
X31045000Y-54775000D01*
X27145000Y-55295000D02*
X27145000Y-47575000D01*
X27145000Y-47575000D02*
X31045000Y-47575000D01*
X34155000Y-55295000D02*
X34155000Y-54775000D01*
X27145000Y-55295000D02*
X31045000Y-55295000D01*
X30815000Y-48095000D02*
X31045000Y-48095000D01*
X33645000Y-54775000D02*
X34155000Y-54775000D01*
X33645000Y-55295000D02*
X34155000Y-55295000D01*
X30815000Y-48635000D02*
X30815000Y-48095000D01*
X33645000Y-48095000D02*
X34155000Y-48095000D01*
X34155000Y-48095000D02*
X34155000Y-47575000D01*
X33645000Y-47575000D02*
X34155000Y-47575000D01*
X30815000Y-54775000D02*
X30815000Y-54235000D01*
X30815000Y-53135000D02*
X30815000Y-49735000D01*
X115219775Y-34745000D02*
X115219775Y-34245000D01*
X115469775Y-34495000D02*
X114969775Y-34495000D01*
X110064000Y-33304000D02*
X110064000Y-32736000D01*
X110104000Y-33538000D02*
X110104000Y-32502000D01*
X110144000Y-33697000D02*
X110144000Y-32343000D01*
X110184000Y-33825000D02*
X110184000Y-32215000D01*
X110224000Y-33935000D02*
X110224000Y-32105000D01*
X110264000Y-34031000D02*
X110264000Y-32009000D01*
X110304000Y-34118000D02*
X110304000Y-31922000D01*
X110344000Y-34198000D02*
X110344000Y-31842000D01*
X110384000Y-34271000D02*
X110384000Y-31769000D01*
X110424000Y-34339000D02*
X110424000Y-31701000D01*
X110464000Y-34403000D02*
X110464000Y-31637000D01*
X110504000Y-34463000D02*
X110504000Y-31577000D01*
X110544000Y-34520000D02*
X110544000Y-31520000D01*
X110584000Y-34574000D02*
X110584000Y-31466000D01*
X110624000Y-34625000D02*
X110624000Y-31415000D01*
X110664000Y-31980000D02*
X110664000Y-31367000D01*
X110664000Y-34673000D02*
X110664000Y-34060000D01*
X110704000Y-31980000D02*
X110704000Y-31321000D01*
X110704000Y-34719000D02*
X110704000Y-34060000D01*
X110744000Y-31980000D02*
X110744000Y-31277000D01*
X110744000Y-34763000D02*
X110744000Y-34060000D01*
X110784000Y-31980000D02*
X110784000Y-31235000D01*
X110784000Y-34805000D02*
X110784000Y-34060000D01*
X110824000Y-31980000D02*
X110824000Y-31194000D01*
X110824000Y-34846000D02*
X110824000Y-34060000D01*
X110864000Y-31980000D02*
X110864000Y-31156000D01*
X110864000Y-34884000D02*
X110864000Y-34060000D01*
X110904000Y-31980000D02*
X110904000Y-31119000D01*
X110904000Y-34921000D02*
X110904000Y-34060000D01*
X110944000Y-31980000D02*
X110944000Y-31083000D01*
X110944000Y-34957000D02*
X110944000Y-34060000D01*
X110984000Y-31980000D02*
X110984000Y-31049000D01*
X110984000Y-34991000D02*
X110984000Y-34060000D01*
X111024000Y-31980000D02*
X111024000Y-31016000D01*
X111024000Y-35024000D02*
X111024000Y-34060000D01*
X111064000Y-31980000D02*
X111064000Y-30985000D01*
X111064000Y-35055000D02*
X111064000Y-34060000D01*
X111104000Y-31980000D02*
X111104000Y-30955000D01*
X111104000Y-35085000D02*
X111104000Y-34060000D01*
X111144000Y-31980000D02*
X111144000Y-30925000D01*
X111144000Y-35115000D02*
X111144000Y-34060000D01*
X111184000Y-31980000D02*
X111184000Y-30898000D01*
X111184000Y-35142000D02*
X111184000Y-34060000D01*
X111224000Y-31980000D02*
X111224000Y-30871000D01*
X111224000Y-35169000D02*
X111224000Y-34060000D01*
X111264000Y-31980000D02*
X111264000Y-30845000D01*
X111264000Y-35195000D02*
X111264000Y-34060000D01*
X111304000Y-31980000D02*
X111304000Y-30820000D01*
X111304000Y-35220000D02*
X111304000Y-34060000D01*
X111344000Y-31980000D02*
X111344000Y-30796000D01*
X111344000Y-35244000D02*
X111344000Y-34060000D01*
X111384000Y-31980000D02*
X111384000Y-30773000D01*
X111384000Y-35267000D02*
X111384000Y-34060000D01*
X111424000Y-31980000D02*
X111424000Y-30752000D01*
X111424000Y-35288000D02*
X111424000Y-34060000D01*
X111464000Y-31980000D02*
X111464000Y-30730000D01*
X111464000Y-35310000D02*
X111464000Y-34060000D01*
X111504000Y-31980000D02*
X111504000Y-30710000D01*
X111504000Y-35330000D02*
X111504000Y-34060000D01*
X111544000Y-31980000D02*
X111544000Y-30691000D01*
X111544000Y-35349000D02*
X111544000Y-34060000D01*
X111584000Y-31980000D02*
X111584000Y-30672000D01*
X111584000Y-35368000D02*
X111584000Y-34060000D01*
X111624000Y-31980000D02*
X111624000Y-30655000D01*
X111624000Y-35385000D02*
X111624000Y-34060000D01*
X111664000Y-31980000D02*
X111664000Y-30638000D01*
X111664000Y-35402000D02*
X111664000Y-34060000D01*
X111704000Y-31980000D02*
X111704000Y-30622000D01*
X111704000Y-35418000D02*
X111704000Y-34060000D01*
X111744000Y-31980000D02*
X111744000Y-30606000D01*
X111744000Y-35434000D02*
X111744000Y-34060000D01*
X111784000Y-31980000D02*
X111784000Y-30592000D01*
X111784000Y-35448000D02*
X111784000Y-34060000D01*
X111824000Y-31980000D02*
X111824000Y-30578000D01*
X111824000Y-35462000D02*
X111824000Y-34060000D01*
X111864000Y-31980000D02*
X111864000Y-30565000D01*
X111864000Y-35475000D02*
X111864000Y-34060000D01*
X111904000Y-31980000D02*
X111904000Y-30552000D01*
X111904000Y-35488000D02*
X111904000Y-34060000D01*
X111944000Y-31980000D02*
X111944000Y-30540000D01*
X111944000Y-35500000D02*
X111944000Y-34060000D01*
X111985000Y-31980000D02*
X111985000Y-30529000D01*
X111985000Y-35511000D02*
X111985000Y-34060000D01*
X112025000Y-31980000D02*
X112025000Y-30519000D01*
X112025000Y-35521000D02*
X112025000Y-34060000D01*
X112065000Y-31980000D02*
X112065000Y-30509000D01*
X112065000Y-35531000D02*
X112065000Y-34060000D01*
X112105000Y-31980000D02*
X112105000Y-30500000D01*
X112105000Y-35540000D02*
X112105000Y-34060000D01*
X112145000Y-31980000D02*
X112145000Y-30492000D01*
X112145000Y-35548000D02*
X112145000Y-34060000D01*
X112185000Y-31980000D02*
X112185000Y-30484000D01*
X112185000Y-35556000D02*
X112185000Y-34060000D01*
X112225000Y-31980000D02*
X112225000Y-30477000D01*
X112225000Y-35563000D02*
X112225000Y-34060000D01*
X112265000Y-31980000D02*
X112265000Y-30470000D01*
X112265000Y-35570000D02*
X112265000Y-34060000D01*
X112305000Y-31980000D02*
X112305000Y-30464000D01*
X112305000Y-35576000D02*
X112305000Y-34060000D01*
X112345000Y-31980000D02*
X112345000Y-30459000D01*
X112345000Y-35581000D02*
X112345000Y-34060000D01*
X112385000Y-31980000D02*
X112385000Y-30455000D01*
X112385000Y-35585000D02*
X112385000Y-34060000D01*
X112425000Y-31980000D02*
X112425000Y-30451000D01*
X112425000Y-35589000D02*
X112425000Y-34060000D01*
X112465000Y-31980000D02*
X112465000Y-30447000D01*
X112465000Y-35593000D02*
X112465000Y-34060000D01*
X112505000Y-31980000D02*
X112505000Y-30444000D01*
X112505000Y-35596000D02*
X112505000Y-34060000D01*
X112545000Y-31980000D02*
X112545000Y-30442000D01*
X112545000Y-35598000D02*
X112545000Y-34060000D01*
X112585000Y-31980000D02*
X112585000Y-30441000D01*
X112585000Y-35599000D02*
X112585000Y-34060000D01*
X112625000Y-35600000D02*
X112625000Y-34060000D01*
X112625000Y-31980000D02*
X112625000Y-30440000D01*
X112665000Y-35600000D02*
X112665000Y-34060000D01*
X112665000Y-31980000D02*
X112665000Y-30440000D01*
X115285000Y-33020000D02*
G75*
G03*
X115285000Y-33020000I-2620000J0D01*
G01*
X102775000Y-75160000D02*
X102775000Y-74830000D01*
X102775000Y-74830000D02*
X109315000Y-74830000D01*
X109315000Y-74830000D02*
X109315000Y-75160000D01*
X102775000Y-77240000D02*
X102775000Y-77570000D01*
X102775000Y-77570000D02*
X109315000Y-77570000D01*
X109315000Y-77570000D02*
X109315000Y-77240000D01*
X102775000Y-72620000D02*
X102775000Y-72290000D01*
X102775000Y-72290000D02*
X109315000Y-72290000D01*
X109315000Y-72290000D02*
X109315000Y-72620000D01*
X102775000Y-74700000D02*
X102775000Y-75030000D01*
X102775000Y-75030000D02*
X109315000Y-75030000D01*
X109315000Y-75030000D02*
X109315000Y-74700000D01*
X109315000Y-72160000D02*
X109315000Y-72490000D01*
X109315000Y-72490000D02*
X102775000Y-72490000D01*
X102775000Y-72490000D02*
X102775000Y-72160000D01*
X109315000Y-70080000D02*
X109315000Y-69750000D01*
X109315000Y-69750000D02*
X102775000Y-69750000D01*
X102775000Y-69750000D02*
X102775000Y-70080000D01*
X109315000Y-69620000D02*
X109315000Y-69950000D01*
X109315000Y-69950000D02*
X102775000Y-69950000D01*
X102775000Y-69950000D02*
X102775000Y-69620000D01*
X109315000Y-67540000D02*
X109315000Y-67210000D01*
X109315000Y-67210000D02*
X102775000Y-67210000D01*
X102775000Y-67210000D02*
X102775000Y-67540000D01*
X109315000Y-67080000D02*
X109315000Y-67410000D01*
X109315000Y-67410000D02*
X102775000Y-67410000D01*
X102775000Y-67410000D02*
X102775000Y-67080000D01*
X109315000Y-65000000D02*
X109315000Y-64670000D01*
X109315000Y-64670000D02*
X102775000Y-64670000D01*
X102775000Y-64670000D02*
X102775000Y-65000000D01*
X109315000Y-64540000D02*
X109315000Y-64870000D01*
X109315000Y-64870000D02*
X102775000Y-64870000D01*
X102775000Y-64870000D02*
X102775000Y-64540000D01*
X109315000Y-62460000D02*
X109315000Y-62130000D01*
X109315000Y-62130000D02*
X102775000Y-62130000D01*
X102775000Y-62130000D02*
X102775000Y-62460000D01*
X109315000Y-62000000D02*
X109315000Y-62330000D01*
X109315000Y-62330000D02*
X102775000Y-62330000D01*
X102775000Y-62330000D02*
X102775000Y-62000000D01*
X109315000Y-59920000D02*
X109315000Y-59590000D01*
X109315000Y-59590000D02*
X102775000Y-59590000D01*
X102775000Y-59590000D02*
X102775000Y-59920000D01*
X109315000Y-59460000D02*
X109315000Y-59790000D01*
X109315000Y-59790000D02*
X102775000Y-59790000D01*
X102775000Y-59790000D02*
X102775000Y-59460000D01*
X109315000Y-57380000D02*
X109315000Y-57050000D01*
X109315000Y-57050000D02*
X102775000Y-57050000D01*
X102775000Y-57050000D02*
X102775000Y-57380000D01*
X109315000Y-56920000D02*
X109315000Y-57250000D01*
X109315000Y-57250000D02*
X102775000Y-57250000D01*
X102775000Y-57250000D02*
X102775000Y-56920000D01*
X109315000Y-54840000D02*
X109315000Y-54510000D01*
X109315000Y-54510000D02*
X102775000Y-54510000D01*
X102775000Y-54510000D02*
X102775000Y-54840000D01*
X109315000Y-54380000D02*
X109315000Y-54710000D01*
X109315000Y-54710000D02*
X102775000Y-54710000D01*
X102775000Y-54710000D02*
X102775000Y-54380000D01*
X109315000Y-52300000D02*
X109315000Y-51970000D01*
X109315000Y-51970000D02*
X102775000Y-51970000D01*
X102775000Y-51970000D02*
X102775000Y-52300000D01*
X109315000Y-51840000D02*
X109315000Y-52170000D01*
X109315000Y-52170000D02*
X102775000Y-52170000D01*
X102775000Y-52170000D02*
X102775000Y-51840000D01*
X109315000Y-49760000D02*
X109315000Y-49430000D01*
X109315000Y-49430000D02*
X102775000Y-49430000D01*
X102775000Y-49430000D02*
X102775000Y-49760000D01*
X109315000Y-49300000D02*
X109315000Y-49630000D01*
X109315000Y-49630000D02*
X102775000Y-49630000D01*
X102775000Y-49630000D02*
X102775000Y-49300000D01*
X109315000Y-47220000D02*
X109315000Y-46890000D01*
X109315000Y-46890000D02*
X102775000Y-46890000D01*
X102775000Y-46890000D02*
X102775000Y-47220000D01*
X102775000Y-44680000D02*
X102775000Y-44350000D01*
X102775000Y-44350000D02*
X109315000Y-44350000D01*
X109315000Y-44350000D02*
X109315000Y-44680000D01*
X102775000Y-46760000D02*
X102775000Y-47090000D01*
X102775000Y-47090000D02*
X109315000Y-47090000D01*
X109315000Y-47090000D02*
X109315000Y-46760000D01*
X102775000Y-42140000D02*
X102775000Y-41810000D01*
X102775000Y-41810000D02*
X109315000Y-41810000D01*
X109315000Y-41810000D02*
X109315000Y-42140000D01*
X102775000Y-44220000D02*
X102775000Y-44550000D01*
X102775000Y-44550000D02*
X109315000Y-44550000D01*
X109315000Y-44550000D02*
X109315000Y-44220000D01*
X109315000Y-41680000D02*
X109315000Y-42010000D01*
X109315000Y-42010000D02*
X102775000Y-42010000D01*
X102775000Y-42010000D02*
X102775000Y-41680000D01*
X109315000Y-39600000D02*
X109315000Y-39270000D01*
X109315000Y-39270000D02*
X102775000Y-39270000D01*
X102775000Y-39270000D02*
X102775000Y-39600000D01*
X88035000Y-41180000D02*
X88365000Y-41180000D01*
X88365000Y-41180000D02*
X88365000Y-47720000D01*
X88365000Y-47720000D02*
X88035000Y-47720000D01*
X85955000Y-41180000D02*
X85625000Y-41180000D01*
X85625000Y-41180000D02*
X85625000Y-47720000D01*
X85625000Y-47720000D02*
X85955000Y-47720000D01*
X83415000Y-47720000D02*
X83085000Y-47720000D01*
X83085000Y-47720000D02*
X83085000Y-41180000D01*
X83085000Y-41180000D02*
X83415000Y-41180000D01*
X85495000Y-47720000D02*
X85825000Y-47720000D01*
X85825000Y-47720000D02*
X85825000Y-41180000D01*
X85825000Y-41180000D02*
X85495000Y-41180000D01*
X80875000Y-47720000D02*
X80545000Y-47720000D01*
X80545000Y-47720000D02*
X80545000Y-41180000D01*
X80545000Y-41180000D02*
X80875000Y-41180000D01*
X82955000Y-47720000D02*
X83285000Y-47720000D01*
X83285000Y-47720000D02*
X83285000Y-41180000D01*
X83285000Y-41180000D02*
X82955000Y-41180000D01*
X39600000Y-46450000D02*
X39270000Y-46450000D01*
X39270000Y-46450000D02*
X39270000Y-39910000D01*
X39270000Y-39910000D02*
X39600000Y-39910000D01*
X41680000Y-46450000D02*
X42010000Y-46450000D01*
X42010000Y-46450000D02*
X42010000Y-39910000D01*
X42010000Y-39910000D02*
X41680000Y-39910000D01*
X129715000Y-78778800D02*
X114565000Y-78778800D01*
X114565000Y-78778800D02*
X114565000Y-47808800D01*
X114565000Y-47808800D02*
X129715000Y-47808800D01*
X113670662Y-59228800D02*
X113670662Y-58728800D01*
X113670662Y-58728800D02*
X114103675Y-58978800D01*
X114103675Y-58978800D02*
X113670662Y-59228800D01*
X30420000Y-87690000D02*
X33080000Y-87690000D01*
X30420000Y-74930000D02*
X30420000Y-87690000D01*
X33080000Y-74930000D02*
X33080000Y-87690000D01*
X30420000Y-74930000D02*
X33080000Y-74930000D01*
X30420000Y-73660000D02*
X30420000Y-72330000D01*
X30420000Y-72330000D02*
X31750000Y-72330000D01*
X116720000Y-87780000D02*
X116720000Y-86290000D01*
X116720000Y-83890000D02*
X116720000Y-82400000D01*
X126080000Y-82400000D02*
X116720000Y-82400000D01*
X126080000Y-87780000D02*
X126080000Y-82400000D01*
X116720000Y-87780000D02*
X126080000Y-87780000D01*
X43450000Y-57090000D02*
X42200000Y-57090000D01*
X42200000Y-57090000D02*
X42200000Y-74990000D01*
X42200000Y-74990000D02*
X46700000Y-74990000D01*
X46700000Y-74990000D02*
X46700000Y-57090000D01*
X46700000Y-57090000D02*
X45450000Y-57090000D01*
X45450000Y-57090000D02*
G75*
G02*
X43450000Y-57090000I-1000000J0D01*
G01*
X96865000Y-31690000D02*
X95615000Y-31690000D01*
X96865000Y-41970000D02*
X96865000Y-31690000D01*
X92365000Y-41970000D02*
X96865000Y-41970000D01*
X92365000Y-31690000D02*
X92365000Y-41970000D01*
X93615000Y-31690000D02*
X92365000Y-31690000D01*
X95615000Y-31690000D02*
G75*
G02*
X93615000Y-31690000I-1000000J0D01*
G01*
X62500000Y-26610000D02*
X57440000Y-26610000D01*
X57440000Y-26610000D02*
X57440000Y-77530000D01*
X57440000Y-77530000D02*
X69560000Y-77530000D01*
X69560000Y-77530000D02*
X69560000Y-26610000D01*
X69560000Y-26610000D02*
X64500000Y-26610000D01*
X64500000Y-26610000D02*
G75*
G02*
X62500000Y-26610000I-1000000J0D01*
G01*
X115220000Y-40697000D02*
X115220000Y-41955000D01*
X113380000Y-40697000D02*
X113380000Y-41955000D01*
X47730000Y-48840000D02*
X51330000Y-48840000D01*
X47691522Y-48828478D02*
G75*
G02*
X49530000Y-44390000I1838478J1838478D01*
G01*
X51368478Y-48828478D02*
G75*
G03*
X49530000Y-44390000I-1838478J1838478D01*
G01*
X115475000Y-39576000D02*
X115475000Y-40576000D01*
X115975000Y-40076000D02*
X115475000Y-39576000D01*
X115475000Y-40576000D02*
X115975000Y-40076000D01*
X118335000Y-29216000D02*
X116355000Y-29216000D01*
X116355000Y-43936000D02*
X118335000Y-43936000D01*
X116355000Y-43936000D02*
X116355000Y-29216000D01*
X122035000Y-29216000D02*
X130575000Y-29216000D01*
X130575000Y-43936000D02*
X130575000Y-29216000D01*
X122035000Y-43936000D02*
X130575000Y-43936000D01*
X54530000Y-83820000D02*
G75*
G03*
X54530000Y-83820000I-6230000J0D01*
G01*
X54700000Y-82320001D02*
G75*
G02*
X54700000Y-85320000I-6400000J-1499999D01*
G01*
X49880000Y-59041000D02*
X49880000Y-60299000D01*
X51720000Y-59041000D02*
X51720000Y-60299000D01*
X50179000Y-42260000D02*
X48921000Y-42260000D01*
X50179000Y-44100000D02*
X48921000Y-44100000D01*
X50179000Y-49245000D02*
X48921000Y-49245000D01*
X50179000Y-51085000D02*
X48921000Y-51085000D01*
X100045000Y-33641000D02*
X100045000Y-34899000D01*
X101885000Y-33641000D02*
X101885000Y-34899000D01*
X72740000Y-47639000D02*
X72740000Y-46381000D01*
X74580000Y-47639000D02*
X74580000Y-46381000D01*
X52420000Y-55259000D02*
X52420000Y-54001000D01*
X54260000Y-55259000D02*
X54260000Y-54001000D01*
X35500000Y-72330000D02*
X36830000Y-72330000D01*
X35500000Y-73660000D02*
X35500000Y-72330000D01*
X35500000Y-74930000D02*
X38160000Y-74930000D01*
X38160000Y-74930000D02*
X38160000Y-77530000D01*
X35500000Y-74930000D02*
X35500000Y-77530000D01*
X35500000Y-77530000D02*
X38160000Y-77530000D01*
X30420000Y-44510000D02*
X33080000Y-44510000D01*
X30420000Y-31750000D02*
X30420000Y-44510000D01*
X33080000Y-31750000D02*
X33080000Y-44510000D01*
X30420000Y-31750000D02*
X33080000Y-31750000D01*
X30420000Y-30480000D02*
X30420000Y-29150000D01*
X30420000Y-29150000D02*
X31750000Y-29150000D01*
X37380000Y-57630000D02*
X37380000Y-60230000D01*
X22680000Y-57630000D02*
X37380000Y-57630000D01*
X37380000Y-66830000D02*
X35480000Y-66830000D01*
X37380000Y-64130000D02*
X37380000Y-66830000D01*
X22680000Y-66830000D02*
X22680000Y-57630000D01*
X31480000Y-66830000D02*
X22680000Y-66830000D01*
X36530000Y-57430000D02*
X37580000Y-57430000D01*
X37580000Y-58480000D02*
X37580000Y-57430000D01*
X93405000Y-54670000D02*
X93405000Y-52010000D01*
X85725000Y-54670000D02*
X93405000Y-54670000D01*
X85725000Y-52010000D02*
X93405000Y-52010000D01*
X85725000Y-54670000D02*
X85725000Y-52010000D01*
X84455000Y-54670000D02*
X83125000Y-54670000D01*
X83125000Y-54670000D02*
X83125000Y-53340000D01*
X74945000Y-56365000D02*
X74945000Y-50115000D01*
X79995000Y-56365000D02*
X79995000Y-50115000D01*
X79995000Y-50115000D02*
G75*
G03*
X74945000Y-50115000I-2525000J0D01*
G01*
X79995000Y-56365000D02*
G75*
G02*
X74945000Y-56365000I-2525000J0D01*
G01*
D11*
X32789761Y-52768333D02*
X32837380Y-52625476D01*
X32837380Y-52387380D01*
X32789761Y-52292142D01*
X32742142Y-52244523D01*
X32646904Y-52196904D01*
X32551666Y-52196904D01*
X32456428Y-52244523D01*
X32408809Y-52292142D01*
X32361190Y-52387380D01*
X32313571Y-52577857D01*
X32265952Y-52673095D01*
X32218333Y-52720714D01*
X32123095Y-52768333D01*
X32027857Y-52768333D01*
X31932619Y-52720714D01*
X31885000Y-52673095D01*
X31837380Y-52577857D01*
X31837380Y-52339761D01*
X31885000Y-52196904D01*
X31837380Y-51863571D02*
X32837380Y-51625476D01*
X32123095Y-51435000D01*
X32837380Y-51244523D01*
X31837380Y-51006428D01*
X31932619Y-50673095D02*
X31885000Y-50625476D01*
X31837380Y-50530238D01*
X31837380Y-50292142D01*
X31885000Y-50196904D01*
X31932619Y-50149285D01*
X32027857Y-50101666D01*
X32123095Y-50101666D01*
X32265952Y-50149285D01*
X32837380Y-50720714D01*
X32837380Y-50101666D01*
X27717904Y-56840380D02*
X27384571Y-56364190D01*
X27146476Y-56840380D02*
X27146476Y-55840380D01*
X27527428Y-55840380D01*
X27622666Y-55888000D01*
X27670285Y-55935619D01*
X27717904Y-56030857D01*
X27717904Y-56173714D01*
X27670285Y-56268952D01*
X27622666Y-56316571D01*
X27527428Y-56364190D01*
X27146476Y-56364190D01*
X28527428Y-56792761D02*
X28432190Y-56840380D01*
X28241714Y-56840380D01*
X28146476Y-56792761D01*
X28098857Y-56697523D01*
X28098857Y-56316571D01*
X28146476Y-56221333D01*
X28241714Y-56173714D01*
X28432190Y-56173714D01*
X28527428Y-56221333D01*
X28575047Y-56316571D01*
X28575047Y-56411809D01*
X28098857Y-56507047D01*
X28956000Y-56792761D02*
X29051238Y-56840380D01*
X29241714Y-56840380D01*
X29336952Y-56792761D01*
X29384571Y-56697523D01*
X29384571Y-56649904D01*
X29336952Y-56554666D01*
X29241714Y-56507047D01*
X29098857Y-56507047D01*
X29003619Y-56459428D01*
X28956000Y-56364190D01*
X28956000Y-56316571D01*
X29003619Y-56221333D01*
X29098857Y-56173714D01*
X29241714Y-56173714D01*
X29336952Y-56221333D01*
X30194095Y-56792761D02*
X30098857Y-56840380D01*
X29908380Y-56840380D01*
X29813142Y-56792761D01*
X29765523Y-56697523D01*
X29765523Y-56316571D01*
X29813142Y-56221333D01*
X29908380Y-56173714D01*
X30098857Y-56173714D01*
X30194095Y-56221333D01*
X30241714Y-56316571D01*
X30241714Y-56411809D01*
X29765523Y-56507047D01*
X30527428Y-56173714D02*
X30908380Y-56173714D01*
X30670285Y-55840380D02*
X30670285Y-56697523D01*
X30717904Y-56792761D01*
X30813142Y-56840380D01*
X30908380Y-56840380D01*
X112498333Y-29567142D02*
X112450714Y-29614761D01*
X112307857Y-29662380D01*
X112212619Y-29662380D01*
X112069761Y-29614761D01*
X111974523Y-29519523D01*
X111926904Y-29424285D01*
X111879285Y-29233809D01*
X111879285Y-29090952D01*
X111926904Y-28900476D01*
X111974523Y-28805238D01*
X112069761Y-28710000D01*
X112212619Y-28662380D01*
X112307857Y-28662380D01*
X112450714Y-28710000D01*
X112498333Y-28757619D01*
X113069761Y-29090952D02*
X112974523Y-29043333D01*
X112926904Y-28995714D01*
X112879285Y-28900476D01*
X112879285Y-28852857D01*
X112926904Y-28757619D01*
X112974523Y-28710000D01*
X113069761Y-28662380D01*
X113260238Y-28662380D01*
X113355476Y-28710000D01*
X113403095Y-28757619D01*
X113450714Y-28852857D01*
X113450714Y-28900476D01*
X113403095Y-28995714D01*
X113355476Y-29043333D01*
X113260238Y-29090952D01*
X113069761Y-29090952D01*
X112974523Y-29138571D01*
X112926904Y-29186190D01*
X112879285Y-29281428D01*
X112879285Y-29471904D01*
X112926904Y-29567142D01*
X112974523Y-29614761D01*
X113069761Y-29662380D01*
X113260238Y-29662380D01*
X113355476Y-29614761D01*
X113403095Y-29567142D01*
X113450714Y-29471904D01*
X113450714Y-29281428D01*
X113403095Y-29186190D01*
X113355476Y-29138571D01*
X113260238Y-29090952D01*
X99052142Y-76652380D02*
X98718809Y-76176190D01*
X98480714Y-76652380D02*
X98480714Y-75652380D01*
X98861666Y-75652380D01*
X98956904Y-75700000D01*
X99004523Y-75747619D01*
X99052142Y-75842857D01*
X99052142Y-75985714D01*
X99004523Y-76080952D01*
X98956904Y-76128571D01*
X98861666Y-76176190D01*
X98480714Y-76176190D01*
X100004523Y-76652380D02*
X99433095Y-76652380D01*
X99718809Y-76652380D02*
X99718809Y-75652380D01*
X99623571Y-75795238D01*
X99528333Y-75890476D01*
X99433095Y-75938095D01*
X100480714Y-76652380D02*
X100671190Y-76652380D01*
X100766428Y-76604761D01*
X100814047Y-76557142D01*
X100909285Y-76414285D01*
X100956904Y-76223809D01*
X100956904Y-75842857D01*
X100909285Y-75747619D01*
X100861666Y-75700000D01*
X100766428Y-75652380D01*
X100575952Y-75652380D01*
X100480714Y-75700000D01*
X100433095Y-75747619D01*
X100385476Y-75842857D01*
X100385476Y-76080952D01*
X100433095Y-76176190D01*
X100480714Y-76223809D01*
X100575952Y-76271428D01*
X100766428Y-76271428D01*
X100861666Y-76223809D01*
X100909285Y-76176190D01*
X100956904Y-76080952D01*
X104878333Y-76652380D02*
X104306904Y-76652380D01*
X104592619Y-76652380D02*
X104592619Y-75652380D01*
X104497380Y-75795238D01*
X104402142Y-75890476D01*
X104306904Y-75938095D01*
X105259285Y-75747619D02*
X105306904Y-75700000D01*
X105402142Y-75652380D01*
X105640238Y-75652380D01*
X105735476Y-75700000D01*
X105783095Y-75747619D01*
X105830714Y-75842857D01*
X105830714Y-75938095D01*
X105783095Y-76080952D01*
X105211666Y-76652380D01*
X105830714Y-76652380D01*
X106449761Y-75652380D02*
X106545000Y-75652380D01*
X106640238Y-75700000D01*
X106687857Y-75747619D01*
X106735476Y-75842857D01*
X106783095Y-76033333D01*
X106783095Y-76271428D01*
X106735476Y-76461904D01*
X106687857Y-76557142D01*
X106640238Y-76604761D01*
X106545000Y-76652380D01*
X106449761Y-76652380D01*
X106354523Y-76604761D01*
X106306904Y-76557142D01*
X106259285Y-76461904D01*
X106211666Y-76271428D01*
X106211666Y-76033333D01*
X106259285Y-75842857D01*
X106306904Y-75747619D01*
X106354523Y-75700000D01*
X106449761Y-75652380D01*
X107783095Y-76652380D02*
X107449761Y-76176190D01*
X107211666Y-76652380D02*
X107211666Y-75652380D01*
X107592619Y-75652380D01*
X107687857Y-75700000D01*
X107735476Y-75747619D01*
X107783095Y-75842857D01*
X107783095Y-75985714D01*
X107735476Y-76080952D01*
X107687857Y-76128571D01*
X107592619Y-76176190D01*
X107211666Y-76176190D01*
X99052142Y-74112380D02*
X98718809Y-73636190D01*
X98480714Y-74112380D02*
X98480714Y-73112380D01*
X98861666Y-73112380D01*
X98956904Y-73160000D01*
X99004523Y-73207619D01*
X99052142Y-73302857D01*
X99052142Y-73445714D01*
X99004523Y-73540952D01*
X98956904Y-73588571D01*
X98861666Y-73636190D01*
X98480714Y-73636190D01*
X100004523Y-74112380D02*
X99433095Y-74112380D01*
X99718809Y-74112380D02*
X99718809Y-73112380D01*
X99623571Y-73255238D01*
X99528333Y-73350476D01*
X99433095Y-73398095D01*
X100575952Y-73540952D02*
X100480714Y-73493333D01*
X100433095Y-73445714D01*
X100385476Y-73350476D01*
X100385476Y-73302857D01*
X100433095Y-73207619D01*
X100480714Y-73160000D01*
X100575952Y-73112380D01*
X100766428Y-73112380D01*
X100861666Y-73160000D01*
X100909285Y-73207619D01*
X100956904Y-73302857D01*
X100956904Y-73350476D01*
X100909285Y-73445714D01*
X100861666Y-73493333D01*
X100766428Y-73540952D01*
X100575952Y-73540952D01*
X100480714Y-73588571D01*
X100433095Y-73636190D01*
X100385476Y-73731428D01*
X100385476Y-73921904D01*
X100433095Y-74017142D01*
X100480714Y-74064761D01*
X100575952Y-74112380D01*
X100766428Y-74112380D01*
X100861666Y-74064761D01*
X100909285Y-74017142D01*
X100956904Y-73921904D01*
X100956904Y-73731428D01*
X100909285Y-73636190D01*
X100861666Y-73588571D01*
X100766428Y-73540952D01*
X104878333Y-74112380D02*
X104306904Y-74112380D01*
X104592619Y-74112380D02*
X104592619Y-73112380D01*
X104497380Y-73255238D01*
X104402142Y-73350476D01*
X104306904Y-73398095D01*
X105259285Y-73207619D02*
X105306904Y-73160000D01*
X105402142Y-73112380D01*
X105640238Y-73112380D01*
X105735476Y-73160000D01*
X105783095Y-73207619D01*
X105830714Y-73302857D01*
X105830714Y-73398095D01*
X105783095Y-73540952D01*
X105211666Y-74112380D01*
X105830714Y-74112380D01*
X106449761Y-73112380D02*
X106545000Y-73112380D01*
X106640238Y-73160000D01*
X106687857Y-73207619D01*
X106735476Y-73302857D01*
X106783095Y-73493333D01*
X106783095Y-73731428D01*
X106735476Y-73921904D01*
X106687857Y-74017142D01*
X106640238Y-74064761D01*
X106545000Y-74112380D01*
X106449761Y-74112380D01*
X106354523Y-74064761D01*
X106306904Y-74017142D01*
X106259285Y-73921904D01*
X106211666Y-73731428D01*
X106211666Y-73493333D01*
X106259285Y-73302857D01*
X106306904Y-73207619D01*
X106354523Y-73160000D01*
X106449761Y-73112380D01*
X107783095Y-74112380D02*
X107449761Y-73636190D01*
X107211666Y-74112380D02*
X107211666Y-73112380D01*
X107592619Y-73112380D01*
X107687857Y-73160000D01*
X107735476Y-73207619D01*
X107783095Y-73302857D01*
X107783095Y-73445714D01*
X107735476Y-73540952D01*
X107687857Y-73588571D01*
X107592619Y-73636190D01*
X107211666Y-73636190D01*
X99052142Y-71572380D02*
X98718809Y-71096190D01*
X98480714Y-71572380D02*
X98480714Y-70572380D01*
X98861666Y-70572380D01*
X98956904Y-70620000D01*
X99004523Y-70667619D01*
X99052142Y-70762857D01*
X99052142Y-70905714D01*
X99004523Y-71000952D01*
X98956904Y-71048571D01*
X98861666Y-71096190D01*
X98480714Y-71096190D01*
X100004523Y-71572380D02*
X99433095Y-71572380D01*
X99718809Y-71572380D02*
X99718809Y-70572380D01*
X99623571Y-70715238D01*
X99528333Y-70810476D01*
X99433095Y-70858095D01*
X100337857Y-70572380D02*
X101004523Y-70572380D01*
X100575952Y-71572380D01*
X104878333Y-71572380D02*
X104306904Y-71572380D01*
X104592619Y-71572380D02*
X104592619Y-70572380D01*
X104497380Y-70715238D01*
X104402142Y-70810476D01*
X104306904Y-70858095D01*
X105259285Y-70667619D02*
X105306904Y-70620000D01*
X105402142Y-70572380D01*
X105640238Y-70572380D01*
X105735476Y-70620000D01*
X105783095Y-70667619D01*
X105830714Y-70762857D01*
X105830714Y-70858095D01*
X105783095Y-71000952D01*
X105211666Y-71572380D01*
X105830714Y-71572380D01*
X106449761Y-70572380D02*
X106545000Y-70572380D01*
X106640238Y-70620000D01*
X106687857Y-70667619D01*
X106735476Y-70762857D01*
X106783095Y-70953333D01*
X106783095Y-71191428D01*
X106735476Y-71381904D01*
X106687857Y-71477142D01*
X106640238Y-71524761D01*
X106545000Y-71572380D01*
X106449761Y-71572380D01*
X106354523Y-71524761D01*
X106306904Y-71477142D01*
X106259285Y-71381904D01*
X106211666Y-71191428D01*
X106211666Y-70953333D01*
X106259285Y-70762857D01*
X106306904Y-70667619D01*
X106354523Y-70620000D01*
X106449761Y-70572380D01*
X107783095Y-71572380D02*
X107449761Y-71096190D01*
X107211666Y-71572380D02*
X107211666Y-70572380D01*
X107592619Y-70572380D01*
X107687857Y-70620000D01*
X107735476Y-70667619D01*
X107783095Y-70762857D01*
X107783095Y-70905714D01*
X107735476Y-71000952D01*
X107687857Y-71048571D01*
X107592619Y-71096190D01*
X107211666Y-71096190D01*
X99052142Y-69032380D02*
X98718809Y-68556190D01*
X98480714Y-69032380D02*
X98480714Y-68032380D01*
X98861666Y-68032380D01*
X98956904Y-68080000D01*
X99004523Y-68127619D01*
X99052142Y-68222857D01*
X99052142Y-68365714D01*
X99004523Y-68460952D01*
X98956904Y-68508571D01*
X98861666Y-68556190D01*
X98480714Y-68556190D01*
X100004523Y-69032380D02*
X99433095Y-69032380D01*
X99718809Y-69032380D02*
X99718809Y-68032380D01*
X99623571Y-68175238D01*
X99528333Y-68270476D01*
X99433095Y-68318095D01*
X100861666Y-68032380D02*
X100671190Y-68032380D01*
X100575952Y-68080000D01*
X100528333Y-68127619D01*
X100433095Y-68270476D01*
X100385476Y-68460952D01*
X100385476Y-68841904D01*
X100433095Y-68937142D01*
X100480714Y-68984761D01*
X100575952Y-69032380D01*
X100766428Y-69032380D01*
X100861666Y-68984761D01*
X100909285Y-68937142D01*
X100956904Y-68841904D01*
X100956904Y-68603809D01*
X100909285Y-68508571D01*
X100861666Y-68460952D01*
X100766428Y-68413333D01*
X100575952Y-68413333D01*
X100480714Y-68460952D01*
X100433095Y-68508571D01*
X100385476Y-68603809D01*
X104830714Y-68032380D02*
X104354523Y-68032380D01*
X104306904Y-68508571D01*
X104354523Y-68460952D01*
X104449761Y-68413333D01*
X104687857Y-68413333D01*
X104783095Y-68460952D01*
X104830714Y-68508571D01*
X104878333Y-68603809D01*
X104878333Y-68841904D01*
X104830714Y-68937142D01*
X104783095Y-68984761D01*
X104687857Y-69032380D01*
X104449761Y-69032380D01*
X104354523Y-68984761D01*
X104306904Y-68937142D01*
X105830714Y-69032380D02*
X105259285Y-69032380D01*
X105545000Y-69032380D02*
X105545000Y-68032380D01*
X105449761Y-68175238D01*
X105354523Y-68270476D01*
X105259285Y-68318095D01*
X106449761Y-68032380D02*
X106545000Y-68032380D01*
X106640238Y-68080000D01*
X106687857Y-68127619D01*
X106735476Y-68222857D01*
X106783095Y-68413333D01*
X106783095Y-68651428D01*
X106735476Y-68841904D01*
X106687857Y-68937142D01*
X106640238Y-68984761D01*
X106545000Y-69032380D01*
X106449761Y-69032380D01*
X106354523Y-68984761D01*
X106306904Y-68937142D01*
X106259285Y-68841904D01*
X106211666Y-68651428D01*
X106211666Y-68413333D01*
X106259285Y-68222857D01*
X106306904Y-68127619D01*
X106354523Y-68080000D01*
X106449761Y-68032380D01*
X107783095Y-69032380D02*
X107449761Y-68556190D01*
X107211666Y-69032380D02*
X107211666Y-68032380D01*
X107592619Y-68032380D01*
X107687857Y-68080000D01*
X107735476Y-68127619D01*
X107783095Y-68222857D01*
X107783095Y-68365714D01*
X107735476Y-68460952D01*
X107687857Y-68508571D01*
X107592619Y-68556190D01*
X107211666Y-68556190D01*
X99052142Y-66492380D02*
X98718809Y-66016190D01*
X98480714Y-66492380D02*
X98480714Y-65492380D01*
X98861666Y-65492380D01*
X98956904Y-65540000D01*
X99004523Y-65587619D01*
X99052142Y-65682857D01*
X99052142Y-65825714D01*
X99004523Y-65920952D01*
X98956904Y-65968571D01*
X98861666Y-66016190D01*
X98480714Y-66016190D01*
X100004523Y-66492380D02*
X99433095Y-66492380D01*
X99718809Y-66492380D02*
X99718809Y-65492380D01*
X99623571Y-65635238D01*
X99528333Y-65730476D01*
X99433095Y-65778095D01*
X100909285Y-65492380D02*
X100433095Y-65492380D01*
X100385476Y-65968571D01*
X100433095Y-65920952D01*
X100528333Y-65873333D01*
X100766428Y-65873333D01*
X100861666Y-65920952D01*
X100909285Y-65968571D01*
X100956904Y-66063809D01*
X100956904Y-66301904D01*
X100909285Y-66397142D01*
X100861666Y-66444761D01*
X100766428Y-66492380D01*
X100528333Y-66492380D01*
X100433095Y-66444761D01*
X100385476Y-66397142D01*
X104306904Y-65587619D02*
X104354523Y-65540000D01*
X104449761Y-65492380D01*
X104687857Y-65492380D01*
X104783095Y-65540000D01*
X104830714Y-65587619D01*
X104878333Y-65682857D01*
X104878333Y-65778095D01*
X104830714Y-65920952D01*
X104259285Y-66492380D01*
X104878333Y-66492380D01*
X105735476Y-65492380D02*
X105545000Y-65492380D01*
X105449761Y-65540000D01*
X105402142Y-65587619D01*
X105306904Y-65730476D01*
X105259285Y-65920952D01*
X105259285Y-66301904D01*
X105306904Y-66397142D01*
X105354523Y-66444761D01*
X105449761Y-66492380D01*
X105640238Y-66492380D01*
X105735476Y-66444761D01*
X105783095Y-66397142D01*
X105830714Y-66301904D01*
X105830714Y-66063809D01*
X105783095Y-65968571D01*
X105735476Y-65920952D01*
X105640238Y-65873333D01*
X105449761Y-65873333D01*
X105354523Y-65920952D01*
X105306904Y-65968571D01*
X105259285Y-66063809D01*
X106783095Y-66492380D02*
X106211666Y-66492380D01*
X106497380Y-66492380D02*
X106497380Y-65492380D01*
X106402142Y-65635238D01*
X106306904Y-65730476D01*
X106211666Y-65778095D01*
X107783095Y-66492380D02*
X107449761Y-66016190D01*
X107211666Y-66492380D02*
X107211666Y-65492380D01*
X107592619Y-65492380D01*
X107687857Y-65540000D01*
X107735476Y-65587619D01*
X107783095Y-65682857D01*
X107783095Y-65825714D01*
X107735476Y-65920952D01*
X107687857Y-65968571D01*
X107592619Y-66016190D01*
X107211666Y-66016190D01*
X99052142Y-63952380D02*
X98718809Y-63476190D01*
X98480714Y-63952380D02*
X98480714Y-62952380D01*
X98861666Y-62952380D01*
X98956904Y-63000000D01*
X99004523Y-63047619D01*
X99052142Y-63142857D01*
X99052142Y-63285714D01*
X99004523Y-63380952D01*
X98956904Y-63428571D01*
X98861666Y-63476190D01*
X98480714Y-63476190D01*
X100004523Y-63952380D02*
X99433095Y-63952380D01*
X99718809Y-63952380D02*
X99718809Y-62952380D01*
X99623571Y-63095238D01*
X99528333Y-63190476D01*
X99433095Y-63238095D01*
X100861666Y-63285714D02*
X100861666Y-63952380D01*
X100623571Y-62904761D02*
X100385476Y-63619047D01*
X101004523Y-63619047D01*
X104878333Y-63952380D02*
X104306904Y-63952380D01*
X104592619Y-63952380D02*
X104592619Y-62952380D01*
X104497380Y-63095238D01*
X104402142Y-63190476D01*
X104306904Y-63238095D01*
X105259285Y-63047619D02*
X105306904Y-63000000D01*
X105402142Y-62952380D01*
X105640238Y-62952380D01*
X105735476Y-63000000D01*
X105783095Y-63047619D01*
X105830714Y-63142857D01*
X105830714Y-63238095D01*
X105783095Y-63380952D01*
X105211666Y-63952380D01*
X105830714Y-63952380D01*
X106449761Y-62952380D02*
X106545000Y-62952380D01*
X106640238Y-63000000D01*
X106687857Y-63047619D01*
X106735476Y-63142857D01*
X106783095Y-63333333D01*
X106783095Y-63571428D01*
X106735476Y-63761904D01*
X106687857Y-63857142D01*
X106640238Y-63904761D01*
X106545000Y-63952380D01*
X106449761Y-63952380D01*
X106354523Y-63904761D01*
X106306904Y-63857142D01*
X106259285Y-63761904D01*
X106211666Y-63571428D01*
X106211666Y-63333333D01*
X106259285Y-63142857D01*
X106306904Y-63047619D01*
X106354523Y-63000000D01*
X106449761Y-62952380D01*
X107783095Y-63952380D02*
X107449761Y-63476190D01*
X107211666Y-63952380D02*
X107211666Y-62952380D01*
X107592619Y-62952380D01*
X107687857Y-63000000D01*
X107735476Y-63047619D01*
X107783095Y-63142857D01*
X107783095Y-63285714D01*
X107735476Y-63380952D01*
X107687857Y-63428571D01*
X107592619Y-63476190D01*
X107211666Y-63476190D01*
X99052142Y-61412380D02*
X98718809Y-60936190D01*
X98480714Y-61412380D02*
X98480714Y-60412380D01*
X98861666Y-60412380D01*
X98956904Y-60460000D01*
X99004523Y-60507619D01*
X99052142Y-60602857D01*
X99052142Y-60745714D01*
X99004523Y-60840952D01*
X98956904Y-60888571D01*
X98861666Y-60936190D01*
X98480714Y-60936190D01*
X100004523Y-61412380D02*
X99433095Y-61412380D01*
X99718809Y-61412380D02*
X99718809Y-60412380D01*
X99623571Y-60555238D01*
X99528333Y-60650476D01*
X99433095Y-60698095D01*
X100337857Y-60412380D02*
X100956904Y-60412380D01*
X100623571Y-60793333D01*
X100766428Y-60793333D01*
X100861666Y-60840952D01*
X100909285Y-60888571D01*
X100956904Y-60983809D01*
X100956904Y-61221904D01*
X100909285Y-61317142D01*
X100861666Y-61364761D01*
X100766428Y-61412380D01*
X100480714Y-61412380D01*
X100385476Y-61364761D01*
X100337857Y-61317142D01*
X104830714Y-60412380D02*
X104354523Y-60412380D01*
X104306904Y-60888571D01*
X104354523Y-60840952D01*
X104449761Y-60793333D01*
X104687857Y-60793333D01*
X104783095Y-60840952D01*
X104830714Y-60888571D01*
X104878333Y-60983809D01*
X104878333Y-61221904D01*
X104830714Y-61317142D01*
X104783095Y-61364761D01*
X104687857Y-61412380D01*
X104449761Y-61412380D01*
X104354523Y-61364761D01*
X104306904Y-61317142D01*
X105830714Y-61412380D02*
X105259285Y-61412380D01*
X105545000Y-61412380D02*
X105545000Y-60412380D01*
X105449761Y-60555238D01*
X105354523Y-60650476D01*
X105259285Y-60698095D01*
X106449761Y-60412380D02*
X106545000Y-60412380D01*
X106640238Y-60460000D01*
X106687857Y-60507619D01*
X106735476Y-60602857D01*
X106783095Y-60793333D01*
X106783095Y-61031428D01*
X106735476Y-61221904D01*
X106687857Y-61317142D01*
X106640238Y-61364761D01*
X106545000Y-61412380D01*
X106449761Y-61412380D01*
X106354523Y-61364761D01*
X106306904Y-61317142D01*
X106259285Y-61221904D01*
X106211666Y-61031428D01*
X106211666Y-60793333D01*
X106259285Y-60602857D01*
X106306904Y-60507619D01*
X106354523Y-60460000D01*
X106449761Y-60412380D01*
X107783095Y-61412380D02*
X107449761Y-60936190D01*
X107211666Y-61412380D02*
X107211666Y-60412380D01*
X107592619Y-60412380D01*
X107687857Y-60460000D01*
X107735476Y-60507619D01*
X107783095Y-60602857D01*
X107783095Y-60745714D01*
X107735476Y-60840952D01*
X107687857Y-60888571D01*
X107592619Y-60936190D01*
X107211666Y-60936190D01*
X99052142Y-58872380D02*
X98718809Y-58396190D01*
X98480714Y-58872380D02*
X98480714Y-57872380D01*
X98861666Y-57872380D01*
X98956904Y-57920000D01*
X99004523Y-57967619D01*
X99052142Y-58062857D01*
X99052142Y-58205714D01*
X99004523Y-58300952D01*
X98956904Y-58348571D01*
X98861666Y-58396190D01*
X98480714Y-58396190D01*
X100004523Y-58872380D02*
X99433095Y-58872380D01*
X99718809Y-58872380D02*
X99718809Y-57872380D01*
X99623571Y-58015238D01*
X99528333Y-58110476D01*
X99433095Y-58158095D01*
X100385476Y-57967619D02*
X100433095Y-57920000D01*
X100528333Y-57872380D01*
X100766428Y-57872380D01*
X100861666Y-57920000D01*
X100909285Y-57967619D01*
X100956904Y-58062857D01*
X100956904Y-58158095D01*
X100909285Y-58300952D01*
X100337857Y-58872380D01*
X100956904Y-58872380D01*
X104306904Y-57967619D02*
X104354523Y-57920000D01*
X104449761Y-57872380D01*
X104687857Y-57872380D01*
X104783095Y-57920000D01*
X104830714Y-57967619D01*
X104878333Y-58062857D01*
X104878333Y-58158095D01*
X104830714Y-58300952D01*
X104259285Y-58872380D01*
X104878333Y-58872380D01*
X105735476Y-57872380D02*
X105545000Y-57872380D01*
X105449761Y-57920000D01*
X105402142Y-57967619D01*
X105306904Y-58110476D01*
X105259285Y-58300952D01*
X105259285Y-58681904D01*
X105306904Y-58777142D01*
X105354523Y-58824761D01*
X105449761Y-58872380D01*
X105640238Y-58872380D01*
X105735476Y-58824761D01*
X105783095Y-58777142D01*
X105830714Y-58681904D01*
X105830714Y-58443809D01*
X105783095Y-58348571D01*
X105735476Y-58300952D01*
X105640238Y-58253333D01*
X105449761Y-58253333D01*
X105354523Y-58300952D01*
X105306904Y-58348571D01*
X105259285Y-58443809D01*
X106783095Y-58872380D02*
X106211666Y-58872380D01*
X106497380Y-58872380D02*
X106497380Y-57872380D01*
X106402142Y-58015238D01*
X106306904Y-58110476D01*
X106211666Y-58158095D01*
X107783095Y-58872380D02*
X107449761Y-58396190D01*
X107211666Y-58872380D02*
X107211666Y-57872380D01*
X107592619Y-57872380D01*
X107687857Y-57920000D01*
X107735476Y-57967619D01*
X107783095Y-58062857D01*
X107783095Y-58205714D01*
X107735476Y-58300952D01*
X107687857Y-58348571D01*
X107592619Y-58396190D01*
X107211666Y-58396190D01*
X99052142Y-56332380D02*
X98718809Y-55856190D01*
X98480714Y-56332380D02*
X98480714Y-55332380D01*
X98861666Y-55332380D01*
X98956904Y-55380000D01*
X99004523Y-55427619D01*
X99052142Y-55522857D01*
X99052142Y-55665714D01*
X99004523Y-55760952D01*
X98956904Y-55808571D01*
X98861666Y-55856190D01*
X98480714Y-55856190D01*
X100004523Y-56332380D02*
X99433095Y-56332380D01*
X99718809Y-56332380D02*
X99718809Y-55332380D01*
X99623571Y-55475238D01*
X99528333Y-55570476D01*
X99433095Y-55618095D01*
X100956904Y-56332380D02*
X100385476Y-56332380D01*
X100671190Y-56332380D02*
X100671190Y-55332380D01*
X100575952Y-55475238D01*
X100480714Y-55570476D01*
X100385476Y-55618095D01*
X104878333Y-56332380D02*
X104306904Y-56332380D01*
X104592619Y-56332380D02*
X104592619Y-55332380D01*
X104497380Y-55475238D01*
X104402142Y-55570476D01*
X104306904Y-55618095D01*
X105259285Y-55427619D02*
X105306904Y-55380000D01*
X105402142Y-55332380D01*
X105640238Y-55332380D01*
X105735476Y-55380000D01*
X105783095Y-55427619D01*
X105830714Y-55522857D01*
X105830714Y-55618095D01*
X105783095Y-55760952D01*
X105211666Y-56332380D01*
X105830714Y-56332380D01*
X106449761Y-55332380D02*
X106545000Y-55332380D01*
X106640238Y-55380000D01*
X106687857Y-55427619D01*
X106735476Y-55522857D01*
X106783095Y-55713333D01*
X106783095Y-55951428D01*
X106735476Y-56141904D01*
X106687857Y-56237142D01*
X106640238Y-56284761D01*
X106545000Y-56332380D01*
X106449761Y-56332380D01*
X106354523Y-56284761D01*
X106306904Y-56237142D01*
X106259285Y-56141904D01*
X106211666Y-55951428D01*
X106211666Y-55713333D01*
X106259285Y-55522857D01*
X106306904Y-55427619D01*
X106354523Y-55380000D01*
X106449761Y-55332380D01*
X107783095Y-56332380D02*
X107449761Y-55856190D01*
X107211666Y-56332380D02*
X107211666Y-55332380D01*
X107592619Y-55332380D01*
X107687857Y-55380000D01*
X107735476Y-55427619D01*
X107783095Y-55522857D01*
X107783095Y-55665714D01*
X107735476Y-55760952D01*
X107687857Y-55808571D01*
X107592619Y-55856190D01*
X107211666Y-55856190D01*
X99052142Y-53792380D02*
X98718809Y-53316190D01*
X98480714Y-53792380D02*
X98480714Y-52792380D01*
X98861666Y-52792380D01*
X98956904Y-52840000D01*
X99004523Y-52887619D01*
X99052142Y-52982857D01*
X99052142Y-53125714D01*
X99004523Y-53220952D01*
X98956904Y-53268571D01*
X98861666Y-53316190D01*
X98480714Y-53316190D01*
X100004523Y-53792380D02*
X99433095Y-53792380D01*
X99718809Y-53792380D02*
X99718809Y-52792380D01*
X99623571Y-52935238D01*
X99528333Y-53030476D01*
X99433095Y-53078095D01*
X100623571Y-52792380D02*
X100718809Y-52792380D01*
X100814047Y-52840000D01*
X100861666Y-52887619D01*
X100909285Y-52982857D01*
X100956904Y-53173333D01*
X100956904Y-53411428D01*
X100909285Y-53601904D01*
X100861666Y-53697142D01*
X100814047Y-53744761D01*
X100718809Y-53792380D01*
X100623571Y-53792380D01*
X100528333Y-53744761D01*
X100480714Y-53697142D01*
X100433095Y-53601904D01*
X100385476Y-53411428D01*
X100385476Y-53173333D01*
X100433095Y-52982857D01*
X100480714Y-52887619D01*
X100528333Y-52840000D01*
X100623571Y-52792380D01*
X104830714Y-52792380D02*
X104354523Y-52792380D01*
X104306904Y-53268571D01*
X104354523Y-53220952D01*
X104449761Y-53173333D01*
X104687857Y-53173333D01*
X104783095Y-53220952D01*
X104830714Y-53268571D01*
X104878333Y-53363809D01*
X104878333Y-53601904D01*
X104830714Y-53697142D01*
X104783095Y-53744761D01*
X104687857Y-53792380D01*
X104449761Y-53792380D01*
X104354523Y-53744761D01*
X104306904Y-53697142D01*
X105830714Y-53792380D02*
X105259285Y-53792380D01*
X105545000Y-53792380D02*
X105545000Y-52792380D01*
X105449761Y-52935238D01*
X105354523Y-53030476D01*
X105259285Y-53078095D01*
X106449761Y-52792380D02*
X106545000Y-52792380D01*
X106640238Y-52840000D01*
X106687857Y-52887619D01*
X106735476Y-52982857D01*
X106783095Y-53173333D01*
X106783095Y-53411428D01*
X106735476Y-53601904D01*
X106687857Y-53697142D01*
X106640238Y-53744761D01*
X106545000Y-53792380D01*
X106449761Y-53792380D01*
X106354523Y-53744761D01*
X106306904Y-53697142D01*
X106259285Y-53601904D01*
X106211666Y-53411428D01*
X106211666Y-53173333D01*
X106259285Y-52982857D01*
X106306904Y-52887619D01*
X106354523Y-52840000D01*
X106449761Y-52792380D01*
X107783095Y-53792380D02*
X107449761Y-53316190D01*
X107211666Y-53792380D02*
X107211666Y-52792380D01*
X107592619Y-52792380D01*
X107687857Y-52840000D01*
X107735476Y-52887619D01*
X107783095Y-52982857D01*
X107783095Y-53125714D01*
X107735476Y-53220952D01*
X107687857Y-53268571D01*
X107592619Y-53316190D01*
X107211666Y-53316190D01*
X99528333Y-51252380D02*
X99195000Y-50776190D01*
X98956904Y-51252380D02*
X98956904Y-50252380D01*
X99337857Y-50252380D01*
X99433095Y-50300000D01*
X99480714Y-50347619D01*
X99528333Y-50442857D01*
X99528333Y-50585714D01*
X99480714Y-50680952D01*
X99433095Y-50728571D01*
X99337857Y-50776190D01*
X98956904Y-50776190D01*
X100004523Y-51252380D02*
X100195000Y-51252380D01*
X100290238Y-51204761D01*
X100337857Y-51157142D01*
X100433095Y-51014285D01*
X100480714Y-50823809D01*
X100480714Y-50442857D01*
X100433095Y-50347619D01*
X100385476Y-50300000D01*
X100290238Y-50252380D01*
X100099761Y-50252380D01*
X100004523Y-50300000D01*
X99956904Y-50347619D01*
X99909285Y-50442857D01*
X99909285Y-50680952D01*
X99956904Y-50776190D01*
X100004523Y-50823809D01*
X100099761Y-50871428D01*
X100290238Y-50871428D01*
X100385476Y-50823809D01*
X100433095Y-50776190D01*
X100480714Y-50680952D01*
X104306904Y-50347619D02*
X104354523Y-50300000D01*
X104449761Y-50252380D01*
X104687857Y-50252380D01*
X104783095Y-50300000D01*
X104830714Y-50347619D01*
X104878333Y-50442857D01*
X104878333Y-50538095D01*
X104830714Y-50680952D01*
X104259285Y-51252380D01*
X104878333Y-51252380D01*
X105735476Y-50252380D02*
X105545000Y-50252380D01*
X105449761Y-50300000D01*
X105402142Y-50347619D01*
X105306904Y-50490476D01*
X105259285Y-50680952D01*
X105259285Y-51061904D01*
X105306904Y-51157142D01*
X105354523Y-51204761D01*
X105449761Y-51252380D01*
X105640238Y-51252380D01*
X105735476Y-51204761D01*
X105783095Y-51157142D01*
X105830714Y-51061904D01*
X105830714Y-50823809D01*
X105783095Y-50728571D01*
X105735476Y-50680952D01*
X105640238Y-50633333D01*
X105449761Y-50633333D01*
X105354523Y-50680952D01*
X105306904Y-50728571D01*
X105259285Y-50823809D01*
X106783095Y-51252380D02*
X106211666Y-51252380D01*
X106497380Y-51252380D02*
X106497380Y-50252380D01*
X106402142Y-50395238D01*
X106306904Y-50490476D01*
X106211666Y-50538095D01*
X107783095Y-51252380D02*
X107449761Y-50776190D01*
X107211666Y-51252380D02*
X107211666Y-50252380D01*
X107592619Y-50252380D01*
X107687857Y-50300000D01*
X107735476Y-50347619D01*
X107783095Y-50442857D01*
X107783095Y-50585714D01*
X107735476Y-50680952D01*
X107687857Y-50728571D01*
X107592619Y-50776190D01*
X107211666Y-50776190D01*
X99528333Y-48712380D02*
X99195000Y-48236190D01*
X98956904Y-48712380D02*
X98956904Y-47712380D01*
X99337857Y-47712380D01*
X99433095Y-47760000D01*
X99480714Y-47807619D01*
X99528333Y-47902857D01*
X99528333Y-48045714D01*
X99480714Y-48140952D01*
X99433095Y-48188571D01*
X99337857Y-48236190D01*
X98956904Y-48236190D01*
X100099761Y-48140952D02*
X100004523Y-48093333D01*
X99956904Y-48045714D01*
X99909285Y-47950476D01*
X99909285Y-47902857D01*
X99956904Y-47807619D01*
X100004523Y-47760000D01*
X100099761Y-47712380D01*
X100290238Y-47712380D01*
X100385476Y-47760000D01*
X100433095Y-47807619D01*
X100480714Y-47902857D01*
X100480714Y-47950476D01*
X100433095Y-48045714D01*
X100385476Y-48093333D01*
X100290238Y-48140952D01*
X100099761Y-48140952D01*
X100004523Y-48188571D01*
X99956904Y-48236190D01*
X99909285Y-48331428D01*
X99909285Y-48521904D01*
X99956904Y-48617142D01*
X100004523Y-48664761D01*
X100099761Y-48712380D01*
X100290238Y-48712380D01*
X100385476Y-48664761D01*
X100433095Y-48617142D01*
X100480714Y-48521904D01*
X100480714Y-48331428D01*
X100433095Y-48236190D01*
X100385476Y-48188571D01*
X100290238Y-48140952D01*
X105354523Y-48045714D02*
X105354523Y-48712380D01*
X105116428Y-47664761D02*
X104878333Y-48379047D01*
X105497380Y-48379047D01*
X105783095Y-47712380D02*
X106449761Y-47712380D01*
X106021190Y-48712380D01*
X106830714Y-48712380D02*
X106830714Y-47712380D01*
X106925952Y-48331428D02*
X107211666Y-48712380D01*
X107211666Y-48045714D02*
X106830714Y-48426666D01*
X99528333Y-46172380D02*
X99195000Y-45696190D01*
X98956904Y-46172380D02*
X98956904Y-45172380D01*
X99337857Y-45172380D01*
X99433095Y-45220000D01*
X99480714Y-45267619D01*
X99528333Y-45362857D01*
X99528333Y-45505714D01*
X99480714Y-45600952D01*
X99433095Y-45648571D01*
X99337857Y-45696190D01*
X98956904Y-45696190D01*
X99861666Y-45172380D02*
X100528333Y-45172380D01*
X100099761Y-46172380D01*
X105259285Y-45505714D02*
X105259285Y-46172380D01*
X105021190Y-45124761D02*
X104783095Y-45839047D01*
X105402142Y-45839047D01*
X105687857Y-45172380D02*
X106354523Y-45172380D01*
X105925952Y-46172380D01*
X107306904Y-46172380D02*
X106973571Y-45696190D01*
X106735476Y-46172380D02*
X106735476Y-45172380D01*
X107116428Y-45172380D01*
X107211666Y-45220000D01*
X107259285Y-45267619D01*
X107306904Y-45362857D01*
X107306904Y-45505714D01*
X107259285Y-45600952D01*
X107211666Y-45648571D01*
X107116428Y-45696190D01*
X106735476Y-45696190D01*
X99528333Y-43632380D02*
X99195000Y-43156190D01*
X98956904Y-43632380D02*
X98956904Y-42632380D01*
X99337857Y-42632380D01*
X99433095Y-42680000D01*
X99480714Y-42727619D01*
X99528333Y-42822857D01*
X99528333Y-42965714D01*
X99480714Y-43060952D01*
X99433095Y-43108571D01*
X99337857Y-43156190D01*
X98956904Y-43156190D01*
X100385476Y-42632380D02*
X100195000Y-42632380D01*
X100099761Y-42680000D01*
X100052142Y-42727619D01*
X99956904Y-42870476D01*
X99909285Y-43060952D01*
X99909285Y-43441904D01*
X99956904Y-43537142D01*
X100004523Y-43584761D01*
X100099761Y-43632380D01*
X100290238Y-43632380D01*
X100385476Y-43584761D01*
X100433095Y-43537142D01*
X100480714Y-43441904D01*
X100480714Y-43203809D01*
X100433095Y-43108571D01*
X100385476Y-43060952D01*
X100290238Y-43013333D01*
X100099761Y-43013333D01*
X100004523Y-43060952D01*
X99956904Y-43108571D01*
X99909285Y-43203809D01*
X105259285Y-42965714D02*
X105259285Y-43632380D01*
X105021190Y-42584761D02*
X104783095Y-43299047D01*
X105402142Y-43299047D01*
X105687857Y-42632380D02*
X106354523Y-42632380D01*
X105925952Y-43632380D01*
X107306904Y-43632380D02*
X106973571Y-43156190D01*
X106735476Y-43632380D02*
X106735476Y-42632380D01*
X107116428Y-42632380D01*
X107211666Y-42680000D01*
X107259285Y-42727619D01*
X107306904Y-42822857D01*
X107306904Y-42965714D01*
X107259285Y-43060952D01*
X107211666Y-43108571D01*
X107116428Y-43156190D01*
X106735476Y-43156190D01*
X101036380Y-40806666D02*
X100560190Y-41140000D01*
X101036380Y-41378095D02*
X100036380Y-41378095D01*
X100036380Y-40997142D01*
X100084000Y-40901904D01*
X100131619Y-40854285D01*
X100226857Y-40806666D01*
X100369714Y-40806666D01*
X100464952Y-40854285D01*
X100512571Y-40901904D01*
X100560190Y-40997142D01*
X100560190Y-41378095D01*
X100036380Y-39901904D02*
X100036380Y-40378095D01*
X100512571Y-40425714D01*
X100464952Y-40378095D01*
X100417333Y-40282857D01*
X100417333Y-40044761D01*
X100464952Y-39949523D01*
X100512571Y-39901904D01*
X100607809Y-39854285D01*
X100845904Y-39854285D01*
X100941142Y-39901904D01*
X100988761Y-39949523D01*
X101036380Y-40044761D01*
X101036380Y-40282857D01*
X100988761Y-40378095D01*
X100941142Y-40425714D01*
X105354523Y-40425714D02*
X105354523Y-41092380D01*
X105116428Y-40044761D02*
X104878333Y-40759047D01*
X105497380Y-40759047D01*
X105783095Y-40092380D02*
X106449761Y-40092380D01*
X106021190Y-41092380D01*
X106830714Y-41092380D02*
X106830714Y-40092380D01*
X106925952Y-40711428D02*
X107211666Y-41092380D01*
X107211666Y-40425714D02*
X106830714Y-40806666D01*
X86828333Y-39187380D02*
X86495000Y-38711190D01*
X86256904Y-39187380D02*
X86256904Y-38187380D01*
X86637857Y-38187380D01*
X86733095Y-38235000D01*
X86780714Y-38282619D01*
X86828333Y-38377857D01*
X86828333Y-38520714D01*
X86780714Y-38615952D01*
X86733095Y-38663571D01*
X86637857Y-38711190D01*
X86256904Y-38711190D01*
X87685476Y-38520714D02*
X87685476Y-39187380D01*
X87447380Y-38139761D02*
X87209285Y-38854047D01*
X87828333Y-38854047D01*
X87447380Y-45045238D02*
X87447380Y-45616666D01*
X87447380Y-45330952D02*
X86447380Y-45330952D01*
X86590238Y-45426190D01*
X86685476Y-45521428D01*
X86733095Y-45616666D01*
X86447380Y-44426190D02*
X86447380Y-44330952D01*
X86495000Y-44235714D01*
X86542619Y-44188095D01*
X86637857Y-44140476D01*
X86828333Y-44092857D01*
X87066428Y-44092857D01*
X87256904Y-44140476D01*
X87352142Y-44188095D01*
X87399761Y-44235714D01*
X87447380Y-44330952D01*
X87447380Y-44426190D01*
X87399761Y-44521428D01*
X87352142Y-44569047D01*
X87256904Y-44616666D01*
X87066428Y-44664285D01*
X86828333Y-44664285D01*
X86637857Y-44616666D01*
X86542619Y-44569047D01*
X86495000Y-44521428D01*
X86447380Y-44426190D01*
X87447380Y-43664285D02*
X86447380Y-43664285D01*
X87066428Y-43569047D02*
X87447380Y-43283333D01*
X86780714Y-43283333D02*
X87161666Y-43664285D01*
X84288333Y-39187380D02*
X83955000Y-38711190D01*
X83716904Y-39187380D02*
X83716904Y-38187380D01*
X84097857Y-38187380D01*
X84193095Y-38235000D01*
X84240714Y-38282619D01*
X84288333Y-38377857D01*
X84288333Y-38520714D01*
X84240714Y-38615952D01*
X84193095Y-38663571D01*
X84097857Y-38711190D01*
X83716904Y-38711190D01*
X84621666Y-38187380D02*
X85240714Y-38187380D01*
X84907380Y-38568333D01*
X85050238Y-38568333D01*
X85145476Y-38615952D01*
X85193095Y-38663571D01*
X85240714Y-38758809D01*
X85240714Y-38996904D01*
X85193095Y-39092142D01*
X85145476Y-39139761D01*
X85050238Y-39187380D01*
X84764523Y-39187380D01*
X84669285Y-39139761D01*
X84621666Y-39092142D01*
X84240714Y-45140476D02*
X84907380Y-45140476D01*
X83859761Y-45378571D02*
X84574047Y-45616666D01*
X84574047Y-44997619D01*
X84907380Y-44616666D02*
X83907380Y-44616666D01*
X84526428Y-44521428D02*
X84907380Y-44235714D01*
X84240714Y-44235714D02*
X84621666Y-44616666D01*
X83907380Y-43902380D02*
X83907380Y-43235714D01*
X84907380Y-43664285D01*
X81748333Y-39187380D02*
X81415000Y-38711190D01*
X81176904Y-39187380D02*
X81176904Y-38187380D01*
X81557857Y-38187380D01*
X81653095Y-38235000D01*
X81700714Y-38282619D01*
X81748333Y-38377857D01*
X81748333Y-38520714D01*
X81700714Y-38615952D01*
X81653095Y-38663571D01*
X81557857Y-38711190D01*
X81176904Y-38711190D01*
X82129285Y-38282619D02*
X82176904Y-38235000D01*
X82272142Y-38187380D01*
X82510238Y-38187380D01*
X82605476Y-38235000D01*
X82653095Y-38282619D01*
X82700714Y-38377857D01*
X82700714Y-38473095D01*
X82653095Y-38615952D01*
X82081666Y-39187380D01*
X82700714Y-39187380D01*
X81700714Y-45140476D02*
X82367380Y-45140476D01*
X81319761Y-45378571D02*
X82034047Y-45616666D01*
X82034047Y-44997619D01*
X82367380Y-44616666D02*
X81367380Y-44616666D01*
X81986428Y-44521428D02*
X82367380Y-44235714D01*
X81700714Y-44235714D02*
X82081666Y-44616666D01*
X81367380Y-43902380D02*
X81367380Y-43235714D01*
X82367380Y-43664285D01*
X40473333Y-37917380D02*
X40140000Y-37441190D01*
X39901904Y-37917380D02*
X39901904Y-36917380D01*
X40282857Y-36917380D01*
X40378095Y-36965000D01*
X40425714Y-37012619D01*
X40473333Y-37107857D01*
X40473333Y-37250714D01*
X40425714Y-37345952D01*
X40378095Y-37393571D01*
X40282857Y-37441190D01*
X39901904Y-37441190D01*
X41425714Y-37917380D02*
X40854285Y-37917380D01*
X41140000Y-37917380D02*
X41140000Y-36917380D01*
X41044761Y-37060238D01*
X40949523Y-37155476D01*
X40854285Y-37203095D01*
X41092380Y-43775238D02*
X41092380Y-44346666D01*
X41092380Y-44060952D02*
X40092380Y-44060952D01*
X40235238Y-44156190D01*
X40330476Y-44251428D01*
X40378095Y-44346666D01*
X40092380Y-43156190D02*
X40092380Y-43060952D01*
X40140000Y-42965714D01*
X40187619Y-42918095D01*
X40282857Y-42870476D01*
X40473333Y-42822857D01*
X40711428Y-42822857D01*
X40901904Y-42870476D01*
X40997142Y-42918095D01*
X41044761Y-42965714D01*
X41092380Y-43060952D01*
X41092380Y-43156190D01*
X41044761Y-43251428D01*
X40997142Y-43299047D01*
X40901904Y-43346666D01*
X40711428Y-43394285D01*
X40473333Y-43394285D01*
X40282857Y-43346666D01*
X40187619Y-43299047D01*
X40140000Y-43251428D01*
X40092380Y-43156190D01*
X41092380Y-42394285D02*
X40092380Y-42394285D01*
X40711428Y-42299047D02*
X41092380Y-42013333D01*
X40425714Y-42013333D02*
X40806666Y-42394285D01*
X112990380Y-63579333D02*
X113704666Y-63579333D01*
X113847523Y-63626952D01*
X113942761Y-63722190D01*
X113990380Y-63865047D01*
X113990380Y-63960285D01*
X112990380Y-62674571D02*
X112990380Y-62865047D01*
X113038000Y-62960285D01*
X113085619Y-63007904D01*
X113228476Y-63103142D01*
X113418952Y-63150761D01*
X113799904Y-63150761D01*
X113895142Y-63103142D01*
X113942761Y-63055523D01*
X113990380Y-62960285D01*
X113990380Y-62769809D01*
X113942761Y-62674571D01*
X113895142Y-62626952D01*
X113799904Y-62579333D01*
X113561809Y-62579333D01*
X113466571Y-62626952D01*
X113418952Y-62674571D01*
X113371333Y-62769809D01*
X113371333Y-62960285D01*
X113418952Y-63055523D01*
X113466571Y-63103142D01*
X113561809Y-63150761D01*
X123198095Y-79462380D02*
X123531428Y-80462380D01*
X123864761Y-79462380D01*
X124721904Y-79510000D02*
X124626666Y-79462380D01*
X124483809Y-79462380D01*
X124340952Y-79510000D01*
X124245714Y-79605238D01*
X124198095Y-79700476D01*
X124150476Y-79890952D01*
X124150476Y-80033809D01*
X124198095Y-80224285D01*
X124245714Y-80319523D01*
X124340952Y-80414761D01*
X124483809Y-80462380D01*
X124579047Y-80462380D01*
X124721904Y-80414761D01*
X124769523Y-80367142D01*
X124769523Y-80033809D01*
X124579047Y-80033809D01*
X125150476Y-80176666D02*
X125626666Y-80176666D01*
X125055238Y-80462380D02*
X125388571Y-79462380D01*
X125721904Y-80462380D01*
X33742380Y-86693333D02*
X34456666Y-86693333D01*
X34599523Y-86740952D01*
X34694761Y-86836190D01*
X34742380Y-86979047D01*
X34742380Y-87074285D01*
X33742380Y-86312380D02*
X33742380Y-85693333D01*
X34123333Y-86026666D01*
X34123333Y-85883809D01*
X34170952Y-85788571D01*
X34218571Y-85740952D01*
X34313809Y-85693333D01*
X34551904Y-85693333D01*
X34647142Y-85740952D01*
X34694761Y-85788571D01*
X34742380Y-85883809D01*
X34742380Y-86169523D01*
X34694761Y-86264761D01*
X34647142Y-86312380D01*
X27083333Y-88352380D02*
X27654761Y-88352380D01*
X27369047Y-89352380D02*
X27369047Y-88352380D01*
X28130952Y-89352380D02*
X28035714Y-89304761D01*
X27988095Y-89257142D01*
X27940476Y-89161904D01*
X27940476Y-88876190D01*
X27988095Y-88780952D01*
X28035714Y-88733333D01*
X28130952Y-88685714D01*
X28273809Y-88685714D01*
X28369047Y-88733333D01*
X28416666Y-88780952D01*
X28464285Y-88876190D01*
X28464285Y-89161904D01*
X28416666Y-89257142D01*
X28369047Y-89304761D01*
X28273809Y-89352380D01*
X28130952Y-89352380D01*
X30226190Y-89257142D02*
X30178571Y-89304761D01*
X30035714Y-89352380D01*
X29940476Y-89352380D01*
X29797619Y-89304761D01*
X29702380Y-89209523D01*
X29654761Y-89114285D01*
X29607142Y-88923809D01*
X29607142Y-88780952D01*
X29654761Y-88590476D01*
X29702380Y-88495238D01*
X29797619Y-88400000D01*
X29940476Y-88352380D01*
X30035714Y-88352380D01*
X30178571Y-88400000D01*
X30226190Y-88447619D01*
X30797619Y-89352380D02*
X30702380Y-89304761D01*
X30654761Y-89257142D01*
X30607142Y-89161904D01*
X30607142Y-88876190D01*
X30654761Y-88780952D01*
X30702380Y-88733333D01*
X30797619Y-88685714D01*
X30940476Y-88685714D01*
X31035714Y-88733333D01*
X31083333Y-88780952D01*
X31130952Y-88876190D01*
X31130952Y-89161904D01*
X31083333Y-89257142D01*
X31035714Y-89304761D01*
X30940476Y-89352380D01*
X30797619Y-89352380D01*
X31559523Y-89352380D02*
X31559523Y-88685714D01*
X31559523Y-88780952D02*
X31607142Y-88733333D01*
X31702380Y-88685714D01*
X31845238Y-88685714D01*
X31940476Y-88733333D01*
X31988095Y-88828571D01*
X31988095Y-89352380D01*
X31988095Y-88828571D02*
X32035714Y-88733333D01*
X32130952Y-88685714D01*
X32273809Y-88685714D01*
X32369047Y-88733333D01*
X32416666Y-88828571D01*
X32416666Y-89352380D01*
X32892857Y-88685714D02*
X32892857Y-89685714D01*
X32892857Y-88733333D02*
X32988095Y-88685714D01*
X33178571Y-88685714D01*
X33273809Y-88733333D01*
X33321428Y-88780952D01*
X33369047Y-88876190D01*
X33369047Y-89161904D01*
X33321428Y-89257142D01*
X33273809Y-89304761D01*
X33178571Y-89352380D01*
X32988095Y-89352380D01*
X32892857Y-89304761D01*
X34226190Y-88685714D02*
X34226190Y-89352380D01*
X33797619Y-88685714D02*
X33797619Y-89209523D01*
X33845238Y-89304761D01*
X33940476Y-89352380D01*
X34083333Y-89352380D01*
X34178571Y-89304761D01*
X34226190Y-89257142D01*
X34559523Y-88685714D02*
X34940476Y-88685714D01*
X34702380Y-88352380D02*
X34702380Y-89209523D01*
X34750000Y-89304761D01*
X34845238Y-89352380D01*
X34940476Y-89352380D01*
X35654761Y-89304761D02*
X35559523Y-89352380D01*
X35369047Y-89352380D01*
X35273809Y-89304761D01*
X35226190Y-89209523D01*
X35226190Y-88828571D01*
X35273809Y-88733333D01*
X35369047Y-88685714D01*
X35559523Y-88685714D01*
X35654761Y-88733333D01*
X35702380Y-88828571D01*
X35702380Y-88923809D01*
X35226190Y-89019047D01*
X36130952Y-89352380D02*
X36130952Y-88685714D01*
X36130952Y-88876190D02*
X36178571Y-88780952D01*
X36226190Y-88733333D01*
X36321428Y-88685714D01*
X36416666Y-88685714D01*
X110132761Y-86423333D02*
X110180380Y-86280476D01*
X110180380Y-86042380D01*
X110132761Y-85947142D01*
X110085142Y-85899523D01*
X109989904Y-85851904D01*
X109894666Y-85851904D01*
X109799428Y-85899523D01*
X109751809Y-85947142D01*
X109704190Y-86042380D01*
X109656571Y-86232857D01*
X109608952Y-86328095D01*
X109561333Y-86375714D01*
X109466095Y-86423333D01*
X109370857Y-86423333D01*
X109275619Y-86375714D01*
X109228000Y-86328095D01*
X109180380Y-86232857D01*
X109180380Y-85994761D01*
X109228000Y-85851904D01*
X109180380Y-85518571D02*
X110180380Y-85280476D01*
X109466095Y-85090000D01*
X110180380Y-84899523D01*
X109180380Y-84661428D01*
X110180380Y-83756666D02*
X110180380Y-84328095D01*
X110180380Y-84042380D02*
X109180380Y-84042380D01*
X109323238Y-84137619D01*
X109418476Y-84232857D01*
X109466095Y-84328095D01*
X121531309Y-89352380D02*
X121531309Y-88352380D01*
X121912261Y-88352380D01*
X122007500Y-88400000D01*
X122055119Y-88447619D01*
X122102738Y-88542857D01*
X122102738Y-88685714D01*
X122055119Y-88780952D01*
X122007500Y-88828571D01*
X121912261Y-88876190D01*
X121531309Y-88876190D01*
X122674166Y-89352380D02*
X122578928Y-89304761D01*
X122531309Y-89257142D01*
X122483690Y-89161904D01*
X122483690Y-88876190D01*
X122531309Y-88780952D01*
X122578928Y-88733333D01*
X122674166Y-88685714D01*
X122817023Y-88685714D01*
X122912261Y-88733333D01*
X122959880Y-88780952D01*
X123007500Y-88876190D01*
X123007500Y-89161904D01*
X122959880Y-89257142D01*
X122912261Y-89304761D01*
X122817023Y-89352380D01*
X122674166Y-89352380D01*
X123340833Y-88685714D02*
X123531309Y-89352380D01*
X123721785Y-88876190D01*
X123912261Y-89352380D01*
X124102738Y-88685714D01*
X124864642Y-89304761D02*
X124769404Y-89352380D01*
X124578928Y-89352380D01*
X124483690Y-89304761D01*
X124436071Y-89209523D01*
X124436071Y-88828571D01*
X124483690Y-88733333D01*
X124578928Y-88685714D01*
X124769404Y-88685714D01*
X124864642Y-88733333D01*
X124912261Y-88828571D01*
X124912261Y-88923809D01*
X124436071Y-89019047D01*
X125340833Y-89352380D02*
X125340833Y-88685714D01*
X125340833Y-88876190D02*
X125388452Y-88780952D01*
X125436071Y-88733333D01*
X125531309Y-88685714D01*
X125626547Y-88685714D01*
X43688095Y-55542380D02*
X43688095Y-56351904D01*
X43735714Y-56447142D01*
X43783333Y-56494761D01*
X43878571Y-56542380D01*
X44069047Y-56542380D01*
X44164285Y-56494761D01*
X44211904Y-56447142D01*
X44259523Y-56351904D01*
X44259523Y-55542380D01*
X45164285Y-55875714D02*
X45164285Y-56542380D01*
X44926190Y-55494761D02*
X44688095Y-56209047D01*
X45307142Y-56209047D01*
X93853095Y-30142380D02*
X93853095Y-30951904D01*
X93900714Y-31047142D01*
X93948333Y-31094761D01*
X94043571Y-31142380D01*
X94234047Y-31142380D01*
X94329285Y-31094761D01*
X94376904Y-31047142D01*
X94424523Y-30951904D01*
X94424523Y-30142380D01*
X94853095Y-30237619D02*
X94900714Y-30190000D01*
X94995952Y-30142380D01*
X95234047Y-30142380D01*
X95329285Y-30190000D01*
X95376904Y-30237619D01*
X95424523Y-30332857D01*
X95424523Y-30428095D01*
X95376904Y-30570952D01*
X94805476Y-31142380D01*
X95424523Y-31142380D01*
X62738095Y-78192380D02*
X62738095Y-79001904D01*
X62785714Y-79097142D01*
X62833333Y-79144761D01*
X62928571Y-79192380D01*
X63119047Y-79192380D01*
X63214285Y-79144761D01*
X63261904Y-79097142D01*
X63309523Y-79001904D01*
X63309523Y-78192380D01*
X64309523Y-79192380D02*
X63738095Y-79192380D01*
X64023809Y-79192380D02*
X64023809Y-78192380D01*
X63928571Y-78335238D01*
X63833333Y-78430476D01*
X63738095Y-78478095D01*
X114133333Y-38528142D02*
X114085714Y-38575761D01*
X113942857Y-38623380D01*
X113847619Y-38623380D01*
X113704761Y-38575761D01*
X113609523Y-38480523D01*
X113561904Y-38385285D01*
X113514285Y-38194809D01*
X113514285Y-38051952D01*
X113561904Y-37861476D01*
X113609523Y-37766238D01*
X113704761Y-37671000D01*
X113847619Y-37623380D01*
X113942857Y-37623380D01*
X114085714Y-37671000D01*
X114133333Y-37718619D01*
X114466666Y-37623380D02*
X115133333Y-37623380D01*
X114704761Y-38623380D01*
X44958095Y-44537380D02*
X44958095Y-45346904D01*
X45005714Y-45442142D01*
X45053333Y-45489761D01*
X45148571Y-45537380D01*
X45339047Y-45537380D01*
X45434285Y-45489761D01*
X45481904Y-45442142D01*
X45529523Y-45346904D01*
X45529523Y-44537380D01*
X45910476Y-44537380D02*
X46529523Y-44537380D01*
X46196190Y-44918333D01*
X46339047Y-44918333D01*
X46434285Y-44965952D01*
X46481904Y-45013571D01*
X46529523Y-45108809D01*
X46529523Y-45346904D01*
X46481904Y-45442142D01*
X46434285Y-45489761D01*
X46339047Y-45537380D01*
X46053333Y-45537380D01*
X45958095Y-45489761D01*
X45910476Y-45442142D01*
X114260380Y-36909333D02*
X114974666Y-36909333D01*
X115117523Y-36956952D01*
X115212761Y-37052190D01*
X115260380Y-37195047D01*
X115260380Y-37290285D01*
X114260380Y-35956952D02*
X114260380Y-36433142D01*
X114736571Y-36480761D01*
X114688952Y-36433142D01*
X114641333Y-36337904D01*
X114641333Y-36099809D01*
X114688952Y-36004571D01*
X114736571Y-35956952D01*
X114831809Y-35909333D01*
X115069904Y-35909333D01*
X115165142Y-35956952D01*
X115212761Y-36004571D01*
X115260380Y-36099809D01*
X115260380Y-36337904D01*
X115212761Y-36433142D01*
X115165142Y-36480761D01*
X123198095Y-44410380D02*
X123198095Y-45219904D01*
X123245714Y-45315142D01*
X123293333Y-45362761D01*
X123388571Y-45410380D01*
X123579047Y-45410380D01*
X123674285Y-45362761D01*
X123721904Y-45315142D01*
X123769523Y-45219904D01*
X123769523Y-44410380D01*
X124198095Y-45362761D02*
X124340952Y-45410380D01*
X124579047Y-45410380D01*
X124674285Y-45362761D01*
X124721904Y-45315142D01*
X124769523Y-45219904D01*
X124769523Y-45124666D01*
X124721904Y-45029428D01*
X124674285Y-44981809D01*
X124579047Y-44934190D01*
X124388571Y-44886571D01*
X124293333Y-44838952D01*
X124245714Y-44791333D01*
X124198095Y-44696095D01*
X124198095Y-44600857D01*
X124245714Y-44505619D01*
X124293333Y-44458000D01*
X124388571Y-44410380D01*
X124626666Y-44410380D01*
X124769523Y-44458000D01*
X125531428Y-44886571D02*
X125674285Y-44934190D01*
X125721904Y-44981809D01*
X125769523Y-45077047D01*
X125769523Y-45219904D01*
X125721904Y-45315142D01*
X125674285Y-45362761D01*
X125579047Y-45410380D01*
X125198095Y-45410380D01*
X125198095Y-44410380D01*
X125531428Y-44410380D01*
X125626666Y-44458000D01*
X125674285Y-44505619D01*
X125721904Y-44600857D01*
X125721904Y-44696095D01*
X125674285Y-44791333D01*
X125626666Y-44838952D01*
X125531428Y-44886571D01*
X125198095Y-44886571D01*
X47419047Y-76763571D02*
X47561904Y-76811190D01*
X47609523Y-76858809D01*
X47657142Y-76954047D01*
X47657142Y-77096904D01*
X47609523Y-77192142D01*
X47561904Y-77239761D01*
X47466666Y-77287380D01*
X47085714Y-77287380D01*
X47085714Y-76287380D01*
X47419047Y-76287380D01*
X47514285Y-76335000D01*
X47561904Y-76382619D01*
X47609523Y-76477857D01*
X47609523Y-76573095D01*
X47561904Y-76668333D01*
X47514285Y-76715952D01*
X47419047Y-76763571D01*
X47085714Y-76763571D01*
X47990476Y-76287380D02*
X48657142Y-76287380D01*
X47990476Y-77287380D01*
X48657142Y-77287380D01*
X49561904Y-77287380D02*
X48990476Y-77287380D01*
X49276190Y-77287380D02*
X49276190Y-76287380D01*
X49180952Y-76430238D01*
X49085714Y-76525476D01*
X48990476Y-76573095D01*
X49252142Y-59856666D02*
X49299761Y-59904285D01*
X49347380Y-60047142D01*
X49347380Y-60142380D01*
X49299761Y-60285238D01*
X49204523Y-60380476D01*
X49109285Y-60428095D01*
X48918809Y-60475714D01*
X48775952Y-60475714D01*
X48585476Y-60428095D01*
X48490238Y-60380476D01*
X48395000Y-60285238D01*
X48347380Y-60142380D01*
X48347380Y-60047142D01*
X48395000Y-59904285D01*
X48442619Y-59856666D01*
X48347380Y-59523333D02*
X48347380Y-58904285D01*
X48728333Y-59237619D01*
X48728333Y-59094761D01*
X48775952Y-58999523D01*
X48823571Y-58951904D01*
X48918809Y-58904285D01*
X49156904Y-58904285D01*
X49252142Y-58951904D01*
X49299761Y-58999523D01*
X49347380Y-59094761D01*
X49347380Y-59380476D01*
X49299761Y-59475714D01*
X49252142Y-59523333D01*
X49383333Y-41632142D02*
X49335714Y-41679761D01*
X49192857Y-41727380D01*
X49097619Y-41727380D01*
X48954761Y-41679761D01*
X48859523Y-41584523D01*
X48811904Y-41489285D01*
X48764285Y-41298809D01*
X48764285Y-41155952D01*
X48811904Y-40965476D01*
X48859523Y-40870238D01*
X48954761Y-40775000D01*
X49097619Y-40727380D01*
X49192857Y-40727380D01*
X49335714Y-40775000D01*
X49383333Y-40822619D01*
X50335714Y-41727380D02*
X49764285Y-41727380D01*
X50050000Y-41727380D02*
X50050000Y-40727380D01*
X49954761Y-40870238D01*
X49859523Y-40965476D01*
X49764285Y-41013095D01*
X49383333Y-52572142D02*
X49335714Y-52619761D01*
X49192857Y-52667380D01*
X49097619Y-52667380D01*
X48954761Y-52619761D01*
X48859523Y-52524523D01*
X48811904Y-52429285D01*
X48764285Y-52238809D01*
X48764285Y-52095952D01*
X48811904Y-51905476D01*
X48859523Y-51810238D01*
X48954761Y-51715000D01*
X49097619Y-51667380D01*
X49192857Y-51667380D01*
X49335714Y-51715000D01*
X49383333Y-51762619D01*
X49764285Y-51762619D02*
X49811904Y-51715000D01*
X49907142Y-51667380D01*
X50145238Y-51667380D01*
X50240476Y-51715000D01*
X50288095Y-51762619D01*
X50335714Y-51857857D01*
X50335714Y-51953095D01*
X50288095Y-52095952D01*
X49716666Y-52667380D01*
X50335714Y-52667380D01*
X100798333Y-31472142D02*
X100750714Y-31519761D01*
X100607857Y-31567380D01*
X100512619Y-31567380D01*
X100369761Y-31519761D01*
X100274523Y-31424523D01*
X100226904Y-31329285D01*
X100179285Y-31138809D01*
X100179285Y-30995952D01*
X100226904Y-30805476D01*
X100274523Y-30710238D01*
X100369761Y-30615000D01*
X100512619Y-30567380D01*
X100607857Y-30567380D01*
X100750714Y-30615000D01*
X100798333Y-30662619D01*
X101655476Y-30567380D02*
X101465000Y-30567380D01*
X101369761Y-30615000D01*
X101322142Y-30662619D01*
X101226904Y-30805476D01*
X101179285Y-30995952D01*
X101179285Y-31376904D01*
X101226904Y-31472142D01*
X101274523Y-31519761D01*
X101369761Y-31567380D01*
X101560238Y-31567380D01*
X101655476Y-31519761D01*
X101703095Y-31472142D01*
X101750714Y-31376904D01*
X101750714Y-31138809D01*
X101703095Y-31043571D01*
X101655476Y-30995952D01*
X101560238Y-30948333D01*
X101369761Y-30948333D01*
X101274523Y-30995952D01*
X101226904Y-31043571D01*
X101179285Y-31138809D01*
X73493333Y-44172142D02*
X73445714Y-44219761D01*
X73302857Y-44267380D01*
X73207619Y-44267380D01*
X73064761Y-44219761D01*
X72969523Y-44124523D01*
X72921904Y-44029285D01*
X72874285Y-43838809D01*
X72874285Y-43695952D01*
X72921904Y-43505476D01*
X72969523Y-43410238D01*
X73064761Y-43315000D01*
X73207619Y-43267380D01*
X73302857Y-43267380D01*
X73445714Y-43315000D01*
X73493333Y-43362619D01*
X74398095Y-43267380D02*
X73921904Y-43267380D01*
X73874285Y-43743571D01*
X73921904Y-43695952D01*
X74017142Y-43648333D01*
X74255238Y-43648333D01*
X74350476Y-43695952D01*
X74398095Y-43743571D01*
X74445714Y-43838809D01*
X74445714Y-44076904D01*
X74398095Y-44172142D01*
X74350476Y-44219761D01*
X74255238Y-44267380D01*
X74017142Y-44267380D01*
X73921904Y-44219761D01*
X73874285Y-44172142D01*
X53173333Y-51792142D02*
X53125714Y-51839761D01*
X52982857Y-51887380D01*
X52887619Y-51887380D01*
X52744761Y-51839761D01*
X52649523Y-51744523D01*
X52601904Y-51649285D01*
X52554285Y-51458809D01*
X52554285Y-51315952D01*
X52601904Y-51125476D01*
X52649523Y-51030238D01*
X52744761Y-50935000D01*
X52887619Y-50887380D01*
X52982857Y-50887380D01*
X53125714Y-50935000D01*
X53173333Y-50982619D01*
X54030476Y-51220714D02*
X54030476Y-51887380D01*
X53792380Y-50839761D02*
X53554285Y-51554047D01*
X54173333Y-51554047D01*
X35996666Y-70782380D02*
X35996666Y-71496666D01*
X35949047Y-71639523D01*
X35853809Y-71734761D01*
X35710952Y-71782380D01*
X35615714Y-71782380D01*
X36472857Y-71782380D02*
X36472857Y-70782380D01*
X36853809Y-70782380D01*
X36949047Y-70830000D01*
X36996666Y-70877619D01*
X37044285Y-70972857D01*
X37044285Y-71115714D01*
X36996666Y-71210952D01*
X36949047Y-71258571D01*
X36853809Y-71306190D01*
X36472857Y-71306190D01*
X37996666Y-71782380D02*
X37425238Y-71782380D01*
X37710952Y-71782380D02*
X37710952Y-70782380D01*
X37615714Y-70925238D01*
X37520476Y-71020476D01*
X37425238Y-71068095D01*
X35210952Y-77982380D02*
X35210952Y-78696666D01*
X35163333Y-78839523D01*
X35068095Y-78934761D01*
X34925238Y-78982380D01*
X34830000Y-78982380D01*
X35591904Y-77982380D02*
X36210952Y-77982380D01*
X35877619Y-78363333D01*
X36020476Y-78363333D01*
X36115714Y-78410952D01*
X36163333Y-78458571D01*
X36210952Y-78553809D01*
X36210952Y-78791904D01*
X36163333Y-78887142D01*
X36115714Y-78934761D01*
X36020476Y-78982380D01*
X35734761Y-78982380D01*
X35639523Y-78934761D01*
X35591904Y-78887142D01*
X37877619Y-77982380D02*
X37401428Y-77982380D01*
X37353809Y-78458571D01*
X37401428Y-78410952D01*
X37496666Y-78363333D01*
X37734761Y-78363333D01*
X37830000Y-78410952D01*
X37877619Y-78458571D01*
X37925238Y-78553809D01*
X37925238Y-78791904D01*
X37877619Y-78887142D01*
X37830000Y-78934761D01*
X37734761Y-78982380D01*
X37496666Y-78982380D01*
X37401428Y-78934761D01*
X37353809Y-78887142D01*
X38210952Y-77982380D02*
X38544285Y-78982380D01*
X38877619Y-77982380D01*
X33742380Y-43513333D02*
X34456666Y-43513333D01*
X34599523Y-43560952D01*
X34694761Y-43656190D01*
X34742380Y-43799047D01*
X34742380Y-43894285D01*
X34075714Y-42608571D02*
X34742380Y-42608571D01*
X33694761Y-42846666D02*
X34409047Y-43084761D01*
X34409047Y-42465714D01*
X27146761Y-46172380D02*
X27146761Y-45172380D01*
X27527714Y-45172380D01*
X27622952Y-45220000D01*
X27670571Y-45267619D01*
X27718190Y-45362857D01*
X27718190Y-45505714D01*
X27670571Y-45600952D01*
X27622952Y-45648571D01*
X27527714Y-45696190D01*
X27146761Y-45696190D01*
X28575333Y-46172380D02*
X28575333Y-45648571D01*
X28527714Y-45553333D01*
X28432476Y-45505714D01*
X28242000Y-45505714D01*
X28146761Y-45553333D01*
X28575333Y-46124761D02*
X28480095Y-46172380D01*
X28242000Y-46172380D01*
X28146761Y-46124761D01*
X28099142Y-46029523D01*
X28099142Y-45934285D01*
X28146761Y-45839047D01*
X28242000Y-45791428D01*
X28480095Y-45791428D01*
X28575333Y-45743809D01*
X29003904Y-46124761D02*
X29099142Y-46172380D01*
X29289619Y-46172380D01*
X29384857Y-46124761D01*
X29432476Y-46029523D01*
X29432476Y-45981904D01*
X29384857Y-45886666D01*
X29289619Y-45839047D01*
X29146761Y-45839047D01*
X29051523Y-45791428D01*
X29003904Y-45696190D01*
X29003904Y-45648571D01*
X29051523Y-45553333D01*
X29146761Y-45505714D01*
X29289619Y-45505714D01*
X29384857Y-45553333D01*
X29813428Y-46124761D02*
X29908666Y-46172380D01*
X30099142Y-46172380D01*
X30194380Y-46124761D01*
X30242000Y-46029523D01*
X30242000Y-45981904D01*
X30194380Y-45886666D01*
X30099142Y-45839047D01*
X29956285Y-45839047D01*
X29861047Y-45791428D01*
X29813428Y-45696190D01*
X29813428Y-45648571D01*
X29861047Y-45553333D01*
X29956285Y-45505714D01*
X30099142Y-45505714D01*
X30194380Y-45553333D01*
X30527714Y-45505714D02*
X30908666Y-45505714D01*
X30670571Y-45172380D02*
X30670571Y-46029523D01*
X30718190Y-46124761D01*
X30813428Y-46172380D01*
X30908666Y-46172380D01*
X31242000Y-46172380D02*
X31242000Y-45172380D01*
X31670571Y-46172380D02*
X31670571Y-45648571D01*
X31622952Y-45553333D01*
X31527714Y-45505714D01*
X31384857Y-45505714D01*
X31289619Y-45553333D01*
X31242000Y-45600952D01*
X32146761Y-46172380D02*
X32146761Y-45505714D01*
X32146761Y-45696190D02*
X32194380Y-45600952D01*
X32242000Y-45553333D01*
X32337238Y-45505714D01*
X32432476Y-45505714D01*
X33194380Y-45505714D02*
X33194380Y-46172380D01*
X32765809Y-45505714D02*
X32765809Y-46029523D01*
X32813428Y-46124761D01*
X32908666Y-46172380D01*
X33051523Y-46172380D01*
X33146761Y-46124761D01*
X33194380Y-46077142D01*
X34432476Y-46172380D02*
X34432476Y-45172380D01*
X34908666Y-45505714D02*
X34908666Y-46172380D01*
X34908666Y-45600952D02*
X34956285Y-45553333D01*
X35051523Y-45505714D01*
X35194380Y-45505714D01*
X35289619Y-45553333D01*
X35337238Y-45648571D01*
X35337238Y-46172380D01*
X35988666Y-55840380D02*
X35988666Y-56554666D01*
X35941047Y-56697523D01*
X35845809Y-56792761D01*
X35702952Y-56840380D01*
X35607714Y-56840380D01*
X36988666Y-56840380D02*
X36417238Y-56840380D01*
X36702952Y-56840380D02*
X36702952Y-55840380D01*
X36607714Y-55983238D01*
X36512476Y-56078476D01*
X36417238Y-56126095D01*
X27694095Y-67397380D02*
X27217904Y-67397380D01*
X27170285Y-67873571D01*
X27217904Y-67825952D01*
X27313142Y-67778333D01*
X27551238Y-67778333D01*
X27646476Y-67825952D01*
X27694095Y-67873571D01*
X27741714Y-67968809D01*
X27741714Y-68206904D01*
X27694095Y-68302142D01*
X27646476Y-68349761D01*
X27551238Y-68397380D01*
X27313142Y-68397380D01*
X27217904Y-68349761D01*
X27170285Y-68302142D01*
X28027428Y-67397380D02*
X28360761Y-68397380D01*
X28694095Y-67397380D01*
X29789333Y-68397380D02*
X29789333Y-67397380D01*
X30265523Y-67730714D02*
X30265523Y-68397380D01*
X30265523Y-67825952D02*
X30313142Y-67778333D01*
X30408380Y-67730714D01*
X30551238Y-67730714D01*
X30646476Y-67778333D01*
X30694095Y-67873571D01*
X30694095Y-68397380D01*
X87931666Y-50252380D02*
X87931666Y-50966666D01*
X87884047Y-51109523D01*
X87788809Y-51204761D01*
X87645952Y-51252380D01*
X87550714Y-51252380D01*
X88360238Y-50347619D02*
X88407857Y-50300000D01*
X88503095Y-50252380D01*
X88741190Y-50252380D01*
X88836428Y-50300000D01*
X88884047Y-50347619D01*
X88931666Y-50442857D01*
X88931666Y-50538095D01*
X88884047Y-50680952D01*
X88312619Y-51252380D01*
X88931666Y-51252380D01*
X84503095Y-57729380D02*
X84503095Y-56729380D01*
X84884047Y-56729380D01*
X84979285Y-56777000D01*
X85026904Y-56824619D01*
X85074523Y-56919857D01*
X85074523Y-57062714D01*
X85026904Y-57157952D01*
X84979285Y-57205571D01*
X84884047Y-57253190D01*
X84503095Y-57253190D01*
X85503095Y-57729380D02*
X85503095Y-57062714D01*
X85503095Y-57253190D02*
X85550714Y-57157952D01*
X85598333Y-57110333D01*
X85693571Y-57062714D01*
X85788809Y-57062714D01*
X86265000Y-57729380D02*
X86169761Y-57681761D01*
X86122142Y-57634142D01*
X86074523Y-57538904D01*
X86074523Y-57253190D01*
X86122142Y-57157952D01*
X86169761Y-57110333D01*
X86265000Y-57062714D01*
X86407857Y-57062714D01*
X86503095Y-57110333D01*
X86550714Y-57157952D01*
X86598333Y-57253190D01*
X86598333Y-57538904D01*
X86550714Y-57634142D01*
X86503095Y-57681761D01*
X86407857Y-57729380D01*
X86265000Y-57729380D01*
X87026904Y-57062714D02*
X87026904Y-58062714D01*
X87026904Y-57110333D02*
X87122142Y-57062714D01*
X87312619Y-57062714D01*
X87407857Y-57110333D01*
X87455476Y-57157952D01*
X87503095Y-57253190D01*
X87503095Y-57538904D01*
X87455476Y-57634142D01*
X87407857Y-57681761D01*
X87312619Y-57729380D01*
X87122142Y-57729380D01*
X87026904Y-57681761D01*
X87931666Y-57348428D02*
X88693571Y-57348428D01*
X89169761Y-57729380D02*
X89169761Y-56729380D01*
X89550714Y-56729380D01*
X89645952Y-56777000D01*
X89693571Y-56824619D01*
X89741190Y-56919857D01*
X89741190Y-57062714D01*
X89693571Y-57157952D01*
X89645952Y-57205571D01*
X89550714Y-57253190D01*
X89169761Y-57253190D01*
X90312619Y-57729380D02*
X90217380Y-57681761D01*
X90169761Y-57586523D01*
X90169761Y-56729380D01*
X91122142Y-57062714D02*
X91122142Y-57729380D01*
X90693571Y-57062714D02*
X90693571Y-57586523D01*
X90741190Y-57681761D01*
X90836428Y-57729380D01*
X90979285Y-57729380D01*
X91074523Y-57681761D01*
X91122142Y-57634142D01*
X92026904Y-57062714D02*
X92026904Y-57872238D01*
X91979285Y-57967476D01*
X91931666Y-58015095D01*
X91836428Y-58062714D01*
X91693571Y-58062714D01*
X91598333Y-58015095D01*
X92026904Y-57681761D02*
X91931666Y-57729380D01*
X91741190Y-57729380D01*
X91645952Y-57681761D01*
X91598333Y-57634142D01*
X91550714Y-57538904D01*
X91550714Y-57253190D01*
X91598333Y-57157952D01*
X91645952Y-57110333D01*
X91741190Y-57062714D01*
X91931666Y-57062714D01*
X92026904Y-57110333D01*
X76660476Y-46124880D02*
X77327142Y-47124880D01*
X77327142Y-46124880D02*
X76660476Y-47124880D01*
X78231904Y-47124880D02*
X77660476Y-47124880D01*
X77946190Y-47124880D02*
X77946190Y-46124880D01*
X77850952Y-46267738D01*
X77755714Y-46362976D01*
X77660476Y-46410595D01*
%LPC*%
D14*
X32335000Y-54935000D03*
D15*
X29845000Y-53685000D03*
X29845000Y-49185000D03*
D14*
X32335000Y-47925000D03*
D16*
X111665000Y-33020000D03*
D17*
X113665000Y-33020000D03*
D18*
X109855000Y-76200000D03*
D16*
X102235000Y-76200000D03*
D18*
X109855000Y-73660000D03*
D16*
X102235000Y-73660000D03*
D18*
X102235000Y-71120000D03*
D16*
X109855000Y-71120000D03*
D18*
X102235000Y-68580000D03*
D16*
X109855000Y-68580000D03*
D18*
X102235000Y-66040000D03*
D16*
X109855000Y-66040000D03*
D18*
X102235000Y-63500000D03*
D16*
X109855000Y-63500000D03*
D18*
X102235000Y-60960000D03*
D16*
X109855000Y-60960000D03*
D18*
X102235000Y-58420000D03*
D16*
X109855000Y-58420000D03*
D18*
X102235000Y-55880000D03*
D16*
X109855000Y-55880000D03*
D18*
X102235000Y-53340000D03*
D16*
X109855000Y-53340000D03*
D18*
X102235000Y-50800000D03*
D16*
X109855000Y-50800000D03*
D18*
X102235000Y-48260000D03*
D16*
X109855000Y-48260000D03*
D18*
X109855000Y-45720000D03*
D16*
X102235000Y-45720000D03*
D18*
X109855000Y-43180000D03*
D16*
X102235000Y-43180000D03*
D18*
X102235000Y-40640000D03*
D16*
X109855000Y-40640000D03*
D18*
X86995000Y-48260000D03*
D16*
X86995000Y-40640000D03*
D18*
X84455000Y-40640000D03*
D16*
X84455000Y-48260000D03*
D18*
X81915000Y-40640000D03*
D16*
X81915000Y-48260000D03*
D18*
X40640000Y-39370000D03*
D16*
X40640000Y-46990000D03*
D19*
X118705000Y-50793800D03*
X118705000Y-75793800D03*
D16*
X121285000Y-68138800D03*
X121285000Y-65848800D03*
X121285000Y-63558800D03*
X121285000Y-61268800D03*
X121285000Y-58978800D03*
X118745000Y-66993800D03*
X118745000Y-64703800D03*
X118745000Y-62413800D03*
X118745000Y-60123800D03*
X118745000Y-57833800D03*
X116205000Y-68138800D03*
X116205000Y-65848800D03*
X116205000Y-63558800D03*
X116205000Y-61268800D03*
D17*
X116205000Y-58978800D03*
D20*
X31750000Y-86360000D03*
X31750000Y-83820000D03*
X31750000Y-81280000D03*
X31750000Y-78740000D03*
X31750000Y-76200000D03*
D21*
X31750000Y-73660000D03*
D22*
X121920000Y-85090000D03*
G36*
G01*
X117867000Y-84576500D02*
X117867000Y-85603500D01*
G75*
G02*
X117353500Y-86117000I-513500J0D01*
G01*
X116326500Y-86117000D01*
G75*
G02*
X115813000Y-85603500I0J513500D01*
G01*
X115813000Y-84576500D01*
G75*
G02*
X116326500Y-84063000I513500J0D01*
G01*
X117353500Y-84063000D01*
G75*
G02*
X117867000Y-84576500I0J-513500D01*
G01*
G37*
X114300000Y-85090000D03*
X111760000Y-85090000D03*
D23*
X48260000Y-58420000D03*
X40640000Y-73660000D03*
X48260000Y-60960000D03*
X40640000Y-71120000D03*
X48260000Y-63500000D03*
X40640000Y-68580000D03*
X48260000Y-66040000D03*
X40640000Y-66040000D03*
X48260000Y-68580000D03*
X40640000Y-63500000D03*
X48260000Y-71120000D03*
X40640000Y-60960000D03*
X48260000Y-73660000D03*
D24*
X40640000Y-58420000D03*
X90805000Y-33020000D03*
D23*
X98425000Y-40640000D03*
X90805000Y-35560000D03*
X98425000Y-38100000D03*
X90805000Y-38100000D03*
X98425000Y-35560000D03*
X90805000Y-40640000D03*
X98425000Y-33020000D03*
X71120000Y-27940000D03*
X55880000Y-76200000D03*
X71120000Y-30480000D03*
X55880000Y-73660000D03*
X71120000Y-33020000D03*
X55880000Y-71120000D03*
X71120000Y-35560000D03*
X55880000Y-68580000D03*
X71120000Y-38100000D03*
X55880000Y-66040000D03*
X71120000Y-40640000D03*
X55880000Y-63500000D03*
X71120000Y-43180000D03*
X55880000Y-60960000D03*
X71120000Y-45720000D03*
X55880000Y-58420000D03*
X71120000Y-48260000D03*
X55880000Y-55880000D03*
X71120000Y-50800000D03*
X55880000Y-53340000D03*
X71120000Y-53340000D03*
X55880000Y-50800000D03*
X71120000Y-55880000D03*
X55880000Y-48260000D03*
X71120000Y-58420000D03*
X55880000Y-45720000D03*
X71120000Y-60960000D03*
X55880000Y-43180000D03*
X71120000Y-63500000D03*
X55880000Y-40640000D03*
X71120000Y-66040000D03*
X55880000Y-38100000D03*
X71120000Y-68580000D03*
X55880000Y-35560000D03*
X71120000Y-71120000D03*
X55880000Y-33020000D03*
X71120000Y-73660000D03*
X55880000Y-30480000D03*
X71120000Y-76200000D03*
D24*
X55880000Y-27940000D03*
D16*
X114300000Y-42576000D03*
X114300000Y-40076000D03*
D25*
X49530000Y-45720000D03*
X50800000Y-46990000D03*
X48260000Y-46990000D03*
D26*
X120185000Y-30006000D03*
X120185000Y-43146000D03*
D27*
X117475000Y-40076000D03*
D28*
X117475000Y-37576000D03*
X117475000Y-35576000D03*
X117475000Y-33076000D03*
D29*
X45800000Y-83820000D03*
D30*
X50800000Y-83820000D03*
D16*
X50800000Y-60920000D03*
X50800000Y-58420000D03*
X50800000Y-43180000D03*
X48300000Y-43180000D03*
X50800000Y-50165000D03*
X48300000Y-50165000D03*
X100965000Y-33020000D03*
X100965000Y-35520000D03*
X73660000Y-45760000D03*
X73660000Y-48260000D03*
X53340000Y-53380000D03*
X53340000Y-55880000D03*
D20*
X36830000Y-76200000D03*
D31*
X36830000Y-73660000D03*
D20*
X31750000Y-43180000D03*
X31750000Y-40640000D03*
X31750000Y-38100000D03*
X31750000Y-35560000D03*
X31750000Y-33020000D03*
D21*
X31750000Y-30480000D03*
D32*
X36480000Y-62230000D03*
G36*
G01*
X28853000Y-63293500D02*
X28853000Y-61166500D01*
G75*
G02*
X29666500Y-60353000I813500J0D01*
G01*
X31293500Y-60353000D01*
G75*
G02*
X32107000Y-61166500I0J-813500D01*
G01*
X32107000Y-63293500D01*
G75*
G02*
X31293500Y-64107000I-813500J0D01*
G01*
X29666500Y-64107000D01*
G75*
G02*
X28853000Y-63293500I0J813500D01*
G01*
G37*
G36*
G01*
X31603000Y-67868500D02*
X31603000Y-65991500D01*
G75*
G02*
X32541500Y-65053000I938500J0D01*
G01*
X34418500Y-65053000D01*
G75*
G02*
X35357000Y-65991500I0J-938500D01*
G01*
X35357000Y-67868500D01*
G75*
G02*
X34418500Y-68807000I-938500J0D01*
G01*
X32541500Y-68807000D01*
G75*
G02*
X31603000Y-67868500I0J938500D01*
G01*
G37*
D20*
X92075000Y-53340000D03*
X89535000Y-53340000D03*
X86995000Y-53340000D03*
D21*
X84455000Y-53340000D03*
D33*
X77470000Y-50800000D03*
X77470000Y-55680000D03*
D34*
X106172000Y-81534000D03*
X76200000Y-81534000D03*
X36322000Y-81534000D03*
X106172000Y-35306000D03*
X76200000Y-35306000D03*
X36322000Y-35306000D03*
M02*
